<svg width="50" height="50" viewBox="0 0 50 50" fill="none" xmlns="http://www.w3.org/2000/svg">
<circle cx="25" cy="25" r="25" fill="url(#paint0_linear_608_1179)"/>
<circle cx="25.4152" cy="24.5835" r="22.4167" stroke="url(#paint1_linear_608_1179)"/>
<path d="M27.5982 14.8107C28.0567 14.0955 28.726 13.5361 29.6063 13.1327C30.5049 12.7109 31.6052 12.5 32.9073 12.5C34.2277 12.5 35.5298 12.7567 36.8135 13.2702C36.8318 13.4169 36.841 13.8938 36.841 14.7007C36.841 15.4892 36.731 16.2686 36.5109 17.0389L34.9704 17.2039C34.677 15.3517 34.4019 14.3706 34.1452 14.2605C33.7601 14.0955 33.0724 14.013 32.0821 14.013C31.0918 14.013 30.3674 14.3522 29.9089 15.0308C29.267 16.0027 28.9461 17.3873 28.9461 19.1845C28.9461 20.9634 29.3312 22.2655 30.1015 23.0907C30.89 23.8976 31.9078 24.3011 33.1549 24.3011C34.4203 24.3011 35.6398 23.8976 36.8135 23.0907L37.5837 23.9985C36.0983 25.4473 34.3469 26.1716 32.3296 26.1716C30.3307 26.1716 28.8177 25.5481 27.7908 24.3011C26.7821 23.0357 26.2778 21.4769 26.2778 19.6247C26.2778 17.7541 26.7179 16.1494 27.5982 14.8107Z" fill="url(#paint2_linear_608_1179)"/>
<path d="M17.2392 37.0772C18.3945 36.8938 19.1006 36.7104 19.3573 36.527C19.6141 36.3253 19.7425 35.9402 19.7425 35.3717V20.5172C17.3767 20.5538 16.1114 20.6088 15.9463 20.6822C15.7813 20.7556 15.6529 20.8381 15.5612 20.9298C15.3411 21.2232 15.0752 22.2593 14.7634 24.0382L13.3605 23.9282C13.3422 23.6531 13.333 23.1213 13.333 22.3327C13.333 21.5258 13.4155 20.4438 13.5806 19.0867H28.5726C28.7377 20.4438 28.8202 21.5258 28.8202 22.3327C28.8202 23.1213 28.811 23.6531 28.7927 23.9282L27.3898 24.0382C27.078 22.2593 26.8029 21.2232 26.5645 20.9298C26.4912 20.8381 26.372 20.7556 26.2069 20.6822C26.0419 20.6088 24.7765 20.5538 22.4108 20.5172V36.0319C22.4108 36.4537 22.5942 36.6921 22.9609 36.7471L25.0791 37.0772L24.969 38.15H17.4042L17.2392 37.0772Z" fill="url(#paint3_linear_608_1179)"/>
<defs>
<linearGradient id="paint0_linear_608_1179" x1="25" y1="0" x2="25" y2="50" gradientUnits="userSpaceOnUse">
<stop stop-color="#77B0AA"/>
<stop offset="1" stop-color="#23262F"/>
</linearGradient>
<linearGradient id="paint1_linear_608_1179" x1="25.4152" y1="1.66684" x2="25.4152" y2="47.5002" gradientUnits="userSpaceOnUse">
<stop stop-color="#E3FEF7"/>
<stop offset="1" stop-color="#8CBAAE"/>
</linearGradient>
<linearGradient id="paint2_linear_608_1179" x1="25.4584" y1="12.5" x2="25.4584" y2="38.15" gradientUnits="userSpaceOnUse">
<stop stop-color="#E3FEF7"/>
<stop offset="1" stop-color="#8CBAAE"/>
</linearGradient>
<linearGradient id="paint3_linear_608_1179" x1="25.4584" y1="12.5" x2="25.4584" y2="38.15" gradientUnits="userSpaceOnUse">
<stop stop-color="#E3FEF7"/>
<stop offset="1" stop-color="#8CBAAE"/>
</linearGradient>
</defs>
</svg>
