<svg width="49" height="63" viewBox="0 0 49 63" fill="none" xmlns="http://www.w3.org/2000/svg">
<rect y="0.5" width="49" height="62" rx="24.5" fill="#135D66"/>
<path d="M29.82 28.2625C30.6127 27.7447 31.5224 27.4361 32.4651 27.3655C34.0104 27.2306 35.5457 27.7185 36.7333 28.722C37.9209 29.7254 38.6637 31.1623 38.7981 32.7164C38.9151 34.0406 38.5791 35.3651 37.8459 36.4712C37.1947 37.407 36.4612 38.282 35.6543 39.0858L35.4965 39.2416M17.9852 28.2623C17.1969 27.7469 16.2926 27.4384 15.3552 27.3652C14.5897 27.2964 13.8181 27.3805 13.085 27.6124C12.3518 27.8444 11.6714 28.2197 11.0829 28.7169C10.4944 29.2141 10.0094 29.8235 9.65577 30.5098C9.30211 31.1961 9.08677 31.9459 9.02213 32.7162C8.90795 34.038 9.23793 35.3601 9.95924 36.4709C10.6394 37.6329 11.6288 38.5807 12.8159 39.2073M25.6634 20.5247C27.4101 20.8165 29.0418 21.5907 30.3763 22.7611C31.7108 23.9315 32.6956 25.452 33.2208 27.1527M14.5843 27.1827C15.0977 25.6235 15.9924 24.2193 17.1861 23.0984C18.3798 21.9776 19.8343 21.176 21.4162 20.7678M20.9023 23.3825L20.3431 23.9602M27.3714 25.5564L26.4947 26.438M14.3576 32.017L13.4961 32.8987M28.7166 33.2787L27.976 34.0236M20.7058 31.0745L19.9652 31.8194M35.8659 32.4578L35.3217 33.0051M23.4718 17.5907C22.8745 17.5907 22.3017 17.8292 21.8793 18.2539C21.457 18.6787 21.2197 19.255 21.2197 19.8557C21.2242 20.0825 21.2598 20.3075 21.3255 20.5245C21.4556 21.0036 21.7396 21.4258 22.1333 21.7255C22.527 22.0252 23.0083 22.1857 23.502 22.1816C24.0993 22.1816 24.6722 21.9428 25.0945 21.518C25.5169 21.0932 25.7541 20.5173 25.7541 19.9166C25.7623 19.6115 25.7091 19.3076 25.5977 19.0237C25.4862 18.7398 25.3189 18.4816 25.1058 18.2643C24.8926 18.0471 24.638 17.8754 24.3572 17.7596C24.0764 17.6438 23.7752 17.5865 23.4718 17.5907ZM23.4718 17.5907C23.313 16.7164 23.4352 15.8757 23.767 15.052C24.0989 14.2283 24.6571 13.5165 25.3763 13M35.4965 39.2416C35.3096 41.3661 34.7343 43.4421 33.7952 45.3638C33.4654 46.2247 32.9698 47.0115 32.337 47.6793C31.7041 48.3471 30.9463 48.8826 30.1072 49.2551C28.2189 49.8364 26.631 50 24.2729 50C21.9147 50 20.1202 49.8747 18.1363 49.2551C17.2971 48.8826 16.5394 48.3471 15.9065 47.6793C15.2736 47.0115 14.7781 46.2247 14.4483 45.3638C13.3132 42.9933 12.7291 40.3942 12.7403 37.7631C12.7531 37.4017 12.85 37.0482 13.0233 36.7314C13.1965 36.4145 13.4413 36.143 13.7379 35.9386C14.1901 35.7492 14.6804 35.6697 15.1689 35.7067C15.6574 35.7436 16.1303 35.8963 16.5493 36.1517C17.3773 36.6753 18.3371 36.9496 19.3152 36.9422C21.3104 36.6685 22.2626 34.1905 24.4543 34.4946C26.268 34.753 27.2354 36.6989 28.9887 36.9422C29.9712 36.9475 30.9353 36.6734 31.7698 36.1517C32.1841 35.8917 32.6549 35.7363 33.1419 35.6992C33.6288 35.6622 34.1175 35.7443 34.566 35.9386C34.8652 36.1403 35.1119 36.4114 35.2855 36.7288C35.4591 37.0462 35.5545 37.401 35.5636 37.7631C35.5622 38.2576 35.5397 38.7509 35.4965 39.2416Z" stroke="#E3FEF7" stroke-linecap="round" stroke-linejoin="round"/>
</svg>
