<svg width="49" height="63" viewBox="0 0 49 63" fill="none" xmlns="http://www.w3.org/2000/svg">
<rect y="0.5" width="49" height="62" rx="24.5" fill="#135D66"/>
<path d="M31.2251 21.5801C32.5593 27.0309 32.3394 33.422 29.4803 38.241C28.4393 40.004 29.5683 41.87 30.1694 43.8387C30.58 45.161 31.3131 46.5567 30.8292 47.8496C30.5913 48.4399 30.1877 48.9484 29.6672 49.3134C29.1467 49.6785 28.5317 49.8845 27.8968 49.9064C26.2178 50.0312 24.5319 50.0312 22.853 49.9064C15.6978 49.4656 22.9703 41.7083 20.9176 38.2557C19.1852 35.0348 18.302 31.4243 18.3517 27.7658C18.3517 25.7236 18.1171 22.5941 19.7006 21.022C22.0172 18.7301 26.152 18.7154 28.7765 19.9495M18.6596 31.1005C18.8062 32.9076 20.8589 33.1722 22.2518 32.7462C23.6447 32.3201 25.023 31.1152 26.6505 30.792C27.6183 30.5555 28.6387 30.6745 29.5264 31.1274C30.4142 31.5803 31.1105 32.3372 31.489 33.2605M25.7268 36.1252L34.1429 13M21.8413 46.909C24.0269 47.5981 26.371 47.5981 28.5566 46.909M18.293 27.927C17.9986 27.9862 17.699 28.0158 17.3987 28.0153C16.2321 28.0153 15.1132 27.5509 14.2883 26.7244C13.4634 25.8978 13 24.7767 13 23.6077C13 22.4387 13.4634 21.3176 14.2883 20.491C15.1132 19.6644 16.2321 19.2001 17.3987 19.2001C18.5652 19.2001 19.6841 19.6644 20.509 20.491C21.3339 21.3176 21.7973 22.4387 21.7973 23.6077M18.7329 22.8878C20.1856 23.5575 21.7595 23.9224 23.3581 23.9603C24.9567 23.9982 26.5461 23.7081 28.0287 23.108" stroke="#E3FEF7" stroke-linecap="round" stroke-linejoin="round"/>
</svg>
