<svg width="60" height="60" viewBox="0 0 60 60" fill="none" xmlns="http://www.w3.org/2000/svg">
<path d="M30 56C15.635 56 4 44.365 4 30C4 15.635 15.635 4 30 4C44.365 4 56 15.635 56 30C56 44.365 44.365 56 30 56Z" fill="url(#paint0_linear_8_24)"/>
<path d="M24.8 21.8967C23.3917 23.0667 22.2867 24.605 21.7017 26.3817C21.3767 27.335 21.2033 28.375 21.2033 29.4367V40.985C21.2033 41.9817 20.4017 42.7833 19.405 42.7833C18.4083 42.7833 17.6067 41.9817 17.6067 40.985V29.4367C17.6067 25.9267 18.9717 22.72 21.1817 20.3583C22.6983 18.7333 24.6267 17.4767 26.7933 16.7833C27.9633 16.3933 29.155 17.26 29.155 18.4733C29.155 19.2533 28.6567 19.925 27.92 20.185C26.7717 20.5317 25.71 21.1383 24.8 21.8967Z" fill="white"/>
<path d="M44.3 29.35C44.3433 36.6517 38.4067 42.6967 31.105 42.7617C31.0617 42.7617 30.9967 42.7617 30.9533 42.7617C27.5517 42.7617 24.8 39.9884 24.8 36.5867V29.5234C24.8 29.5017 24.8 29.4584 24.8 29.4367C24.8 25.8834 27.8117 23.0234 31.4083 23.2834C34.4633 23.5 36.9333 25.9917 37.1283 29.0467C37.2583 31.1484 36.3267 33.055 34.8317 34.2467C33.6833 35.1784 31.95 34.3117 31.95 32.8384C31.95 32.2967 32.1883 31.7984 32.6 31.4517C33.2067 30.9534 33.575 30.195 33.5533 29.3717C33.51 28.0284 32.4267 26.9234 31.0833 26.8584C29.5883 26.7934 28.3533 27.985 28.3533 29.4584C28.3533 29.48 28.3533 29.5234 28.3533 29.545V36.4134C28.3533 37.9734 29.6317 39.2517 31.1917 39.2084C31.2133 39.2084 31.2567 39.2084 31.2783 39.2084C36.24 39.035 40.335 35.0917 40.6817 30.13C40.985 25.515 38.0817 21.5284 33.965 20.185C33.2283 19.9467 32.73 19.275 32.73 18.5167V18.4517C32.73 17.26 33.8783 16.3934 35.0267 16.7617C40.3783 18.4517 44.2567 23.435 44.3 29.35Z" fill="white"/>
<circle cx="30" cy="30" r="29" stroke="#35C2C1" stroke-width="2"/>
<defs>
<linearGradient id="paint0_linear_8_24" x1="4" y1="30" x2="56" y2="30" gradientUnits="userSpaceOnUse">
<stop stop-color="#00C3D4"/>
<stop offset="1" stop-color="#00D8B6"/>
</linearGradient>
</defs>
</svg>
