<svg width="49" height="63" viewBox="0 0 49 63" fill="none" xmlns="http://www.w3.org/2000/svg">
<rect y="0.5" width="49" height="62" rx="24.5" fill="#135D66"/>
<path d="M19.9024 37.6019C19.0929 39.6432 18.4755 41.7631 18.0589 43.9314C17.7671 45.5502 17.5367 48.2215 18.8731 49.3871C19.141 49.6579 19.4724 49.8486 19.8334 49.9396C20.1945 50.0306 20.572 50.0186 20.9271 49.9048C21.2823 49.7911 21.6022 49.5796 21.8541 49.2922C22.106 49.0049 22.2807 48.6523 22.3602 48.2702C22.5599 46.878 22.1758 40.6776 22.1298 39.0749C22.1298 38.0227 22.1298 36.9542 22.1298 35.8372C22.1298 29.8475 21.9301 19.8758 21.9147 13.8861C21.9022 13.7047 21.8408 13.5305 21.7377 13.3846C21.6346 13.2387 21.4941 13.1271 21.3327 13.0625C21.1713 12.9979 20.9958 12.9829 20.8268 13.0198C20.6577 13.0567 20.5023 13.1439 20.3786 13.2708C16.3846 18.3701 14.6794 25.0075 17.1526 31.2886C17.5703 32.4266 18.2492 33.4376 19.1285 34.2314C20.0078 35.0253 21.06 35.5769 22.1912 35.8372M28.6585 28.7793C28.4741 32.276 27.7675 35.7078 27.3066 39.1721C26.8921 41.3899 26.6914 43.646 26.7075 45.9063C26.8304 47.6385 27.4296 49.9696 29.4573 49.9858C30.013 50.0035 30.5569 49.8146 30.9934 49.4519C31.4822 48.9318 31.8182 48.2739 31.9612 47.5575C32.2053 46.4988 32.2934 45.4068 32.2223 44.3199C32.2223 42.5877 31.8383 40.9043 31.6079 39.2045C31.147 35.7402 30.4404 32.3084 30.2561 28.8117M28.0747 13.6268V21.721M30.9012 21.6724V13.5782M25.5708 13.6268V24.716C25.5748 25.8009 25.9856 26.8403 26.7136 27.6075C27.4416 28.3746 28.4278 28.8074 29.4573 28.8117C30.4868 28.8074 31.473 28.3746 32.201 27.6075C32.9289 26.8403 33.3397 25.8009 33.3437 24.716V13.6268" stroke="#E3FEF7" stroke-linecap="round" stroke-linejoin="round"/>
</svg>
