<svg width="250" height="250" viewBox="0 0 250 250" fill="none" xmlns="http://www.w3.org/2000/svg">
<g filter="url(#filter0_d_322_1436)">
<path fill-rule="evenodd" clip-rule="evenodd" d="M65.807 43.5522C65.8116 43.1933 66.0739 42.8897 66.4284 42.8329C68.2338 42.2886 69.9327 41.463 71.7188 40.8607C72.681 40.5432 73.6158 40.1478 74.5138 39.6786C75.1651 39.3321 75.9077 39.2301 76.588 38.9339L76.7719 38.848C77.5566 38.4557 78.4381 38.2904 79.256 37.9504C79.9461 37.6635 80.7231 37.6325 81.4401 37.3609C82.4876 36.9783 83.5538 36.6487 84.6345 36.3734C85.3056 36.1129 86.0187 35.9772 86.7387 35.973C86.9319 35.9918 87.0476 35.8768 87.1993 35.8364C87.8465 35.6418 88.505 35.4868 89.1711 35.3724C90.5873 35.1697 91.9834 34.8312 93.4005 34.6504C94.4292 34.5199 95.4447 34.3284 96.4669 34.1672C97.4507 34.0128 98.4375 33.8779 99.4272 33.7624C101.743 33.4833 104.074 33.34 106.406 33.3333C108.232 33.3507 110.056 33.4711 111.869 33.6942C113.345 33.8152 114.811 34.0345 116.258 34.3505C117.405 34.6405 118.601 34.7657 119.701 35.1533C120.738 35.5191 121.802 35.8305 122.841 36.1676C125.248 36.9483 127.616 37.8225 129.946 38.7902C131.318 39.3584 132.687 39.9597 134.063 40.5042C135.678 41.1431 137.208 41.9603 138.82 42.6037C139.764 42.9815 140.69 43.497 141.623 43.941C142.527 44.3707 143.365 44.9242 144.295 45.2971C145.209 45.7014 146.103 46.1518 146.971 46.6466C147.794 47.0797 148.774 47.3515 149.418 48.1148C150.237 48.0606 150.717 48.7484 151.363 49.0608C152.01 49.3733 152.642 49.7327 153.294 49.9999C153.966 50.2751 154.643 50.5742 155.299 50.8653C156.632 51.4562 158.014 51.9162 159.341 52.5009C160.15 52.857 161.008 52.9441 161.826 53.2213C163.396 53.7435 165.014 54.1083 166.655 54.3103C167.316 54.3785 167.963 54.5467 168.574 54.8092C169.032 55.0198 169.459 54.7373 169.918 54.8623C170.662 55.0649 171.438 55.1421 172.197 55.2866C172.43 55.3744 172.693 55.3294 172.884 55.1689L173.319 55.6657C173.592 55.7161 173.388 55.4656 173.531 55.3908C173.848 55.4209 174.198 55.372 174.506 55.6122C174.795 55.8385 175.106 55.5446 175.441 55.6498C176.171 55.8758 177.03 55.4507 177.697 56.0691C178.425 55.8628 179.149 56.0913 179.875 56.0951C180.227 56.0778 180.572 56.1855 180.851 56.3977L180.914 56.4485C181.17 56.6832 181.56 56.1341 181.791 56.5847C183.049 56.3389 184.162 56.9829 185.299 57.2783C187.122 57.7527 188.992 58.0908 190.748 58.8783C191.626 59.2719 192.653 59.4265 193.555 59.8108C195.584 60.6742 197.674 61.4006 199.6 62.5078C200.395 62.9655 201.292 63.2461 202.083 63.7116L202.997 64.2498C204.368 65.0593 205.73 65.8837 207.038 66.794C207.371 66.9569 207.652 67.2099 207.849 67.5243C208.036 67.9227 208.533 67.7595 208.86 68.0048C209.25 68.294 209.461 68.7434 209.934 68.9834C210.196 69.1156 210.482 69.4758 210.784 69.6299C211.768 70.1313 212.343 71.1349 213.337 71.6128C213.674 71.8501 213.954 72.1597 214.156 72.5188C214.946 73.5053 216.125 74.0959 216.825 75.1452L216.917 75.2912C217.261 75.8474 217.729 76.3155 218.284 76.6595L218.5 76.7892C218.66 76.8863 218.808 76.9887 218.839 77.1382C218.971 77.7632 219.509 78.0821 219.861 78.5274C220.237 79.0042 220.774 79.3452 221.106 79.8873C221.385 80.4697 221.765 80.998 222.229 81.4474C223.104 82.1119 223.588 83.0423 224.192 83.8895C224.494 84.3126 225.005 84.6473 224.913 85.3143C224.865 85.6536 225.591 85.4056 225.528 85.8953L225.518 85.9507C225.444 86.2847 225.655 86.4569 225.953 86.6122C226.225 86.7542 226.031 87.2774 226.357 87.3708C226.682 87.4642 227.057 87.711 226.982 87.8773C226.798 88.2947 227.444 88.2831 227.267 88.6136C227.257 88.6532 227.267 88.695 227.293 88.7267C228.059 89.5838 228.265 90.7573 228.992 91.6568C229.407 92.2154 229.713 92.8474 229.893 93.5195C230.102 94.1297 230.361 94.7215 230.668 95.289C231.154 96.2752 231.322 97.3643 231.814 98.3364C231.947 98.5997 231.403 99.0669 232.065 99.1758C231.896 99.5824 232.301 99.7768 232.389 100.081C232.417 100.353 232.403 100.629 232.347 100.897C232.694 101.416 232.914 102.009 232.989 102.629C233.29 103.864 233.512 105.117 233.655 106.381L233.77 107.422C233.921 108.811 234.035 110.208 233.748 111.601C233.674 111.959 234.031 112.086 233.998 112.406C233.818 114.269 233.829 116.144 233.31 117.981C233.093 118.75 233.148 119.626 232.931 120.416C232.521 121.915 232.304 123.454 231.714 124.921L231.606 125.179C231.207 126.093 230.939 127.104 230.555 128.05C230.311 128.7 214.333 205.274 160.064 185.747C134.328 176.486 111.021 225.65 75.6205 215.201C-24.6007 185.619 23.0601 62.6853 63.4304 44.329C63.7399 44.2492 64.0377 44.1297 64.3166 43.9736C64.7315 43.6289 65.2729 43.4758 65.807 43.5522Z" fill="#77B0AA"/>
<path fill-rule="evenodd" clip-rule="evenodd" d="M100.5 184.273C99.0965 171.289 100.097 154.955 105.122 142.901C104.201 144.626 117.446 147.448 117.306 148.187C116.385 153.037 115.795 158.503 115.003 164.532C114.102 171.381 114.715 178.715 115.475 184.177C117.273 197.099 101.903 197.244 100.5 184.273Z" fill="white"/>
<path fill-rule="evenodd" clip-rule="evenodd" d="M102.033 143.457C105.169 133.959 112.629 125.983 121.897 122.221C126.608 120.309 132.083 119.433 129.307 120.058C128.754 123.466 132.245 126.475 135.694 126.637C139.143 126.8 142.349 124.952 145.158 122.945C143.314 119.653 145.172 121.274 147.853 125C147.946 125.206 134.679 128.216 126.392 134.251C119.148 139.525 116.527 147.915 119.199 148.187C117.913 148.771 116.426 148.901 115.059 148.549C115.059 148.549 105.715 145.874 102.033 143.457Z" fill="white"/>
<path fill-rule="evenodd" clip-rule="evenodd" d="M102.033 143.457C105.169 133.959 112.629 125.983 121.897 122.221C123.606 121.527 128.007 119.974 130.421 118.675C134.667 116.392 133.667 114.401 133.667 112.957C133.667 111.346 140.853 109.371 142.348 110.494C143.393 111.279 142.847 114.199 143.454 116.64C144.406 120.469 146.293 124.094 147.05 123.553C149.321 126.751 159.121 129.233 167.256 138.116C170.757 141.938 171.712 146.355 172.962 149.727C174.055 152.673 176.142 154.691 176.699 155.467C176.741 155.561 163.541 161.818 163.541 161.818C163.541 161.818 166.91 180.89 162.397 184.177C155.153 189.451 115.344 204.299 118.016 204.571C117.267 204.911 114.051 178.097 114.595 165.384C114.985 156.261 117.878 148.334 117.306 148.187C117.306 148.187 105.715 145.874 102.033 143.457Z" fill="white"/>
<path fill-rule="evenodd" clip-rule="evenodd" d="M166.902 178.024C173.493 175.651 174.15 158.252 174.312 158.102C175.315 162.651 176.043 167.26 176.491 171.896C176.688 173.935 176.83 176.001 176.511 178.024C176.176 180.149 175.339 182.17 174.3 184.054C171.996 188.23 168.654 191.83 164.659 194.436C164.012 194.858 163.33 195.262 162.57 195.397C160.888 195.695 159.283 194.631 158.005 193.499C151.547 187.779 148.309 179.332 145.622 171.135C144.727 168.406 139.228 153.573 140.188 153.122C138.61 152.594 136.834 152.682 135.316 153.364C134.398 153.776 133.66 152.235 134.238 151.412C134.816 150.588 135.915 150.377 136.871 150.063C137.827 149.748 138.868 149.041 138.798 148.037C137.127 148.292 135.479 148.696 133.88 149.242C133.121 149.501 132.344 148.765 132.152 147.987C131.638 145.9 133.743 144.116 135.726 143.287C137.79 142.424 140.012 141.945 142.247 141.881C142.702 141.868 149.785 142.85 148.351 148.492C148.334 148.559 148.14 149.171 148.124 149.242C146.624 156.286 159.146 180.817 166.902 178.024Z" fill="white"/>
<path fill-rule="evenodd" clip-rule="evenodd" d="M137.089 142.273C136.368 141.896 136.736 140.81 137.15 140.109C138.486 137.844 139.337 135.295 139.629 132.682C141.628 132.416 143.723 132.977 145.321 134.205C145.581 134.405 145.839 134.637 145.942 134.948C146.075 135.35 145.923 135.784 145.772 136.179C145.026 138.127 144.28 140.075 143.535 142.023C144.811 142.024 138.601 143.138 137.089 142.273Z" fill="white"/>
<path fill-rule="evenodd" clip-rule="evenodd" d="M116.549 94.0875C114.127 72.3137 111.537 73.5296 108.679 68.986C104.455 62.2703 105.561 53.4507 108.426 46.0523C110.22 41.4176 112.668 36.9876 116.037 33.3333C116.646 33.523 116.855 34.3276 116.663 34.9363C116.472 35.545 116.01 36.0227 115.639 36.5419C114.534 38.0888 114.212 40.1673 114.797 41.9762C115.633 44.5578 118.135 46.3195 120.758 47.0128C123.382 47.7061 126.147 47.5085 128.853 47.3058C131.512 47.1067 134.17 46.9076 136.829 46.7085C139.485 46.5095 142.272 46.3317 144.701 47.4251C147.131 48.5185 149.007 51.3371 148.106 53.8444C147.828 54.6169 148.27 55.4888 148.902 56.0136C149.533 56.5384 150.327 56.8163 151.058 57.1893C154.139 58.7611 156.057 62.0465 156.81 65.4227C157.564 68.7988 157.313 72.3077 157.059 75.7575C156.881 78.1633 156.704 80.5691 156.526 82.9749C156.404 84.6382 156.32 86.4512 157.277 87.8169C158.43 89.4617 157.164 91.7298 155.67 93.0726C154.176 94.4153 152.292 95.6683 151.95 97.6477C151.501 100.247 143.454 112.014 135.681 112.957C128.154 113.87 117.636 103.857 116.549 94.0875Z" fill="white"/>
<path fill-rule="evenodd" clip-rule="evenodd" d="M119.725 97.0296C121.911 97.1761 124.107 97.1705 126.292 97.0129C127.113 96.9537 128.083 96.7699 128.41 96.0152C128.804 95.1069 129.755 94.4688 130.745 94.448C131.735 94.4272 132.711 95.0249 133.143 95.9158C133.607 96.8728 134.971 96.823 136.01 96.5979C138.771 96.0002 141.487 95.1981 144.129 94.2003C145.326 93.7483 146.022 92.4362 146.125 91.161C146.228 89.8858 145.851 88.6261 145.478 87.4023C142.152 88.1657 138.722 88.336 135.313 88.5036C128.442 88.8412 121.571 89.1788 114.701 89.5165C115.134 91.4285 115.568 93.3406 116.002 95.2527C116.097 95.6716 116.204 96.113 116.502 96.422C116.8 96.7311 117.358 96.8323 117.648 96.5149C116.748 94.4007 115.829 92.1199 116.295 89.87C116.873 91.8118 117.452 93.7536 118.03 95.6953C118.137 96.0551 118.257 96.4352 118.541 96.681C118.858 96.9555 119.307 97.0016 119.725 97.0296ZM145.355 86.7781C145.619 86.4634 145.417 85.8252 145.012 85.895C135.261 87.5767 125.271 86.8872 115.397 87.5316C114.857 87.5668 114.144 87.7938 114.191 88.3328C115.722 88.8506 117.384 88.7606 118.997 88.6646C127.406 88.1646 135.814 87.6646 144.223 87.1646C144.633 87.1402 145.091 87.0928 145.355 86.7781Z" fill="#BEC4C4"/>
<path fill-rule="evenodd" clip-rule="evenodd" d="M139.212 151.904C139.212 153.926 143.172 165.041 142.348 162.289C142.441 163.365 143.116 165.303 142.187 165.854C141.595 166.206 140.848 166.094 140.172 165.964C134.778 164.927 129.474 163.425 124.337 161.479C123.434 161.137 122.445 160.695 122.082 159.8C121.511 158.396 122.809 156.982 123.979 156.018C126.545 153.903 129.111 151.787 131.678 149.672C131.867 149.516 132.084 149.35 132.329 149.368C132.574 149.386 132.782 149.709 132.609 149.884C129.855 152.14 139.212 149.883 139.212 151.904Z" fill="white"/>
<path fill-rule="evenodd" clip-rule="evenodd" d="M142.188 165.854C141.596 166.206 140.849 166.094 140.173 165.964C134.779 164.927 129.474 163.425 124.338 161.479C123.434 161.137 122.446 160.695 122.082 159.8C121.511 158.396 123.474 156.666 125 155.833C127.652 154.386 130.429 157.543 134.139 159.8C138.071 162.192 142.862 163.729 142.748 163.407" fill="#77B0AA"/>
<path fill-rule="evenodd" clip-rule="evenodd" d="M154.724 104.928C154.512 104.96 154.581 105.286 154.705 105.461C156.004 107.288 157.302 109.116 158.6 110.943C158.82 111.254 159.033 111.709 158.761 111.975C154.986 110.301 151.929 107.073 150.461 103.214C150.727 102.914 151.176 103.32 151.365 103.672C152.654 106.082 154.409 108.242 156.504 109.997C156.719 110.177 157.041 110.354 157.253 110.17C155.236 107.834 153.614 105.156 152.479 102.286C152.431 102.166 152.384 102.035 152.416 101.91C152.478 101.664 152.818 101.589 153.044 101.704C153.269 101.82 153.405 102.052 153.536 102.269C154.673 104.15 156.357 105.697 158.328 106.67C158.521 106.297 158.185 105.88 157.886 105.585C155.616 103.346 153.954 100.496 153.123 97.4173C152.956 96.7985 153.03 95.873 153.67 95.8462C153.831 97.3068 154.241 98.7397 154.878 100.064C155.67 101.714 156.798 103.175 157.918 104.622C158.821 105.79 159.725 106.958 160.628 108.126C160.455 108.354 160.101 108.286 159.832 108.189C157.918 107.493 156.161 106.371 154.724 104.928Z" fill="#003C43"/>
<path fill-rule="evenodd" clip-rule="evenodd" d="M133.5 100.667C136.17 100.667 138.334 102.234 138.334 104.167C138.334 106.1 136.698 107.869 134.028 107.869C131.359 107.869 128.667 106.1 128.667 104.167C128.667 102.234 130.831 100.667 133.5 100.667ZM133.5 101.667C131.327 101.667 129.346 102.868 129.346 104.167C129.346 105.465 131.371 107.139 133.544 107.139C135.718 107.139 137.334 105.465 137.334 104.167C137.334 102.868 135.674 101.667 133.5 101.667Z" fill="#003C43"/>
<path fill-rule="evenodd" clip-rule="evenodd" d="M85.1132 142.928C85.0481 143.062 85.0129 143.211 85.0108 143.36C84.7255 143.216 84.4401 143.072 84.1548 142.928C85.1852 145.473 86.2156 148.018 87.246 150.563C87.4043 150.954 87.5687 151.355 87.8587 151.661C87.8339 150.892 87.6063 150.147 87.3806 149.412C86.7262 147.283 86.0719 145.153 85.4176 143.023C85.367 142.915 85.2167 142.868 85.1132 142.928Z" fill="#77B0AA"/>
<path fill-rule="evenodd" clip-rule="evenodd" d="M89.6943 134.859C90.0215 135.361 90.0486 135.993 90.2106 136.57C90.5572 137.805 91.514 138.762 92.1257 139.888C92.7373 141.015 92.8918 142.636 91.8618 143.399C91.3657 143.767 91.4585 144.515 91.5268 145.129C91.5951 145.742 91.4344 146.555 90.8227 146.64C90.4757 146.688 90.1413 146.445 89.9698 146.139C89.7984 145.834 89.7539 145.476 89.7062 145.128C89.3877 142.81 88.7838 140.531 87.9125 138.36C87.6945 137.816 87.4818 137.131 87.8808 136.702C88.3858 136.16 87.7227 135.153 88.1828 134.572C88.555 134.103 89.3671 134.357 89.6943 134.859Z" fill="#77B0AA"/>
<path fill-rule="evenodd" clip-rule="evenodd" d="M129.739 133.377C129.971 132.844 130.202 132.311 130.434 131.778C130.717 131.125 131.237 130.346 131.926 130.521C132.133 130.573 132.309 130.711 132.446 130.874C133.15 131.707 132.827 133.016 132.17 133.886C131.72 134.482 131.133 134.975 130.468 135.315C130.063 135.523 129.557 135.139 129.465 134.693C129.373 134.247 129.558 133.795 129.739 133.377M131.532 133.391C131.742 133.131 131.956 132.863 132.049 132.543C132.141 132.223 132.082 131.835 131.819 131.63C130.954 132.436 130.325 133.491 130.028 134.635C130.24 134.83 130.564 134.589 130.746 134.365C131.008 134.04 131.27 133.715 131.532 133.391Z" fill="#77B0AA"/>
<path fill-rule="evenodd" clip-rule="evenodd" d="M116.06 134.651C117.109 133.835 118.859 134.333 119.413 135.541C119.967 136.749 119.298 138.328 118.084 138.87C117.765 139.012 117.419 139.091 117.071 139.103C116.43 139.125 115.756 138.889 115.371 138.377C114.969 137.843 114.944 137.111 115.071 136.456C115.203 135.767 115.506 135.082 116.06 134.651" fill="#77B0AA"/>
<path fill-rule="evenodd" clip-rule="evenodd" d="M140.653 84.2284C139.8 85.0542 138.413 84.7999 137.266 84.4899C136.722 84.3426 136.177 84.1952 135.632 84.0479C135.089 83.9011 134.421 83.7865 134.038 84.1988C133.682 84.5822 132.973 84.055 133.077 83.5422C133.18 83.0293 133.745 82.7402 134.265 82.6858C136.099 82.4939 137.757 84.239 139.577 83.941C139.989 83.8736 140.586 83.8169 140.653 84.2284L140.653 84.2284Z" fill="#003C43"/>
<path fill-rule="evenodd" clip-rule="evenodd" d="M114.312 131.901C114.752 131.537 115.383 131.368 115.911 131.584C116.44 131.8 116.781 132.457 116.552 132.98C116.395 133.339 116.032 133.559 115.68 133.729C115.196 133.963 114.595 134.14 114.148 133.843C113.519 133.426 113.731 132.383 114.312 131.901M114.716 132.854C114.524 132.95 114.571 133.299 114.781 133.341C115.247 133.205 115.691 132.994 116.09 132.718C115.713 132.364 115.024 132.441 114.735 132.87L114.716 132.854Z" fill="#77B0AA"/>
<path fill-rule="evenodd" clip-rule="evenodd" d="M139.295 110.866C138.549 111.029 137.719 110.692 137.297 110.056C140.788 110.348 144.38 109.109 146.949 106.726C149.518 104.344 151.023 100.855 150.995 97.3519C150.796 97.4077 150.605 97.4928 150.43 97.6035C150.035 97.4349 150.295 96.8367 150.599 96.5321L156.53 90.5773C157.556 89.5473 156.286 87.6074 154.833 87.6136C153.379 87.6198 152.213 88.8173 151.448 90.0535C150.572 91.4686 149.975 93.0552 149.7 94.6964L146.643 88.0251C146.283 88.7147 146.49 89.4788 146.702 90.2594C146.837 90.7551 146.973 91.2576 146.967 91.7517C146.94 93.8879 144.464 94.997 142.411 95.5861L136.823 97.1892C135.345 97.6134 133.305 97.7942 132.703 96.3785C132.113 94.9912 129.752 94.9525 129.117 96.3199C128.516 97.6138 126.793 97.8256 125.367 97.82C122.65 97.8096 119.935 97.6662 117.232 97.3906C116.818 97.3484 116.373 97.2899 116.065 97.0094C115.789 96.7575 115.678 96.3762 115.58 96.0154L113.804 89.5182C113.611 88.8099 113.422 88.0325 113.724 87.3633C114.026 86.694 115.059 86.3508 115.501 86.9371C114.633 83.4406 114.486 79.7673 115.07 76.2126L116.176 86.8521L143.114 85.7197C143.7 85.6951 144.382 85.6163 144.686 85.1145C144.952 84.6746 144.797 84.1114 144.634 83.6241C143.975 81.6647 143.276 79.7188 142.537 77.7879C142.309 77.1913 142.059 76.57 141.571 76.1584C140.533 75.2839 138.976 75.7171 137.685 76.1369C132.581 77.7976 127.083 78.5414 121.816 77.5089C116.548 76.4763 111.537 73.5296 108.679 68.986C104.455 62.2703 105.561 53.4507 108.426 46.0523C110.22 41.4176 112.668 36.9876 116.036 33.3333C116.646 33.523 116.855 34.3276 116.663 34.9363C116.519 35.3941 116.222 35.7778 115.926 36.1607L115.926 36.1609C115.829 36.2871 115.731 36.4132 115.639 36.5419C114.534 38.0888 114.212 40.1673 114.797 41.9762C115.633 44.5578 118.135 46.3195 120.758 47.0128C123.382 47.7061 126.147 47.5085 128.853 47.3058L136.828 46.7085C139.485 46.5095 142.272 46.3317 144.701 47.4251C147.131 48.5185 149.007 51.3371 148.106 53.8444C147.828 54.6169 148.27 55.4889 148.902 56.0136C149.357 56.3925 149.898 56.6427 150.438 56.8929C150.646 56.9892 150.854 57.0856 151.058 57.1893C154.139 58.7611 156.057 62.0466 156.81 65.4227C157.564 68.7988 157.313 72.3078 157.059 75.7575L156.526 82.9749C156.403 84.6382 156.319 86.4512 157.277 87.8169C158.43 89.4618 157.164 91.7298 155.67 93.0726C155.414 93.3028 155.146 93.5303 154.877 93.7594C153.575 94.8663 152.233 96.0076 151.95 97.6477C151.136 102.363 149.114 107.428 144.75 109.391C144.154 109.659 143.532 109.86 142.909 110.06C142.308 110.254 141.706 110.448 141.129 110.703C140.582 110.944 140.059 111.238 139.537 111.533C138.781 111.958 138.026 112.384 137.201 112.645C134.645 113.456 131.857 112.568 129.483 111.321C124.021 108.453 119.63 103.6 117.32 97.8795C118.212 97.8754 118.743 98.8382 119.126 99.6444C121.429 104.501 125.423 108.535 130.256 110.887C133.131 112.286 136.892 112.977 139.295 110.866ZM148.419 57.4787C148.153 57.3674 147.864 57.2635 147.583 57.3252C147.217 57.4053 146.995 57.7192 146.771 58.0364C146.667 58.1836 146.562 58.3316 146.442 58.4572C146.065 58.8534 145.132 58.7571 145.259 58.2247C145.969 56.8099 146.69 55.3623 146.904 53.7936C147.118 52.2248 146.736 50.4847 145.542 49.4452C144.716 48.7265 143.612 48.4227 142.534 48.2323C139.078 47.6218 135.553 47.9644 132.045 48.3054C131.3 48.3778 130.556 48.4501 129.813 48.5133C125.573 48.8736 121.114 48.891 117.301 47.0026C114.709 45.7192 113.166 42.6058 113.714 39.7661C109.155 45.3174 107.104 52.738 107.636 59.9019C107.789 61.9618 108.148 64.0211 108.903 65.9438C110.77 70.6985 115.024 74.3098 119.852 75.9776C124.68 77.6454 130.015 77.4939 134.95 76.1756C139.885 74.8574 144.458 72.4228 148.719 69.6055C148.997 69.422 149.357 69.8232 149.271 70.1445C149.184 70.4658 148.866 70.6589 148.574 70.8191L141.183 74.881C142.66 75.6567 143.458 77.2802 144.086 78.826C144.885 80.7955 145.566 82.813 146.124 84.8642L154.046 78.5011C154.321 78.2802 154.88 78.1712 154.891 78.5238L147.334 84.8079C146.953 85.1251 146.532 85.5467 146.63 86.0329L153.817 80.1139C154.585 79.4817 155.405 78.7613 155.562 77.7793C156.264 73.3781 156.943 68.731 155.331 64.5758C154.104 61.4124 151.548 58.7889 148.419 57.4787ZM118.541 96.681C118.858 96.9556 119.307 97.0016 119.725 97.0296C121.911 97.1761 124.107 97.1705 126.292 97.0129C127.113 96.9537 128.083 96.7699 128.41 96.0152C128.804 95.1069 129.755 94.4688 130.745 94.448C131.735 94.4272 132.711 95.0249 133.143 95.9158C133.607 96.8728 134.971 96.823 136.01 96.5979C138.771 96.0003 141.487 95.1981 144.129 94.2003C145.326 93.7483 146.022 92.4362 146.125 91.161C146.228 89.8858 145.851 88.6261 145.478 87.4023C142.152 88.1657 138.722 88.3361 135.313 88.5036L114.701 89.5165L116.002 95.2527C116.097 95.6716 116.204 96.113 116.502 96.422C116.801 96.7311 117.358 96.8323 117.648 96.5149C116.748 94.4007 115.829 92.1199 116.295 89.87L118.03 95.6954C118.137 96.0551 118.257 96.4352 118.541 96.681ZM144.223 87.1646C144.633 87.1402 145.091 87.0928 145.355 86.7781C145.619 86.4634 145.417 85.8252 145.012 85.895C138.771 86.9714 132.432 87.0764 126.088 87.1814C122.521 87.2405 118.951 87.2997 115.397 87.5316C114.857 87.5669 114.144 87.7938 114.191 88.3328C115.722 88.8506 117.384 88.7606 118.997 88.6646L144.223 87.1646ZM154.88 82.3625C155.264 82.0041 155.353 81.4399 155.421 80.9197L155.608 79.4928L147.388 86.3161C147.265 86.4183 147.134 86.532 147.099 86.6881C147.062 86.8527 147.14 87.0191 147.216 87.1698L149.759 92.2108C150.287 88.4759 152.126 84.9396 154.88 82.3625ZM155.37 83.9748C155.393 83.5888 155.402 83.1588 155.147 82.8679C153.874 84.3588 152.755 85.9817 151.815 87.7022C151.699 87.9138 151.599 88.2109 151.783 88.3667C152.681 87.6166 153.722 87.0388 154.833 86.674C155.164 86.5652 155.241 86.1394 155.262 85.7912L155.37 83.9748ZM121.897 122.221C112.629 125.983 105.169 133.959 102.033 143.457C105.715 145.874 115.059 148.549 115.059 148.549C116.427 148.901 117.913 148.771 119.199 148.187C113.471 147.604 107.875 145.759 102.924 142.821C107.246 132.046 116.928 123.578 128.183 120.729C129.13 122.705 130.113 124.73 131.712 126.229C133.31 127.728 135.687 128.606 137.74 127.838C140.685 126.738 143.494 125.274 146.084 123.491C147.112 125.538 147.315 127.982 146.658 130.175L146.462 130.754C146.534 130.563 146.6 130.37 146.658 130.175L147.903 126.494L160.394 134.171C162.879 135.699 165.409 137.264 167.291 139.492C169.225 141.779 170.34 144.597 171.454 147.413C172.593 150.291 173.732 153.169 175.743 155.477C172.026 158.192 167.968 160.441 163.696 162.154L160.218 149.906L164.652 176.669C164.851 172.079 164.551 167.467 163.761 162.942C168.547 161.247 173.012 158.65 176.853 155.329C174.399 153.086 173.216 149.952 172.023 146.792C171.167 144.524 170.306 142.244 168.967 140.27C165.099 134.568 154.021 128.375 149.592 125.899C148.462 125.268 147.765 124.878 147.73 124.8C145.049 121.074 143.429 116.593 143.108 112.014C142.582 115.75 143.314 119.653 145.158 122.945C142.349 124.952 139.143 126.8 135.694 126.637C132.245 126.475 128.754 123.466 129.307 120.058C132.083 119.433 134.128 116.497 133.75 113.677C132.7 118.02 127.979 119.851 123.653 121.529L123.652 121.53L123.651 121.53C123.055 121.761 122.467 121.99 121.897 122.221ZM100.565 184.859C98.3297 185.374 95.6456 186.445 93.8356 188.594C92.57 190.097 91.7043 191.263 90.9752 192.246C89.7691 193.871 88.9366 194.993 87.2859 196.301C88.2268 195.726 89.3136 196.977 89.3694 198.078C89.3888 198.46 89.3535 198.85 89.3184 199.239C89.2523 199.97 89.1867 200.696 89.4871 201.35C90.2731 200.863 91.0797 200.357 91.6224 199.608C92.1652 198.859 92.3858 197.799 91.9114 197.005C91.7493 196.734 91.9871 196.404 92.2138 196.184C93.6128 194.824 95.2059 193.665 96.9297 192.752C97.1741 193.478 97.1 194.306 96.7303 194.977L97.5721 195.959L95.6284 200.826L100.492 195.885C101.46 194.902 102.788 193.833 104.067 194.352C104.716 194.616 105.127 195.219 105.529 195.81C105.619 195.941 105.708 196.071 105.799 196.198C106.781 197.557 108.233 198.57 109.849 199.021C109.873 198.585 110.1 198.165 110.452 197.906C110.932 198.692 111.721 199.284 112.61 199.524L111.407 194.38C111.344 194.108 111.283 193.807 111.416 193.562C111.749 192.944 112.705 193.377 113.152 193.918C113.599 194.458 114.261 195.135 114.867 194.782L114.384 193.118C114.221 192.557 114.493 191.617 114.995 191.917C115.159 192.015 115.22 192.22 115.267 192.406L116.185 196.046C117.352 194.717 117.226 192.618 116.367 191.073C116.237 190.839 116.128 190.59 116.014 190.328C115.373 188.859 114.548 186.969 108.706 184.876C107.848 184.569 106.884 184.539 105.92 184.509C105.438 184.494 104.956 184.479 104.488 184.43C104.128 184.391 102.943 184.41 101.432 184.681C103.15 197.152 101.933 197.161 100.565 184.859ZM101.288 183.62C101.765 183.556 102.253 183.524 102.75 183.527C102.673 183.527 118.392 182.776 118.392 194.489C118.392 195.622 117.721 197.017 116.594 196.976C118.976 203.041 121.753 208.951 124.9 214.656C121.911 215.631 118.714 215.959 115.589 215.612C111.425 219.647 104.701 220.761 99.4585 218.283C100.155 219.462 98.0242 220.182 96.6812 219.914L82.4243 217.074C81.3036 216.85 79.908 216.309 79.9265 215.166C79.9403 214.317 80.7679 213.746 81.4822 213.286C85.9551 210.404 89.452 206.036 91.2846 201.04C90.6523 202.591 87.7498 201.933 87.8484 200.261C83.8937 198.768 79.9206 202.178 77.0601 205.29L60.8034 222.979L119.767 225.947C123.081 226.114 125.736 223.378 127.902 220.865L143.164 203.157L118.9 201.026C127.736 201.032 136.571 201.554 145.346 202.588C138.71 210.553 131.819 218.304 124.685 225.827C123.609 226.962 121.853 227.028 120.289 227.013C100.362 226.818 80.4416 225.942 60.5745 224.389C59.5919 223.953 60.2064 222.466 60.9326 221.673L75.8007 205.445C79.1537 201.785 83.7737 197.772 88.4494 199.438C89.003 199.071 88.5387 198.587 88.0047 198.032C87.6468 197.66 87.2577 197.255 87.1228 196.83C86.9456 196.273 87.2841 195.695 87.608 195.208C90.8563 190.324 94.963 184.956 100.447 183.768C99.0901 170.938 98.8669 157.56 103.827 145.662C100.503 157.985 99.6367 170.965 101.288 183.62ZM147.557 153.515C147.549 152.533 147.704 151.528 147.857 150.536C148.184 148.42 148.502 146.363 147.207 144.718C146.068 143.271 144.071 142.82 142.23 142.775C138.917 142.693 135.39 143.522 133.05 145.869C132.771 146.149 132.662 146.899 132.968 146.831C133.67 146.676 134.25 146.355 134.82 146.038C135.326 145.757 135.824 145.481 136.394 145.329C137.604 145.006 138.992 145.097 139.979 145.869C137.508 145.419 132.745 146.832 133.05 148.037C133.274 148.921 134.662 148.39 135.887 147.921L135.887 147.921L135.888 147.921C136.334 147.75 136.759 147.588 137.098 147.505C138.198 147.237 139.846 147.355 139.862 148.487C139.872 149.171 139.19 149.632 138.589 149.96C138.131 150.211 137.495 150.456 136.859 150.7C135.588 151.189 134.316 151.678 134.462 152.215C134.667 152.967 135.646 152.654 136.743 152.304C137.599 152.031 138.526 151.735 139.212 151.904C140.734 152.279 141.393 154.033 141.812 155.544L142.03 156.33L142.03 156.331C144.221 164.242 146.421 172.18 149.697 179.704C151.965 184.912 154.871 190.051 159.395 193.487C159.925 193.89 160.505 194.279 161.167 194.354C161.81 194.428 162.446 194.195 163.038 193.935C167.714 191.884 171.392 187.929 173.758 183.405C174.704 181.595 175.465 179.666 175.749 177.644C176.004 175.831 175.871 173.988 175.692 172.166C175.316 168.33 174.737 164.514 173.961 160.739C173.773 159.828 173.629 158.732 174.312 158.102C175.315 162.651 176.044 167.26 176.491 171.896C176.688 173.935 176.83 176.001 176.511 178.024C176.176 180.15 175.339 182.17 174.3 184.054C171.996 188.231 168.654 192.83 164.659 195.436C164.013 195.858 163.33 196.262 162.57 196.397C160.889 196.695 159.283 195.631 158.005 194.499C151.548 188.779 148.31 179.332 145.622 171.135C144.727 168.406 143.868 165.665 143.043 162.914C143.136 163.99 143.116 165.303 142.187 165.854C141.595 166.206 140.849 166.094 140.172 165.964C134.778 164.927 129.474 163.425 124.337 161.479C123.434 161.137 122.445 160.695 122.082 159.8C121.511 158.396 122.809 156.982 123.979 156.018L131.678 149.672C131.868 149.516 132.084 149.35 132.329 149.368C132.574 149.386 132.783 149.709 132.609 149.884L124.348 156.652C123.411 157.419 122.379 158.641 123 159.681C123.274 160.139 123.797 160.376 124.291 160.579C129.205 162.601 134.381 163.913 139.579 165.014C140.229 165.152 140.917 165.284 141.546 165.071C142.175 164.858 142.693 164.165 142.47 163.539L139.785 155.979C139.43 154.98 139.228 153.573 140.188 153.122C138.61 152.594 136.834 152.682 135.316 153.364C134.398 153.776 133.66 152.235 134.238 151.412C134.723 150.72 135.577 150.46 136.404 150.208L136.405 150.208C136.562 150.16 136.719 150.113 136.871 150.063C137.827 149.748 138.868 149.041 138.798 148.037C137.128 148.292 135.48 148.696 133.88 149.242C133.122 149.501 132.344 148.765 132.153 147.987C131.638 145.9 133.744 144.116 135.727 143.287C137.79 142.424 140.012 141.945 142.248 141.881C142.702 141.868 142.965 141.374 143.133 140.952L145.314 135.441L140.503 134.086L137.09 142.273C136.369 141.896 136.736 140.81 137.15 140.109C138.486 137.844 139.337 135.295 139.63 132.682C141.628 132.416 143.723 132.977 145.322 134.205C145.581 134.405 145.839 134.637 145.943 134.948C146.076 135.35 145.923 135.784 145.772 136.179L143.535 142.023C145.535 142.024 147.479 143.29 148.29 145.119C148.995 146.709 148.854 148.471 148.712 150.236V150.236V150.236V150.237C148.655 150.958 148.597 151.681 148.597 152.392C148.597 157.016 151.072 161.232 153.471 165.185L156.005 169.361C156.823 170.711 157.647 172.067 158.67 173.269C160.617 175.556 163.274 177.228 166.178 177.993C163.629 178.166 161.151 176.903 159.301 175.141C157.451 173.379 156.128 171.148 154.829 168.948L150.799 162.123C149.254 159.507 147.582 156.552 147.557 153.515ZM140.574 154.35C140.515 154.181 140.438 153.993 140.271 153.926C139.992 154.363 140.112 154.935 140.254 155.434C140.809 157.386 141.563 159.283 142.499 161.085C142.132 158.775 141.351 156.555 140.574 154.35ZM140.375 133.298C141.594 133.918 142.953 134.26 144.321 134.292C143.146 133.573 141.75 133.222 140.375 133.298ZM142.721 162.175C142.655 162.361 142.803 162.589 142.999 162.606C142.942 162.107 142.786 161.62 142.543 161.181C142.445 161.501 142.502 161.864 142.692 162.139L142.721 162.175ZM160.91 202.75C160.646 202.653 160.65 202.283 160.703 202.006L161.513 197.771C161.564 197.505 161.68 197.178 161.95 197.159C162.29 197.134 162.41 197.6 162.396 197.941C162.334 199.4 162.046 200.849 161.543 202.221C161.437 202.509 161.198 202.856 160.91 202.75ZM87.3867 216.437C85.162 216.733 82.6588 216.958 80.9067 215.555C80.7978 215.468 80.6897 215.371 80.6363 215.242C80.411 214.698 81.2077 214.352 81.7804 214.216C83.7685 213.743 85.2458 212.108 86.4854 210.483C89.2874 206.811 91.5743 202.747 93.2585 198.445C93.2923 198.359 93.3261 198.273 93.3599 198.186C93.9727 196.613 94.6193 194.953 95.9977 194C96.5475 196.411 95.9753 199.055 94.4776 201.023C94.7133 201.472 95.3328 201.596 95.8125 201.432C96.2922 201.268 96.6635 200.891 97.016 200.527L100.908 196.503C101.821 195.558 103.268 194.558 104.302 195.37C104.639 195.635 104.821 196.032 105.003 196.429C105.072 196.58 105.141 196.731 105.219 196.875C106.113 198.529 107.975 199.074 109.86 199.626C110.742 199.884 111.63 200.144 112.425 200.52C112.7 200.65 113.094 200.766 113.253 200.507C113.307 200.42 113.312 200.312 113.315 200.209C113.367 198.178 112.908 196.135 111.991 194.322C113.653 195.132 115.466 196.106 116.076 197.851C118.064 203.536 120.49 209.067 123.325 214.38C119.917 215.004 116.379 214.912 113.007 214.112C112.939 214.949 113.635 215.774 114.472 215.846C112.806 216.35 111.149 216.884 109.502 217.448L110.754 218.481C106.474 218.76 102.155 218.419 97.9717 217.472C98.0487 218.154 98.1879 218.83 98.3871 219.487C95.2912 218.948 92.2385 218.161 89.2682 217.135L89.7633 216.121L87.3867 216.437Z" fill="#003C43"/>
<path fill-rule="evenodd" clip-rule="evenodd" d="M115.58 130.288C115.257 130.425 114.842 130.434 114.596 130.185C114.291 129.877 114.393 129.358 114.583 128.968C114.751 128.623 114.986 128.289 115.329 128.118C115.673 127.947 116.142 127.985 116.38 128.287C116.526 128.472 116.564 128.723 116.544 128.957C116.496 129.531 116.11 130.064 115.58 130.288Z" fill="#77B0AA"/>
<path fill-rule="evenodd" clip-rule="evenodd" d="M124.201 84.3534C123.705 84.5711 123.26 83.957 122.748 83.7779C122.214 83.5909 121.647 83.9024 121.162 84.1955C120.143 84.8123 119.105 85.3979 118.049 85.9512C117.833 86.0647 117.598 86.1802 117.355 86.1485C117.113 86.1169 116.886 85.8659 116.975 85.6382C117.025 85.5103 117.153 85.4327 117.272 85.3644C118.16 84.8546 119.048 84.3448 119.936 83.835C121.083 83.1766 122.405 82.4956 123.668 82.8897C123.99 82.9905 124.308 83.1776 124.456 83.4818C124.603 83.7861 124.511 84.2176 124.201 84.3534V84.3534Z" fill="#003C43"/>
<path fill-rule="evenodd" clip-rule="evenodd" d="M126.395 103.212C126.093 103.945 125.633 104.795 124.841 104.833C124.133 104.867 123.579 104.181 123.413 103.492C123.18 102.533 123.546 101.388 124.427 100.942C125.308 100.497 126.603 101.068 126.674 102.053C126.703 102.453 126.547 102.841 126.395 103.212H126.395Z" fill="#77B0AA"/>
<path fill-rule="evenodd" clip-rule="evenodd" d="M141.896 102.592L141.904 102.748C141.95 103.505 142.118 104.361 142.802 104.647C143.455 104.921 144.21 104.466 144.602 103.876C145.149 103.054 145.197 101.853 144.521 101.133C143.846 100.412 142.434 100.507 142.03 101.408C141.866 101.774 141.88 102.192 141.896 102.592Z" fill="#77B0AA"/>
<path fill-rule="evenodd" clip-rule="evenodd" d="M143.262 88.635C143.469 88.5805 143.726 88.578 143.854 88.7487C143.94 88.8625 143.939 89.0174 143.932 89.1595C143.898 89.7825 143.63 90.5659 143.007 90.5799C142.527 90.5906 142.167 90.0396 142.265 89.5697C142.363 89.0999 142.798 88.7575 143.262 88.635V88.635Z" fill="#77B0AA"/>
<path fill-rule="evenodd" clip-rule="evenodd" d="M142.209 93.7524C141.904 93.2119 142.522 92.6275 143.059 92.3169C143.505 92.059 144.208 91.875 144.423 92.3431C144.571 92.6651 144.326 93.0222 144.094 93.2907C143.845 93.5802 143.58 93.8793 143.225 94.0201C142.87 94.161 142.397 94.0854 142.209 93.7524L142.209 93.7524Z" fill="#77B0AA"/>
<path fill-rule="evenodd" clip-rule="evenodd" d="M137.948 91.2181C137.868 91.4289 137.778 91.6471 137.608 91.795C137.372 92 137.021 92.0267 136.72 91.9441C136.109 91.7769 135.644 91.16 135.683 90.5283C135.721 89.8965 136.284 89.3308 136.917 89.3185C137.55 89.3062 138.144 89.8778 138.127 90.5106C138.121 90.755 138.036 90.9898 137.948 91.2181Z" fill="#003C43"/>
<path fill-rule="evenodd" clip-rule="evenodd" d="M122.677 92.1656C121.976 92.093 121.453 91.2867 121.673 90.6166C121.893 89.9466 122.792 89.6074 123.4 89.965C124.008 90.3227 124.148 91.2733 123.669 91.7912C123.421 92.0603 123.042 92.2033 122.677 92.1656H122.677Z" fill="#003C43"/>
<path fill-rule="evenodd" clip-rule="evenodd" d="M130.941 101.899L132.331 101.64L132.348 101.857C132.453 103.378 132.206 104.091 131.605 103.997C130.994 103.901 130.768 103.238 130.926 102.006L130.941 101.899ZM132.02 102.031L131.4 102.204C131.317 103.075 131.416 103.543 131.696 103.609C131.977 103.675 132.085 103.149 132.02 102.031Z" fill="#003C43"/>
<path fill-rule="evenodd" clip-rule="evenodd" d="M133.752 101.589L135.613 101.333L135.635 101.543C135.777 103.047 135.446 103.752 134.641 103.659C133.822 103.564 133.519 102.906 133.734 101.687L133.752 101.589ZM134.058 101.749C133.933 102.481 134.067 103.273 134.487 103.329C134.908 103.384 135.214 102.877 135.117 101.936L134.96 101.894C134.838 101.863 134.741 101.841 134.667 101.828L134.568 101.812C134.441 101.793 134.271 101.772 134.058 101.749Z" fill="#003C43"/>
<path fill-rule="evenodd" clip-rule="evenodd" d="M112.737 163.556C112.294 164.213 111.85 164.87 111.407 165.527C111.138 165.523 111.121 165.125 111.198 164.866C111.612 163.473 112.025 162.08 112.439 160.687C112.148 160.556 111.879 160.901 111.743 161.19C110.378 164.111 109.008 167.044 108.08 170.132C107.153 173.22 106.677 176.49 107.141 179.681C107.444 178.974 107.747 178.267 108.049 177.561C108.53 176.438 109.012 175.312 109.634 174.261C110.312 173.117 111.149 172.071 111.798 170.91C112.446 169.749 112.907 168.421 112.732 167.103C112.47 167.467 112.209 167.831 111.947 168.195C111.207 166.755 113.201 165.107 112.737 163.556Z" fill="#77B0AA"/>
<path fill-rule="evenodd" clip-rule="evenodd" d="M93.6253 161.999C94.2972 162.008 93.7168 160.605 94.3213 160.312C94.7046 160.126 95.0571 160.613 95.2008 161.014C96.1696 163.717 96.7374 166.562 96.8796 169.429C97.0407 172.675 99.2671 175.828 98.3621 178.95C98.2981 179.171 98.2125 179.397 98.041 179.55C97.4256 180.101 96.5314 179.299 96.1402 178.572C94.7978 176.077 93.8833 173.353 93.4488 170.554C93.353 169.937 93.2751 169.301 92.975 168.754C92.7226 168.294 92.3283 167.927 92.0521 167.481C91.5079 166.602 91.4714 165.513 91.4508 164.479C91.4132 162.591 91.3756 160.703 91.338 158.814C91.3244 158.128 91.489 157.222 92.1708 157.144C92.9033 158.674 93.396 160.318 93.6253 161.999" fill="#77B0AA"/>
<path fill-rule="evenodd" clip-rule="evenodd" d="M80.9067 215.555C82.6587 216.958 85.162 216.733 87.3866 216.437C88.1788 216.332 88.971 216.227 89.7632 216.121C89.5982 216.459 89.4332 216.797 89.2681 217.135C92.2385 218.161 95.2911 218.948 98.387 219.487C98.1878 218.83 98.0486 218.154 97.9717 217.472C102.155 218.419 106.474 218.76 110.754 218.481C110.337 218.136 109.919 217.792 109.502 217.448C111.149 216.884 112.806 216.35 114.472 215.846C113.635 215.774 112.938 214.949 113.007 214.112C116.379 214.912 119.917 215.004 123.325 214.38C120.49 209.067 118.064 203.536 116.076 197.851C115.466 196.105 113.653 195.132 111.991 194.322C112.908 196.135 113.367 198.178 113.315 200.209C113.312 200.312 113.307 200.42 113.253 200.507C113.094 200.766 112.7 200.65 112.425 200.52C109.93 199.341 106.532 199.303 105.219 196.875C104.937 196.354 104.768 195.736 104.302 195.37C103.268 194.558 101.821 195.558 100.907 196.503C99.6103 197.844 98.3131 199.185 97.016 200.527C96.6635 200.891 96.2922 201.268 95.8125 201.432C95.3327 201.596 94.7133 201.472 94.4776 201.023C95.9753 199.055 96.5474 196.411 95.9976 194C94.5431 195.006 93.9034 196.799 93.2585 198.445C91.5743 202.747 89.2873 206.811 86.4853 210.483C85.2457 212.108 83.7684 213.743 81.7804 214.216C81.2077 214.352 80.411 214.698 80.6363 215.242C80.6897 215.37 80.7977 215.468 80.9067 215.555Z" fill="white"/>
<path fill-rule="evenodd" clip-rule="evenodd" d="M115.167 183.939C113.763 170.956 113.468 157.382 118.493 145.329C115.099 157.913 114.267 171.183 116.063 184.094C117.86 197.016 116.569 196.911 115.167 183.939Z" fill="#003C43"/>
<path fill-rule="evenodd" clip-rule="evenodd" d="M99.7665 149.483C99.8468 148.616 99.961 147.751 100.109 146.893C100.187 146.438 100.857 146.324 101.224 146.604C101.592 146.883 101.721 147.369 101.821 147.82C103.359 154.75 103.437 162.002 102.047 168.964C101.915 169.622 101.573 170.438 100.904 170.4C100.319 170.366 100.026 169.692 99.8664 169.128C98.5943 164.64 97.4593 160.112 96.4637 155.554C96.2065 154.377 95.9572 153.177 96.0614 151.976C96.1655 150.775 96.6751 149.554 97.6621 148.863C98.0427 148.596 98.5134 148.413 98.9695 148.502C99.4256 148.591 99.8302 149.023 99.7665 149.483" fill="#77B0AA"/>
<path fill-rule="evenodd" clip-rule="evenodd" d="M113.076 194.144C113.57 194.998 115.22 195.298 114.992 194.767C114.765 194.236 114.694 193.79 114.466 193.259C114.236 192.722 114.391 191.756 114.926 191.992C115.101 192.07 115.186 192.266 115.255 192.445C115.707 193.612 115.733 194.879 116.185 196.046C117.867 194.585 116.819 191.04 115.777 189.61C114.736 188.181 114.375 186.065 107.242 184.456C105.908 184.155 104.366 184.163 102.953 184.187C102.023 184.202 95.8297 185.253 92.8792 189.14C89.9287 193.027 89.6587 193.894 87.2856 196.301C88.1718 196.046 89.1359 196.83 89.3255 197.916C89.5151 199.002 88.7468 200.493 89.3255 201.431C92.5825 200.669 92.053 197.935 92.2511 197.689C93.474 196.169 94.49 193.772 96.5136 193.708C96.8447 194.399 96.7101 195.185 96.587 195.941C96.9054 196.232 95.9428 199.33 95.4974 201.019C96.9059 199.187 99.0229 198.216 100.431 196.384C101.272 195.29 102.46 194.067 103.793 194.427C104.62 194.65 105.107 195.755 105.69 196.384C106.83 197.614 108.19 198.77 109.849 199.021C109.82 198.585 110.237 198.419 110.554 198.119C111.126 198.841 111.845 199.52 112.757 199.65C112.15 197.997 112.21 196.238 111.603 194.585C111.506 194.323 111.41 194.032 111.512 193.772C111.767 193.118 112.581 193.291 113.076 194.144Z" fill="#77B0AA"/>
<path fill-rule="evenodd" clip-rule="evenodd" d="M179.025 95.3028C179.862 95.2826 180.499 95.447 181.705 95.929C181.705 95.929 183.903 96.968 183.824 97.2326C183.745 97.4972 182.496 97.3312 182.047 97.1485L181.48 96.9164C180.429 96.4904 179.866 96.322 179.265 96.3031L179.188 96.3013L179.184 96.3352L179.181 96.3749C179.168 96.5789 179.212 96.8484 179.278 97.0033C179.4 97.2915 179.546 97.5751 179.712 97.8519L179.819 98.027L179.945 98.0417C181.557 98.2447 183.116 98.8696 184.13 99.7678L184.221 99.8503C185.353 100.905 185.845 101.664 185.588 102.256C185.305 102.909 184.507 102.857 183.484 102.433C182.003 101.818 180.446 100.599 179.346 99.105L179.257 98.9827L179.229 98.9811C179.039 98.9711 178.849 98.968 178.661 98.9721L178.519 98.9766C176.495 99.0603 175.068 99.9408 174.672 101.521C174.539 102.051 174.62 102.602 174.871 103.138L174.919 103.239L174.938 103.24C176.797 103.315 178.551 103.86 179.523 104.742L179.598 104.813C180.122 105.32 180.452 105.746 180.595 106.11C180.788 106.603 180.645 107.069 180.186 107.272C179.638 107.515 178.67 107.309 177.591 106.808C176.227 106.174 175.077 105.29 174.368 104.278L174.337 104.232L174.237 104.234C174.145 104.237 174.054 104.24 173.962 104.245L173.825 104.254C171.625 104.405 170.015 105.26 169.603 106.61C169.449 107.113 169.573 107.804 169.901 108.525L169.918 108.563L170.011 108.561C171.08 108.547 172.162 108.899 173.121 109.665L173.279 109.793C173.397 109.886 173.615 110.053 173.594 110.037L173.732 110.147C174.349 110.654 174.6 111.069 174.311 111.644C173.577 113.105 171.91 112.606 170.431 111.048C170.04 110.637 169.695 110.189 169.409 109.727L169.351 109.631L169.272 109.647C168.507 109.811 167.772 110.208 167.141 110.812L167.063 110.889C165.775 112.174 165.454 113.829 166.309 115.131L166.368 115.218L166.421 115.242C166.718 115.379 167.043 115.551 167.429 115.768L167.825 115.995L168.293 116.265C168.342 116.293 168.384 116.32 168.422 116.351C168.543 116.447 168.62 116.544 168.629 116.742C168.646 117.094 168.416 117.242 168.178 117.273C168.117 117.282 168.062 117.28 168.002 117.272C167.874 117.257 167.682 117.208 167.462 117.137C166.935 116.967 166.451 116.749 166.207 116.529C166.038 116.376 165.885 116.217 165.748 116.052L165.732 116.033L165.728 116.032C165.477 115.93 165.245 115.858 165.001 115.803L164.927 115.786C164.127 115.618 163.273 115.669 162.001 115.899C159.995 116.263 159.041 118.17 159.387 119.751L159.396 119.788L159.427 119.799C159.764 119.924 160.109 120.119 160.579 120.423L160.993 120.693C161.449 120.986 161.758 121.276 161.934 121.669C162.153 122.154 161.773 122.967 161.122 122.783C159.867 122.428 159.051 121.647 158.638 120.706L158.602 120.621L158.584 120.619C156.578 120.334 153.899 121.353 152.258 122.948L152.163 123.042C151.508 123.705 151.116 124.358 151.009 124.976L151.005 125.004L151.111 124.997C151.569 124.967 151.981 124.976 152.317 125.029L152.415 125.047C153.944 125.343 154.887 125.675 155.342 126.082C155.928 126.606 155.78 127.254 155.179 127.697C154.459 128.226 152.754 128.685 152.304 128.452C151.111 127.835 150.394 127.053 150.114 126.194L150.094 126.13L150.074 126.134C149.434 126.251 148.75 126.43 148.112 126.663L147.976 126.714C146.177 127.4 145.208 128.399 144.952 129.457C144.643 130.733 147.559 133.322 147.334 133.481C147.109 133.641 146.16 132.792 145.695 132.351L145.615 132.275C144.299 131.033 143.857 130.408 143.956 129.362C144.105 127.804 145.502 126.587 147.62 125.78C148.367 125.495 149.176 125.278 149.941 125.142L149.985 125.134L149.989 125.087C150.065 124.205 150.54 123.287 151.379 122.414L151.452 122.339C153.166 120.605 155.929 119.459 158.222 119.58L158.34 119.588L158.333 119.517C158.147 117.568 159.357 115.43 161.698 114.94L161.823 114.915L162.161 114.857C163.262 114.674 164.092 114.63 164.893 114.763L165.031 114.788L165.012 114.73C164.532 113.243 165.012 111.571 166.276 110.262L166.356 110.181C167.082 109.456 167.941 108.958 168.845 108.72L168.889 108.709L168.864 108.647C168.553 107.853 168.448 107.07 168.621 106.407L168.646 106.318C169.195 104.519 171.118 103.47 173.619 103.266L173.756 103.256L173.824 103.252L173.804 103.198C173.598 102.609 173.544 101.995 173.679 101.376L173.702 101.278C174.221 99.2079 176.053 98.0778 178.478 97.9774L178.633 97.9727L178.615 97.9381C178.545 97.8038 178.479 97.6683 178.417 97.5315L178.358 97.3944C178.23 97.0941 178.16 96.6684 178.183 96.31C178.219 95.7526 178.474 95.3161 179.025 95.3028ZM152.225 126.029C151.966 125.978 151.625 125.966 151.233 125.989L151.111 125.997L151.126 126.033C151.346 126.554 151.817 127.033 152.556 127.452L152.689 127.524L152.744 127.52L152.82 127.511C152.979 127.49 153.184 127.447 153.398 127.39C153.892 127.257 154.341 127.072 154.586 126.891L154.617 126.868L154.67 126.823L154.646 126.803C154.352 126.567 153.595 126.302 152.36 126.055L152.225 126.029ZM170.522 109.591L170.535 109.61C170.722 109.869 170.93 110.121 171.156 110.36C172.207 111.466 173.093 111.749 173.398 111.232L173.403 111.222C173.4 111.222 173.398 111.221 173.394 111.217L173.376 111.195C173.316 111.11 173.21 111.01 173.044 110.877L172.948 110.802L172.685 110.599L172.576 110.511C171.978 110.012 171.322 109.717 170.654 109.61L170.522 109.591ZM175.698 104.305L175.73 104.338C176.319 104.939 177.106 105.48 178.012 105.901C178.665 106.204 179.263 106.367 179.584 106.38L179.619 106.381L179.601 106.348C179.493 106.163 179.287 105.911 178.981 105.608L178.903 105.531C178.294 104.942 177.16 104.509 175.862 104.327L175.698 104.305ZM180.708 99.1953L180.804 99.3003C181.711 100.282 182.819 101.074 183.868 101.509C184.11 101.61 184.326 101.678 184.5 101.713L184.553 101.722L184.519 101.668C184.338 101.389 184.011 101.022 183.539 100.582C182.879 99.9662 181.88 99.4835 180.781 99.2126L180.708 99.1953Z" fill="#77B0AA"/>
<path fill-rule="evenodd" clip-rule="evenodd" d="M147.582 57.3252C147.047 57.4425 146.82 58.061 146.442 58.4572C146.065 58.8534 145.131 58.7571 145.258 58.2247C145.969 56.8099 146.69 55.3623 146.904 53.7936C147.118 52.2248 146.736 50.4847 145.541 49.4452C144.716 48.7265 143.612 48.4227 142.534 48.2323C138.344 47.4922 134.053 48.1529 129.813 48.5133C125.573 48.8736 121.114 48.891 117.301 47.0026C114.709 45.7192 113.166 42.6058 113.714 39.7661C109.155 45.3174 107.103 52.738 107.635 59.9018C107.788 61.9618 108.148 64.0211 108.903 65.9438C110.769 70.6985 115.023 74.3098 119.851 75.9776C124.68 77.6453 130.014 77.4938 134.949 76.1756C139.884 74.8573 144.458 72.4228 148.719 69.6055C148.996 69.422 149.356 69.8232 149.27 70.1445C149.184 70.4658 148.865 70.6589 148.574 70.8191C146.11 72.1731 143.646 73.527 141.183 74.881C142.66 75.6567 143.458 77.2802 144.086 78.826C144.885 80.7954 145.566 82.813 146.123 84.8642C148.764 82.7431 151.405 80.6221 154.046 78.501C154.321 78.2802 154.879 78.1712 154.891 78.5237C152.372 80.6185 149.853 82.7132 147.334 84.8079C146.953 85.1251 146.531 85.5467 146.63 86.0328C149.026 84.0598 151.421 82.0869 153.817 80.1139C154.585 79.4817 155.405 78.7613 155.561 77.7793C156.263 73.3781 156.942 68.7309 155.33 64.5758C154.103 61.4124 151.548 58.7889 148.418 57.4786C148.152 57.3674 147.863 57.2635 147.582 57.3252Z" fill="white"/>
<path fill-rule="evenodd" clip-rule="evenodd" d="M130.437 95.6994C130.667 95.7116 130.843 95.9078 130.831 96.1376L130.816 96.4033C130.748 97.5237 130.643 98.241 130.482 98.608C130.32 98.9749 130.684 98.9698 130.807 98.9403C130.93 98.9109 132.301 97.4576 132.461 97.6227C132.621 97.7878 132.617 98.0516 132.452 98.2119L132.278 98.3794C131.573 99.0514 131.117 99.4029 130.807 99.4773C130.534 99.5428 130.026 99.7013 129.961 99.3439C129.838 98.6607 130.305 97.9202 130.422 96.9993C130.497 96.4026 130.311 95.7033 130.394 95.6993L130.437 95.6994Z" fill="#003C43"/>
</g>
<defs>
<filter id="filter0_d_322_1436" x="-4" y="0" width="258" height="258" filterUnits="userSpaceOnUse" color-interpolation-filters="sRGB">
<feFlood flood-opacity="0" result="BackgroundImageFix"/>
<feColorMatrix in="SourceAlpha" type="matrix" values="0 0 0 0 0 0 0 0 0 0 0 0 0 0 0 0 0 0 127 0" result="hardAlpha"/>
<feOffset dy="4"/>
<feGaussianBlur stdDeviation="2"/>
<feComposite in2="hardAlpha" operator="out"/>
<feColorMatrix type="matrix" values="0 0 0 0 0 0 0 0 0 0 0 0 0 0 0 0 0 0 0.25 0"/>
<feBlend mode="normal" in2="BackgroundImageFix" result="effect1_dropShadow_322_1436"/>
<feBlend mode="normal" in="SourceGraphic" in2="effect1_dropShadow_322_1436" result="shape"/>
</filter>
</defs>
</svg>
