<svg width="49" height="63" viewBox="0 0 49 63" fill="none" xmlns="http://www.w3.org/2000/svg">
<rect y="0.5" width="49" height="62" rx="24.5" fill="#77B0AA"/>
<path d="M30.82 27.2625C31.6127 26.7447 32.5224 26.4361 33.4651 26.3655C35.0104 26.2306 36.5457 26.7185 37.7333 27.722C38.9209 28.7254 39.6637 30.1623 39.7981 31.7164C39.9151 33.0406 39.5791 34.3651 38.8459 35.4712C38.1947 36.407 37.4612 37.282 36.6543 38.0858L36.4965 38.2416M18.9852 27.2623C18.1969 26.7469 17.2926 26.4384 16.3552 26.3652C15.5897 26.2964 14.8181 26.3805 14.085 26.6124C13.3518 26.8444 12.6714 27.2197 12.0829 27.7169C11.4944 28.2141 11.0094 28.8235 10.6558 29.5098C10.3021 30.1961 10.0868 30.9459 10.0221 31.7162C9.90795 33.038 10.2379 34.3601 10.9592 35.4709C11.6394 36.6329 12.6288 37.5807 13.8159 38.2073M26.6634 19.5247C28.4101 19.8165 30.0418 20.5907 31.3763 21.7611C32.7108 22.9315 33.6956 24.452 34.2208 26.1527M15.5843 26.1827C16.0977 24.6235 16.9924 23.2193 18.1861 22.0984C19.3798 20.9776 20.8343 20.176 22.4162 19.7678M21.9023 22.3825L21.3431 22.9602M28.3714 24.5564L27.4947 25.438M15.3576 31.017L14.4961 31.8987M29.7166 32.2787L28.976 33.0236M21.7058 30.0745L20.9652 30.8194M36.8659 31.4578L36.3217 32.0051M24.4718 16.5907C23.8745 16.5907 23.3017 16.8292 22.8793 17.2539C22.457 17.6787 22.2197 18.255 22.2197 18.8557C22.2242 19.0825 22.2598 19.3075 22.3255 19.5245C22.4556 20.0036 22.7396 20.4258 23.1333 20.7255C23.527 21.0252 24.0083 21.1857 24.502 21.1816C25.0993 21.1816 25.6722 20.9428 26.0945 20.518C26.5169 20.0932 26.7541 19.5173 26.7541 18.9166C26.7623 18.6115 26.7091 18.3076 26.5977 18.0237C26.4862 17.7398 26.3189 17.4816 26.1058 17.2643C25.8926 17.0471 25.638 16.8754 25.3572 16.7596C25.0764 16.6438 24.7752 16.5865 24.4718 16.5907ZM24.4718 16.5907C24.313 15.7164 24.4352 14.8757 24.767 14.052C25.0989 13.2283 25.6571 12.5165 26.3763 12M36.4965 38.2416C36.3096 40.3661 35.7343 42.4421 34.7952 44.3638C34.4654 45.2247 33.9698 46.0115 33.337 46.6793C32.7041 47.3471 31.9463 47.8826 31.1072 48.2551C29.2189 48.8364 27.631 49 25.2729 49C22.9147 49 21.1202 48.8747 19.1363 48.2551C18.2971 47.8826 17.5394 47.3471 16.9065 46.6793C16.2736 46.0115 15.7781 45.2247 15.4483 44.3638C14.3132 41.9933 13.7291 39.3942 13.7403 36.7631C13.7531 36.4017 13.85 36.0482 14.0233 35.7314C14.1965 35.4145 14.4413 35.143 14.7379 34.9386C15.1901 34.7492 15.6804 34.6697 16.1689 34.7067C16.6574 34.7436 17.1303 34.8963 17.5493 35.1517C18.3773 35.6753 19.3371 35.9496 20.3152 35.9422C22.3104 35.6685 23.2626 33.1905 25.4543 33.4946C27.268 33.753 28.2354 35.6989 29.9887 35.9422C30.9712 35.9475 31.9353 35.6734 32.7698 35.1517C33.1841 34.8917 33.6549 34.7363 34.1419 34.6992C34.6288 34.6622 35.1175 34.7443 35.566 34.9386C35.8652 35.1403 36.1119 35.4114 36.2855 35.7288C36.4591 36.0462 36.5545 36.401 36.5636 36.7631C36.5622 37.2576 36.5397 37.7509 36.4965 38.2416Z" stroke="#E3FEF7" stroke-linecap="round" stroke-linejoin="round"/>
</svg>
