<svg width="49" height="63" viewBox="0 0 49 63" fill="none" xmlns="http://www.w3.org/2000/svg">
<rect y="0.5" width="49" height="62" rx="24.5" fill="#77B0AA"/>
<path d="M32.2251 21.5801C33.5593 27.0309 33.3394 33.422 30.4803 38.241C29.4393 40.004 30.5683 41.87 31.1694 43.8387C31.58 45.161 32.3131 46.5567 31.8292 47.8496C31.5913 48.4399 31.1877 48.9484 30.6672 49.3134C30.1467 49.6785 29.5317 49.8845 28.8968 49.9064C27.2178 50.0312 25.5319 50.0312 23.853 49.9064C16.6978 49.4656 23.9703 41.7083 21.9176 38.2557C20.1852 35.0348 19.302 31.4243 19.3517 27.7658C19.3517 25.7236 19.1171 22.5941 20.7006 21.022C23.0172 18.7301 27.152 18.7154 29.7765 19.9495M19.6596 31.1005C19.8062 32.9076 21.8589 33.1722 23.2518 32.7462C24.6447 32.3201 26.023 31.1152 27.6505 30.792C28.6183 30.5555 29.6387 30.6745 30.5264 31.1274C31.4142 31.5803 32.1105 32.3372 32.489 33.2605M26.7268 36.1252L35.1429 13M22.8413 46.909C25.0269 47.5981 27.371 47.5981 29.5566 46.909M19.293 27.927C18.9986 27.9862 18.699 28.0158 18.3987 28.0153C17.2321 28.0153 16.1132 27.5509 15.2883 26.7244C14.4634 25.8978 14 24.7767 14 23.6077C14 22.4387 14.4634 21.3176 15.2883 20.491C16.1132 19.6644 17.2321 19.2001 18.3987 19.2001C19.5652 19.2001 20.6841 19.6644 21.509 20.491C22.3339 21.3176 22.7973 22.4387 22.7973 23.6077M19.7329 22.8878C21.1856 23.5575 22.7595 23.9224 24.3581 23.9603C25.9567 23.9982 27.5461 23.7081 29.0287 23.108" stroke="#E3FEF7" stroke-linecap="round" stroke-linejoin="round"/>
</svg>
