<svg width="49" height="63" viewBox="0 0 49 63" fill="none" xmlns="http://www.w3.org/2000/svg">
<rect y="0.5" width="49" height="62" rx="24.5" fill="#77B0AA"/>
<path d="M14.8947 32.5698C16.2586 32.9956 17.6635 33.2872 19.088 33.4405C22.0956 33.7574 25.1252 33.8321 28.1456 33.6635C32.0842 33.7618 35.9717 32.7859 39.3627 30.8482C39.7729 31.1216 40.1116 31.4835 40.3518 31.9053C40.592 32.3271 40.7271 32.7973 40.7465 33.2783C41.0279 36.5209 40.39 39.7766 38.9014 42.6957M28.8375 49.3181C28.2295 49.3181 27.6005 49.4595 26.9715 49.5C25.8602 49.5 24.749 49.5 23.6378 49.5C18.7945 49.3582 13.5948 47.9811 11.1837 43.4245C9.08705 39.6374 8.3532 34.3925 10.6386 30.5649M23.2395 31.4357C23.5214 31.1497 23.7187 30.7959 23.8109 30.4112C23.9031 30.0265 23.8868 29.6248 23.7636 29.2483C23.6332 28.8779 23.4129 28.5431 23.1211 28.2718C22.8293 28.0005 22.4745 27.8006 22.0863 27.6889C20.6844 27.5193 19.2655 27.8354 18.0817 28.5803C16.3415 29.2892 14.2868 30.8483 12.3578 30.8888C8.16454 30.8888 6.06792 22.3829 10.3661 21.1071C10.826 20.96 11.3227 20.9593 11.7831 21.1051C12.2435 21.2509 12.6434 21.5358 12.9239 21.9174C13.7626 23.1933 13.511 24.6714 14.8529 25.7245C15.4789 26.2016 16.1893 26.5654 16.9495 26.7979C18.2495 27.2312 19.6031 27.4971 20.9751 27.588M35.8822 26.6559C34.564 26.7176 33.2434 26.595 31.9615 26.2915C31.1815 26.1251 30.4369 25.8306 29.7601 25.4209C28.2924 24.469 28.3763 22.9297 27.3908 21.7146C27.0569 21.3539 26.6132 21.105 26.1235 21.0032C25.6338 20.9013 25.1232 20.9516 24.6652 21.1475C20.4719 22.8892 23.4282 31.4153 27.7892 30.9293C29.7391 30.7065 31.668 28.9042 33.3662 27.9929C34.5037 27.1207 35.9187 26.6553 37.3708 26.6762C37.7798 26.7495 38.1647 26.9165 38.4931 27.1632C38.8214 27.4099 39.0837 27.7294 39.2579 28.0942C39.4269 28.467 39.4869 28.8774 39.4314 29.2809C39.376 29.6843 39.2072 30.0651 38.9433 30.3824C38.408 31.0689 37.7093 31.6207 36.9064 31.9908C36.1034 32.361 35.2199 32.5387 34.3307 32.509C32.677 32.2767 31.1772 31.4435 30.1374 30.1797M37.245 43.1006C35.8867 43.5155 34.4756 43.7474 33.0517 43.7894C32.2704 43.8208 31.4895 43.7176 30.7454 43.4853C29.11 42.9385 28.8165 41.4602 27.5795 40.5692C27.1861 40.2941 26.7128 40.1459 26.2271 40.1459C25.7414 40.1459 25.2682 40.2941 24.8748 40.5692C21.3524 43.2221 26.3006 50.5734 30.2842 49.0748C32.0663 48.4065 33.4082 46.2395 34.792 45.0244C35.7774 44.1334 36.7838 42.9991 38.2304 42.8371C38.6284 42.8266 39.0238 42.9033 39.3868 43.0611C39.7499 43.2189 40.0713 43.4541 40.3271 43.7488C40.5745 44.0627 40.7302 44.4349 40.7782 44.8267C40.8261 45.2185 40.7645 45.6152 40.5997 45.9762C40.264 46.7519 39.7402 47.4384 39.0725 47.9777C38.4047 48.5169 37.6126 48.8931 36.7628 49.0748C35.9523 49.1775 35.1286 49.1233 34.3402 48.9146C33.5517 48.7059 32.8143 48.3474 32.1712 47.86M22.1282 14.5657C21.696 15.6488 21.1027 16.6653 20.367 17.5832C19.9355 18.1419 19.4113 18.6282 18.8155 19.0215C17.4737 19.8316 16.2576 19.1835 14.8738 19.5278C14.4281 19.6578 14.0399 19.927 13.7703 20.2937C13.5008 20.6603 13.3653 21.1037 13.3851 21.553C13.2593 25.6033 21.3944 26.4131 22.6104 22.7475C22.8286 20.8872 22.7223 19.0047 22.2959 17.1783C21.9976 15.9327 22.1454 14.626 22.7153 13.472C22.9252 13.1749 23.2064 12.9313 23.535 12.762C23.8636 12.5928 24.2298 12.5028 24.6022 12.5C24.9714 12.5192 25.3288 12.6327 25.6381 12.8283C25.9474 13.0239 26.1976 13.2948 26.3634 13.6139C26.725 14.3118 26.9134 15.0817 26.9134 15.8621C26.9134 16.6425 26.725 17.4119 26.3634 18.1098C25.5826 19.3708 24.3159 20.2812 22.841 20.6412" stroke="#E3FEF7" stroke-linecap="round" stroke-linejoin="round"/>
</svg>
