<svg width="49" height="63" viewBox="0 0 49 63" fill="none" xmlns="http://www.w3.org/2000/svg">
<rect y="0.5" width="49" height="62" rx="24.5" fill="#135D66"/>
<path d="M8.19294 25.0738L7.8994 24.5774C7.69331 24.23 7.61954 23.8222 7.69121 23.4264C7.76288 23.0306 7.97536 22.6724 8.29078 22.416L8.73108 22.0478C9.05458 21.7984 9.27009 21.4383 9.33443 21.0394L9.43227 20.479C9.50127 20.096 9.69975 19.7471 9.99564 19.4885C10.2915 19.23 10.6676 19.0772 11.063 19.0543H11.65C12.0632 19.0657 12.4654 18.9227 12.7752 18.6541L13.2155 18.2859C13.5291 18.0293 13.9244 17.8888 14.3325 17.8888C14.7407 17.8888 15.136 18.0293 15.4496 18.2859M30.1259 34.9033C29.8032 35.5181 29.2568 35.991 28.5951 36.2283C27.9334 36.4656 27.205 36.45 26.5547 36.1842L25.5926 35.832C24.9007 35.5966 24.1482 35.5966 23.4564 35.832L22.4779 36.1842C21.8196 36.4347 21.0918 36.4467 20.4253 36.2178C19.7587 35.9889 19.1972 35.5342 18.8415 34.9354M15.4496 18.606L15.629 17.5972C15.7559 16.8905 16.1332 16.2506 16.6942 15.7907C17.2552 15.3307 17.9638 15.0807 18.6947 15.084H19.7383C20.4672 15.0811 21.1716 14.8257 21.7278 14.3633L22.5268 13.7071C23.0885 13.2502 23.795 13 24.5245 13C25.2539 13 25.9604 13.2502 26.5221 13.7071L27.3211 14.3633C27.8759 14.8281 28.5813 15.0839 29.3106 15.084H30.3542C31.0834 15.0869 31.7887 15.3396 32.3484 15.7985C32.9081 16.2574 33.287 16.8933 33.42 17.5972L33.5993 18.606C33.7159 19.3158 34.0929 19.959 34.6593 20.4149L35.442 21.0715C35.8329 21.3856 36.1386 21.7895 36.332 22.2476C36.5255 22.7056 36.6007 23.2034 36.5509 23.6968M12.5143 23.809C12.4424 23.3005 12.5035 22.7824 12.6918 22.3034C12.8801 21.8245 13.1894 21.4007 13.5906 21.0715M14.8136 37.5607C14.8136 37.5607 20.2928 37.5608 20.6189 50M23.3748 42.7638C22.7225 37.2726 19.7383 35.8801 19.7383 35.8801M29.49 32.518L29.3758 33.1261C29.3035 33.5459 29.3828 33.9776 29.6002 34.346C29.8176 34.7144 30.1593 34.9962 30.5662 35.1433L31.137 35.3356C31.543 35.491 31.8865 35.772 32.1154 36.1361L32.4089 36.6645C32.6318 37.0287 32.9752 37.3068 33.3818 37.4525C33.7884 37.5982 34.2335 37.6026 34.643 37.465L35.23 37.2567C35.6357 37.1123 36.0801 37.1123 36.4857 37.2567L37.0727 37.465C37.4796 37.6047 37.9233 37.6008 38.3278 37.4548C38.7324 37.3088 39.0727 37.0297 39.2905 36.6645L39.6003 36.1361C39.8183 35.7691 40.1579 35.4865 40.5625 35.3356L41.1495 35.1433C41.5564 34.9962 41.8981 34.7144 42.1155 34.346C42.3329 33.9776 42.4123 33.5459 42.3399 33.1261L42.2258 32.518C42.1448 32.0986 42.2262 31.6647 42.4541 31.3013L42.7476 30.7728C42.9676 30.4058 43.0474 29.974 42.9727 29.5545C42.898 29.1351 42.6737 28.7555 42.3399 28.4836L41.867 28.0994C41.5367 27.8259 41.3169 27.4456 41.2474 27.0269L41.1332 26.4344C41.0572 26.0158 40.8348 25.6366 40.5044 25.3619C40.1739 25.0871 39.7561 24.9342 39.3231 24.9296H38.7035C38.2688 24.9343 37.8467 24.7867 37.513 24.5133L37.0401 24.1131C36.7086 23.8408 36.2901 23.6918 35.8579 23.6918C35.4256 23.6918 35.0072 23.8408 34.6756 24.1131L34.2027 24.5133C33.8676 24.7843 33.4464 24.9316 33.0123 24.9296H32.3926C31.9587 24.9311 31.5393 25.0827 31.2081 25.358C30.877 25.6332 30.6555 26.0145 30.5825 26.4344L30.4684 27.0269C30.3989 27.4456 30.1791 27.8259 29.8487 28.0994L29.3758 28.4836M40.8071 25.0738L41.1006 24.5774C41.3067 24.23 41.3805 23.8222 41.3088 23.4264C41.2371 23.0306 41.0246 22.6724 40.7092 22.416L40.2689 22.0478C39.9596 21.7865 39.7474 21.4319 39.6656 21.0394L39.5677 20.479C39.5015 20.0948 39.3038 19.7444 39.0074 19.4854C38.7109 19.2264 38.3334 19.0743 37.937 19.0543H37.35C36.9424 19.0616 36.5468 18.9189 36.2411 18.6541L35.7845 18.2859C35.4848 18.0204 35.0955 17.8731 34.6919 17.8731C34.2883 17.8731 33.899 18.0204 33.5993 18.2859M34.1864 37.5607C34.1864 37.5607 28.7072 37.5608 28.3974 50M25.6252 42.7638C26.2775 37.2726 29.2617 35.8801 29.2617 35.8801M14.3407 24.1131L14.8136 24.5133C15.143 24.7831 15.5587 24.9305 15.9877 24.9296H16.6074C17.0424 24.9335 17.4624 25.0858 17.7956 25.3603C18.1287 25.6348 18.3544 26.0145 18.4338 26.4344L18.5316 27.0269C18.6081 27.4469 18.8334 27.8267 19.1676 28.0994L19.6405 28.4836C19.9715 28.7574 20.1938 29.1367 20.2683 29.5553C20.3429 29.9739 20.2649 30.405 20.0482 30.7728L19.7383 31.3013C19.5232 31.6694 19.4481 32.1006 19.5263 32.518L19.6242 33.1261C19.6998 33.5462 19.6219 33.9792 19.4041 34.3483C19.1863 34.7174 18.8426 34.9988 18.4338 35.1433L17.863 35.3356C17.4585 35.4865 17.1189 35.7691 16.9009 36.1361L16.5911 36.6645C16.3704 37.0309 16.0272 37.3108 15.6198 37.4568C15.2125 37.6027 14.7662 37.6057 14.357 37.465L13.7863 37.2567C13.375 37.1125 12.9256 37.1125 12.5143 37.2567L11.9436 37.465C11.5343 37.6057 11.0881 37.6027 10.6808 37.4568C10.2734 37.3108 9.9302 37.0309 9.70949 36.6645L9.39968 36.1361C9.18168 35.7691 8.84207 35.4865 8.43754 35.3356L7.85049 35.1433C7.4447 34.9959 7.10469 34.7132 6.89002 34.3444C6.67535 33.9756 6.59971 33.5442 6.67638 33.1261L6.77424 32.518C6.85248 32.1006 6.77736 31.6694 6.56224 31.3013L6.2524 30.7728C6.0324 30.4058 5.9526 29.974 6.02729 29.5545C6.10199 29.1351 6.3263 28.7555 6.66008 28.4836L7.133 28.0994C7.46199 27.8224 7.68608 27.4445 7.76897 27.0269L7.86681 26.4344C7.94622 26.0145 8.17184 25.6348 8.50502 25.3603C8.83821 25.0858 9.25823 24.9335 9.69319 24.9296H10.3129C10.7419 24.9305 11.1576 24.7831 11.487 24.5133L11.9599 24.1131C12.2954 23.8425 12.7161 23.6945 13.1503 23.6945C13.5845 23.6945 14.0052 23.8425 14.3407 24.1131Z" stroke="#E3FEF7" stroke-linecap="round" stroke-linejoin="round"/>
</svg>
