<svg width="250" height="250" viewBox="0 0 250 250" fill="none" xmlns="http://www.w3.org/2000/svg">
<path fill-rule="evenodd" clip-rule="evenodd" d="M142.03 207.261C166.173 207.261 187.36 189.303 175.461 164.91C163.563 140.517 207.773 141.305 220.76 124.446C236.598 103.886 232.011 16.6128 130.338 69.819C114.051 78.342 72.2227 61.0508 58.3481 69.6304C42.0163 79.7294 19.0383 100.409 42.0163 121.592C53.3348 132.026 12.7553 159.109 30.5283 183.369C47.8703 207.04 60.0267 184.474 86.4296 189.303C112.833 194.131 124.099 207.261 142.03 207.261Z" fill="#77B0AA"/>
<path d="M114.007 164.825C114.007 164.825 119.566 162.21 121.642 160.391C123.717 158.572 126.297 154.052 126.297 154.052C126.297 154.052 154.638 174.52 173.118 171.6C177.375 170.927 185.672 168.097 186.201 163.111C187.645 149.494 167.657 146.015 172.023 139.11C174.688 134.895 182.968 141.168 182.968 141.168L217.307 158.059C217.307 158.059 205.444 187.302 176.654 188.474C141.239 189.915 114.007 164.825 114.007 164.825Z" fill="white"/>
<path fill-rule="evenodd" clip-rule="evenodd" d="M86.7818 50.3017C86.4595 50.1752 84.7286 48.0558 82.5312 47.6701C81.5327 47.4948 82.439 48.7663 81.34 48.7777C78.067 48.8118 72.748 48.1969 71.7627 48.7777C71.0304 49.208 72.6432 50.7113 71.7627 50.7803C63.4555 51.4315 50.7823 59.7259 48.0327 63.7499C47.1576 65.0306 54.2348 62.8578 53.1072 63.4909C51.8416 64.2015 50.438 68.8544 49.5988 72.4479C49.0178 74.9225 48.652 78.1073 48.5228 81.5717C48.4153 84.5628 48.4583 85.0577 48.8887 86.6931C49.3836 88.5221 49.7709 89.0601 50.438 88.8019C50.6747 88.7158 50.7823 88.393 50.7823 87.7905C50.7823 87.3171 51.0405 85.8969 51.3633 84.6273L51.9227 82.3464L52.1595 83.2932C52.4607 84.3906 54.2252 87.7905 55.8176 90.2651C55.9034 90.3965 56.2729 90.2294 56.6061 89.4241C56.9098 88.6902 56.7866 87.5177 57.3023 86.2612C58.4773 83.3989 60.7842 79.6775 63.4555 76.6986C67.4034 72.296 68.7132 67.2009 72.414 63.111C79.3203 55.4783 87.9883 50.7754 86.7818 50.3017Z" fill="white"/>
<path fill-rule="evenodd" clip-rule="evenodd" d="M53.2054 64.5295C52.0975 65.4203 50.453 72.6464 50.4248 72.7672C49.8438 75.2418 49.2837 83.8353 49.8562 85.4622C50.4287 87.0892 52.0317 81.2243 52.0317 81.2243C52.0317 81.2243 54.4545 87.5158 56.5954 89.2408C56.6869 89.3145 54.0507 81.4569 53.2054 76.8698C52.0895 70.8146 53.8359 64.0224 53.2054 64.5295Z" fill="#BEC4C4"/>
<path fill-rule="evenodd" clip-rule="evenodd" d="M94.499 191.084C96.5648 190.632 100.05 189.058 101.385 188.52C102.719 187.982 106.786 182.24 108.249 175.763C109.304 170.986 109.842 164.186 109.239 163.045C109.15 162.884 108.825 159.791 109.691 160.801C111.617 163.045 113.903 166.569 121.117 160.255C123.082 158.536 125.686 156.316 125 154.355C123.082 148.865 114.765 137.812 113.498 136.975C111.982 135.973 104.32 136.824 92.9176 133.459C79.9865 129.642 74.602 118.403 69.5416 119.866C65.4492 121.049 55.6443 128.32 53.1836 132.924C41.5665 154.661 55.6443 169.893 58.8504 174.268L61.9633 175.612L62.0708 178.388L62.2215 180.131C62.5012 183.466 62.6088 183.768 64.1151 184.887C67.8808 187.748 75.3046 190.417 82.0184 191.364C85.1385 191.794 91.9168 191.643 94.499 191.084Z" fill="white"/>
<path fill-rule="evenodd" clip-rule="evenodd" d="M63.1873 177.372L63.3379 179.115C63.6177 182.45 63.7253 182.751 65.2316 183.87C67.4531 185.559 70.9477 187.18 74.8186 188.42C77.5093 189.281 80.3818 189.959 83.1349 190.347C86.255 190.778 93.0333 190.627 95.6155 190.068C96.8919 189.791 86.3932 181.543 80.2083 183.87C75.4586 185.658 64.2638 172.025 68.8154 168.463C73.9214 164.467 64.565 148.709 64.2638 145.287C63.9625 141.866 62.7761 141.049 62.7415 141.169C62.7069 141.289 62.7069 141.698 62.8 142.684C63.2014 146.935 63.1873 177.372 63.1873 177.372Z" fill="#BEC4C4"/>
<path fill-rule="evenodd" clip-rule="evenodd" d="M62.0664 144.311C62.5181 144.223 62.9556 144.518 63.0436 144.969C64.6676 153.313 71.5372 158.962 83.821 161.915C96.1778 164.887 104.595 164.727 109.03 161.555C109.404 161.287 109.125 163.58 108.851 163.756C105.958 165.611 96.1237 168.378 84.3878 165.877C69.3822 162.678 62.3366 150.061 61.4076 145.288C61.3197 144.836 61.6146 144.399 62.0664 144.311Z" fill="#135D66"/>
<path fill-rule="evenodd" clip-rule="evenodd" d="M55.8093 129.257C56.2087 129.028 71.1126 146.109 91.5659 149.976C112.019 153.842 116.971 151.383 117.767 146.109C117.836 145.654 118.261 145.341 118.716 145.41C119.171 145.478 119.484 145.903 119.415 146.358C118.406 153.042 108.942 154.632 91.2855 151.619C73.8506 148.644 61.8972 141.575 55.4998 130.394C55.2713 129.995 55.4098 129.485 55.8093 129.257Z" fill="#135D66"/>
<path fill-rule="evenodd" clip-rule="evenodd" d="M141.655 128.31C141.095 128.116 140.493 127.686 140.105 127.191L139.46 126.394L141.741 124.135C145.248 120.692 147.938 117.163 150.262 112.967C151.037 111.568 152.995 106.899 152.995 106.447C152.995 106.296 153.232 105.694 153.511 105.07C153.942 104.166 154.264 103.822 155.19 103.305C156.287 102.66 157.535 102.445 158.073 102.81C159.106 103.499 159.106 105.672 158.073 109.416C156.933 113.526 155.405 116.475 152.242 120.714C151.747 121.359 150.821 122.629 150.154 123.511C148.368 125.878 147.206 127.019 145.636 127.901C144.086 128.762 143.182 128.869 141.655 128.31ZM157.105 126.373L158.654 127.062C158.975 127.21 162.519 128.913 166.777 130.958C173.64 134.256 182.357 138.445 182.41 138.445C182.497 138.445 182.9 137.511 182.991 136.422C183.207 134.077 184.003 130.892 184.928 128.675C185.358 127.686 185.703 126.448 185.703 126.341C185.703 126.292 185.353 126.151 184.78 125.92C184.098 125.645 183.101 125.242 182.002 124.716C176.579 122.112 165.97 116.797 164.658 116.001C163.367 115.248 163.108 115.183 163.108 115.678C163.108 116.324 161.796 119.315 160.784 120.929C160.247 121.811 159.192 123.403 158.439 124.458L157.105 126.373ZM182.045 134.571C182.662 134.929 181.593 135.454 181.335 135.54C179.814 135.669 178.024 135.383 176.557 134.528C175.791 133.985 169.752 130.63 165.747 128.405C163.916 127.388 162.51 126.606 162.226 126.438C161.322 125.9 160.462 125.319 160.311 125.146C159.859 124.565 160.29 124.307 161.559 124.415C162.322 124.479 180.712 133.799 182.045 134.571ZM100.449 188.764L100.45 188.764L100.452 188.763L100.452 188.763C100.852 188.594 101.197 188.448 101.458 188.343C102.793 187.805 106.859 182.063 108.323 175.585C109.377 170.808 109.915 164.009 109.312 162.868C108.949 162.208 111.108 164.423 112.715 166.074C113.202 166.574 113.639 167.022 113.939 167.322C123.321 176.64 137.286 184.128 151.79 187.636C159.02 189.4 164.163 190.024 171.07 190.024C182.669 190.024 191.814 187.743 200.12 182.73C200.508 182.496 200.871 182.28 201.218 182.075L201.223 182.072L201.236 182.064L201.237 182.064C204.132 180.35 205.857 179.328 210.578 174.015C215.873 168.054 220.584 154.218 222.155 149.441C222.843 147.289 224.522 138.73 224.522 136.594C224.522 134.066 223.64 132.872 222.435 131.645C220.304 129.558 217.421 128.805 215.032 129.708L213.913 130.139L213.569 128.998C213.074 127.277 212.041 125.9 210.449 124.867C208.082 123.296 207.738 123.188 205.607 123.188C203.95 123.188 203.498 123.274 202.444 123.769L201.217 124.329L200.959 123.554C200.464 121.962 198.804 119.742 197.516 119.1C196.374 118.53 194.397 118.478 193.019 118.734C190.006 119.293 187.855 120.692 186.972 122.65C186.714 123.253 186.391 123.726 186.262 123.726C186.155 123.726 181.915 122.542 176.859 120.304C176.007 119.926 175.207 119.572 174.456 119.239L174.452 119.237C165.371 115.212 163.403 114.34 163.582 113.247C163.732 112.321 163.689 111.805 163.431 111.009C162.979 109.675 162.463 109.309 161 109.309C159.838 109.309 159.838 109.309 159.967 108.728C160.655 105.436 160.634 103.542 159.902 102.337C159.407 101.541 158.826 101.218 157.492 101.024C156.717 100.917 156.352 100.981 155.491 101.455C154.91 101.756 154.415 101.971 154.372 101.928C154.329 101.885 154.48 100.702 154.716 99.3028C156.481 88.9525 155.118 80.0347 150.62 70.5666C150.577 70.476 150.527 70.3689 150.47 70.2462C149.103 67.3109 143.605 55.508 127.883 49.5524C127.172 49.2832 126.5 49.0229 125.853 48.7727L125.851 48.7717L125.851 48.7716C120.495 46.6986 116.935 45.3205 108.344 45.3348C98.7157 45.3508 95.4547 46.7119 89.1067 49.6169C88.2245 50.0258 87.4498 50.2625 87.3853 50.1764C87.3207 50.0688 86.9119 49.8106 86.503 49.5954C86.0942 49.3802 85.2119 48.8423 84.5664 48.4119C82.7158 47.1638 81.5753 46.6474 80.9943 46.7765C80.3272 46.9486 80.3272 47.5081 80.9943 47.7663C81.2741 47.8739 81.5968 48.2397 81.7259 48.6056C82.0057 49.3802 82.3285 49.4663 82.5221 48.8207C82.6082 48.584 82.7373 48.4119 82.8019 48.4549C82.8263 48.4671 82.9079 48.5053 83.0324 48.5636L83.0332 48.564L83.0333 48.564C83.3478 48.7113 83.9351 48.9862 84.5664 49.2941C85.4486 49.7245 86.4169 50.1764 86.6752 50.284C87.1486 50.4561 86.9979 50.5852 84.9537 51.7903C76.9704 56.4813 70.4718 63.776 66.8352 72.0821C66.2758 73.3302 65.7808 74.1048 65.2644 74.5352C63.9518 75.6326 61.3696 78.7528 60.767 79.9794C60.4443 80.6464 59.7557 81.6793 59.2177 82.2818C58.7013 82.8843 58.1418 83.659 57.9481 83.9818C57.776 84.3261 57.6038 84.5628 57.5393 84.5197C57.4963 84.4552 57.5608 83.4008 57.7114 82.1742C58.0342 79.3123 58.0342 78.5591 57.776 78.4946C57.3887 78.387 56.8292 79.8933 56.5925 81.7654C56.4203 82.9058 56.3773 84.6273 56.4849 86.3918L56.614 89.1892L55.0862 86.7146C54.56 85.8858 54.0418 85.0571 53.6743 84.4692L53.6742 84.469C53.4406 84.0954 53.2678 83.8191 53.1926 83.702C52.6331 82.8843 52.3103 81.6578 52.547 81.2489C52.6761 81.0122 52.6546 80.9046 52.4394 80.9046C51.9876 80.9046 51.1053 82.3464 50.5243 84.0033C50.2446 84.7779 49.9648 85.4235 49.8788 85.4235C49.556 85.4235 49.7066 77.7199 50.0509 75.2453C50.761 70.3606 52.6331 64.3355 53.4723 64.3355C53.6445 64.3355 53.7951 64.2494 53.7951 64.1203C53.7951 63.733 53.2356 63.8836 52.7837 64.3785C51.7724 65.476 50.4382 68.8544 49.599 72.4479C49.018 74.9225 48.6522 78.1073 48.5231 81.5717C48.4155 84.5628 48.4585 85.0577 48.8889 86.6931C49.3838 88.5221 49.7712 89.0601 50.4382 88.8019C50.6749 88.7158 50.7825 88.393 50.7825 87.7905C50.7825 87.3171 51.0407 85.8969 51.3635 84.6273L51.923 82.3464L52.1597 83.2932C52.461 84.3906 54.2255 87.7905 55.8178 90.2651C56.9153 91.9436 56.9368 92.0512 57.3026 94.6764C57.4963 96.1612 58.0988 99.7726 59.4975 105.328C60.7333 110.237 67.6808 115.106 69.4155 116.322C69.6441 116.482 69.7822 116.579 69.8048 116.604C70.02 116.84 70.3212 116.969 70.4934 116.905C70.687 116.84 70.7946 116.926 70.7946 117.163C70.7946 117.378 70.9452 117.658 71.1174 117.787C71.3326 117.938 71.4832 118.519 71.5262 119.53C71.6338 121.553 73.1401 125.426 74.3021 126.696C75.0552 127.513 76.6261 127.858 78.3691 127.556C79.5096 127.384 79.8323 127.255 79.7247 126.997C79.6602 126.825 80.069 127.04 80.6285 127.47C87.1701 132.463 93.7978 135.454 101.243 136.745C104.127 137.24 108.904 137.519 111.507 137.326C113.81 137.175 113.81 137.175 113.702 137.627C113.552 138.23 113.745 138.595 116.908 143.953C119.426 148.193 119.641 148.472 122.439 151.334C128.378 157.467 134.855 162.223 142.193 165.902C149.1 169.345 160.128 172.207 170.209 173.111C180.291 174.015 187.532 164.762 187.51 162.395C187.467 159.145 187.015 157.015 185.918 154.949C184.842 152.948 184.132 152.26 180.904 150.108C177.311 147.719 175.094 145.761 173.631 143.674C172.706 142.361 172.361 140.876 172.361 140.08C172.361 139.564 173.028 138.402 174.018 138.165C174.922 137.928 175.094 137.95 176.106 138.445C176.708 138.725 178.279 139.456 179.57 140.08C180.883 140.683 182.152 141.285 182.41 141.414C183.172 141.626 183.494 143.116 183.668 143.924L183.668 143.924C183.707 144.104 183.739 144.25 183.766 144.341C184.067 145.46 185.493 146.905 186.413 147.396C188.028 148.26 192.008 148.376 193.105 147.192C193.385 146.891 194.313 146.521 194.504 146.633C194.695 146.745 195.386 147.676 195.386 148.429C195.408 149.72 196.075 150.904 197.495 152.087C200.185 154.325 202.272 154.863 204.381 153.873C205.478 153.357 206.378 153.155 206.378 153.155C206.378 153.155 207.275 154.3 207.329 154.691C207.751 157.749 212.278 159.03 213.483 159.159C213.759 159.187 214.296 159.069 214.842 158.949C215.572 158.788 216.317 158.625 216.474 158.801C216.781 159.148 211.331 168.162 210.578 169.302C203.412 180.061 189.468 186.646 172.404 187.335C161.322 187.786 147.701 184.688 135.888 179.05C128.335 175.413 121.643 170.959 114.477 164.719C113.229 163.643 111.787 162.416 111.271 161.986C110.754 161.577 109.528 160.178 108.581 158.887C106.989 156.735 106.085 155.961 106.085 156.692C106.085 157.015 107.118 158.995 108.301 160.953C108.775 161.728 109.076 162.266 108.968 162.18C108.861 162.093 108.516 163.643 108.194 165.622C107.139 171.97 105.396 178.232 103.632 182.127C102.663 184.236 100.807 185.811 100.247 186.241C98.1814 187.812 95.0889 188.518 90.8067 188.948C85.3841 189.486 77.4008 188.281 71.3111 186C69.6972 185.398 65.5441 183.655 65.2644 183.461C65.2476 183.444 65.1523 182.825 65.0192 181.961L65.0184 181.956C64.9811 181.714 64.9409 181.453 64.8986 181.18C64.1239 175.865 63.048 155.401 63.048 145.933C63.048 142.017 63.005 141.156 62.7467 141.156C62.2088 141.156 61.9936 141.673 61.7569 143.523C61.2189 147.741 61.3265 169.754 61.9075 174.38L62.0366 175.435L61.305 175.026C60.1861 174.38 55.9254 170.055 54.4406 168.054C53.1837 166.343 52.4366 164.152 51.8777 162.513C51.7477 162.131 51.6278 161.78 51.5141 161.471C48.394 152.821 49.4914 143.114 53.7951 134.378C57.4532 126.932 61.9506 122.801 68.5352 120.8C69.6111 120.477 70.5579 120.133 70.6655 120.047C71.0744 119.659 68.4491 119.853 67.0074 120.305C62.3164 121.747 57.4102 125.684 54.0748 130.72C49.3838 137.778 47.275 148.193 48.7598 157.08C49.1041 159.188 50.5028 163.75 50.8901 164.073C50.9244 164.107 51.1014 164.479 51.369 165.04L51.3691 165.04L51.3691 165.04L51.3692 165.041L51.3692 165.041C52.1094 166.593 53.5426 169.6 54.5698 170.959C55.8178 172.659 59.5835 176.36 61.1544 177.501L62.1442 178.211L62.2949 179.954C62.5746 183.289 62.6822 183.59 64.1885 184.709C67.9542 187.571 75.378 190.24 82.0918 191.186C85.2119 191.617 91.9902 191.466 94.5724 190.907C96.2318 190.544 98.8072 189.457 100.448 188.764L100.449 188.764L100.449 188.764ZM167.305 170.701C154.802 169.603 139.696 163.642 128.765 154.433C124.16 150.538 118.178 142.964 115.811 138.768C115.316 137.907 114.95 137.498 114.52 137.39C114.068 137.261 114.455 137.132 116.306 136.831C124.117 135.497 131.713 132.247 137.846 127.621L138.75 126.954L139.008 127.578C139.589 128.977 141.827 130.397 143.484 130.397C144.151 130.397 146.389 129.386 147.744 128.46L148.67 127.836L149.423 128.589C150.111 129.278 150.24 129.321 151.532 129.321C153.016 129.321 154.802 128.654 155.792 127.707L156.33 127.212L157.858 128.224C158.676 128.805 160.957 130.074 162.915 131.085C165.841 132.592 168.94 134.335 171.888 136.142L172.361 136.444L171.909 137.046C171.436 137.692 170.554 138.918 170.554 140.79C170.554 142.899 172.747 146.688 176.945 149.29C180.243 151.334 185.918 155.355 185.703 161.233C185.677 161.943 184.885 163.707 183.831 165.3C183.142 166.311 181.227 167.817 179.484 168.7C176.514 170.184 171.285 171.045 167.305 170.701ZM52.5685 74.1048C53.1495 74.2339 53.5369 74.4276 53.4508 74.5137C53.1711 74.7934 51.6863 74.6643 51.342 74.32C50.804 73.8036 50.9332 73.4378 51.6863 73.2871C52.0736 73.2226 52.6546 72.8998 52.9774 72.577C53.3002 72.2543 53.5799 72.1036 53.5799 72.2112C53.5799 72.491 52.504 73.4808 51.966 73.696C51.6217 73.8466 51.7293 73.9112 52.5685 74.1048ZM61.1329 74.4491C61.7569 74.1048 61.6278 73.8681 60.8962 73.9757C60.1645 74.0833 60.1215 73.9972 60.5949 73.2656C60.7886 72.9859 60.8962 72.577 60.8531 72.3618C60.7886 72.0821 60.6379 72.2112 60.2936 72.8998C60.0354 73.3947 59.6696 73.8036 59.4975 73.8036C58.9595 73.8036 58.9165 74.2339 59.4329 74.4276C60.1 74.7073 60.6164 74.7073 61.1329 74.4491ZM53.6875 62.7001C53.1711 62.7862 51.5572 63.4317 50.137 64.1418C48.6952 64.8304 47.4687 65.4114 47.3826 65.3899C45.1877 65.1532 48.2434 61.4951 53.7951 57.7509C59.1101 54.1573 62.7037 52.2637 66.0391 51.2954C68.1263 50.6928 70.4718 50.6068 71.1389 51.1017C71.5047 51.3814 71.3756 51.4029 69.7833 51.4245C66.3403 51.4245 62.3594 53.189 55.8824 57.5142C52.5255 59.7521 48.6307 62.9583 48.6307 63.4748C48.6307 63.5823 49.2547 63.3672 50.0294 63.0229C51.6863 62.2697 53.3862 61.8824 54.1394 62.0545C54.9356 62.2697 54.7634 62.5495 53.6875 62.7001ZM62.0151 64.5507C64.0378 64.1418 64.1239 64.1203 64.1239 63.9051C64.1239 63.7975 63.3493 63.6899 62.3809 63.6469L60.6379 63.5823L62.2518 61.7533C63.1341 60.7419 64.167 59.7306 64.5328 59.4939C65.3289 58.9774 65.372 58.6116 64.7264 58.3964L64.2315 58.2458L64.7695 58.0521C65.0707 57.9445 65.6302 57.9015 66.0175 57.9661C66.5985 58.0521 66.7276 58.0091 66.6631 57.7078C66.5985 57.4066 66.3618 57.342 65.3074 57.3635C62.2303 57.4066 60.9177 58.2243 63.3277 58.6116C63.9948 58.7192 64.5543 58.8913 64.5543 58.9989C64.5543 59.085 64.4467 59.1711 64.3176 59.1711C63.9087 59.1711 60.4443 62.6786 60.0139 63.5393C59.3468 64.8089 59.7126 65.0026 62.0151 64.5507ZM76.2172 56.2015C75.5932 56.2446 75.4426 56.3522 75.4856 56.6534L75.4922 56.6973C75.5164 56.8564 75.5303 56.9479 75.4946 56.9756C75.4465 57.0131 75.308 56.9346 74.9826 56.75L74.9261 56.718C74.5173 56.5028 74.4743 56.3952 74.711 56.2231C74.8616 56.094 75.2704 55.9003 75.5932 55.8357L76.1957 55.6851L75.7438 55.2117C75.5071 54.932 75.378 54.6737 75.4426 54.5877C75.6147 54.4155 77.7235 54.6522 78.0248 54.8889C78.1539 54.9965 78.3476 54.975 78.4767 54.8459C78.7779 54.5446 79.1868 54.7813 79.1868 55.2547C79.1868 55.513 79.1222 55.5345 78.9286 55.3408C78.7564 55.1687 78.6058 55.1687 78.4121 55.3193C78.24 55.4699 78.1109 55.4699 78.0033 55.2978C77.9387 55.1902 77.5299 55.0826 77.0995 55.0826C76.7025 55.0826 76.5147 55.0826 76.4764 55.1583C76.442 55.2261 76.5279 55.3548 76.6906 55.599C77.0339 56.1353 77.0136 56.137 76.2246 56.201L76.2172 56.2015ZM72.9464 50.4777C72.9464 50.1979 72.6882 49.703 72.3655 49.3802L71.7629 48.7777L74.9907 48.9068C76.7767 48.9929 78.7994 49.1866 79.5096 49.3802C80.2197 49.5524 81.0374 49.6815 81.3386 49.6815C81.7905 49.6815 81.7044 49.5954 80.8652 49.1435C79.402 48.3904 77.5299 48.0246 73.9363 47.7663C69.6326 47.4651 67.4593 47.8739 67.8681 48.9499C67.9327 49.165 68.277 49.2726 68.7934 49.2726C69.8478 49.2726 71.5693 49.8967 72.1503 50.4777C72.7743 51.1017 72.9464 51.1017 72.9464 50.4777ZM62.4455 107.458C64.1885 109.696 66.4909 112.235 67.5669 113.096C68.2124 113.613 68.7719 114.043 68.8149 114.043C68.8364 114.043 68.363 113.053 67.7605 111.848C65.3289 107.006 63.9087 102.186 63.2417 96.6346C63.091 95.408 62.8543 94.3751 62.5961 93.9448C62.0797 93.084 62.0797 91.9651 62.6176 90.9107C62.8974 90.3512 63.048 89.6411 63.048 88.8664V87.6829L62.0151 88.7588C61.0038 89.8132 60.0354 90.2436 60.0354 89.5981C60.0354 89.1247 61.6278 86.8437 62.467 86.1336C63.1341 85.5741 63.2201 85.3805 63.4353 83.702C63.586 82.6907 63.9303 80.9046 64.21 79.7211C64.5112 78.5376 64.6834 77.5263 64.6404 77.4832C64.4897 77.3326 59.4329 83.1403 58.7443 84.9931C58.5931 85.3999 58.1848 86.1121 57.8621 86.5425L57.3026 87.2608C57.3026 87.2608 57.4764 88.2667 57.6684 89.5308C57.8624 90.8081 57.9534 91.6861 58.0345 92.4681C58.143 93.5142 58.2336 94.3885 58.5291 95.8169C58.8734 97.5814 59.2177 99.1092 59.3038 99.2168C59.3684 99.3459 59.6481 100.336 59.9278 101.433C60.5303 103.865 61.5417 106.275 62.4455 107.458ZM149.767 127.815L149.315 127.363C149.315 127.363 156.815 117.834 158.159 114.323C159.185 111.643 159.788 110.883 160.603 110.883C161.058 110.883 161.43 110.987 161.602 111.246C161.903 111.697 162.194 112.257 161.806 114.172C161.161 117.271 160.171 119.315 157.201 123.726C156.513 124.738 155.631 125.857 155.243 126.244C154.34 127.083 152.306 127.944 151.123 128.137C150.37 128.245 150.154 128.202 149.767 127.815Z" fill="#23262F"/>
<path d="M209.351 148.865C212.029 141.571 211.623 140.017 211.159 139.865C211.159 139.865 210.137 140.446 209.685 141.673C208.846 143.975 205.973 150 204.897 151.076C203.628 152.346 203.628 152.346 202.336 152.346C201.045 152.346 197.322 150.401 196.815 148.485C196.004 145.418 199.496 134.765 199.582 134.163L199.001 133.754C198.614 134.12 193.576 149.398 186.951 145.417C186.192 144.961 184.584 142.813 184.455 141.673C183.738 138.359 187.028 126.771 187.587 124.391C188.088 122.261 190.695 120.283 193.901 120.283C198.829 120.283 198.167 124.591 200.374 126.109C201.352 126.781 202.96 125.562 203.455 125.469C206.231 124.953 207.295 125.554 209.33 127.169C210.901 128.416 212.063 130.883 213.342 131.753C214.053 132.235 214.807 131.575 215.054 131.451C216.066 130.943 218.239 131.322 218.841 131.753C219.724 132.138 221.889 134.218 222.231 135.428C223.781 140.913 218.887 153.072 217.039 155.353C213.981 159.129 206.674 156.159 209.351 148.865Z" fill="white"/>
<path fill-rule="evenodd" clip-rule="evenodd" d="M85.6425 128.879C91.5385 132.602 97.6181 135.033 104.547 135.7C110.013 136.217 117.382 135.507 122.676 133.785C127.13 132.343 133.155 128.349 137.179 124.971C144.99 118.429 149.918 108.211 152.07 97.3662C152.371 95.8384 152.83 91.998 152.809 88.1892C152.809 83.7564 150.858 71.6429 144.947 64.6583C132.756 50.2525 112.716 43.7631 95.874 49.3079C89.7985 51.3081 83.3299 54.932 78.4452 59.666C72.2909 65.6696 67.7506 73.8466 65.943 82.1957C64.0494 91.0183 66.5127 101.562 70.7948 110.213C74.2162 117.099 79.8541 125.199 85.6425 128.879ZM143.097 102.875C139.051 115.033 128.507 124.114 115.252 126.868C113.229 127.277 111.83 127.427 108.99 127.47C106.989 127.535 104.988 127.513 104.579 127.47C95.3042 126.351 88.2462 122.93 81.7477 116.431C78.9072 113.57 77.7022 112.02 75.9377 108.965C73.1618 104.123 71.6771 99.1737 71.2252 93.2132C69.6759 72.7922 84.2868 55.7712 104.858 54.0067C112.928 53.3181 121.879 55.7927 128.679 60.6128C131.197 62.3988 135.759 66.9177 137.179 69.0265C137.76 69.8657 143.398 78.1073 144.388 82.8413C145.657 88.9956 145.162 96.6991 143.097 102.875Z" fill="white"/>
<path fill-rule="evenodd" clip-rule="evenodd" d="M152.817 88.1892C152.817 102.633 145.984 118.423 137.167 125.167C132.96 128.384 127.463 132.28 122.676 133.785C115.66 135.991 104.547 135.7 104.547 135.7C104.547 135.7 115.884 134.185 120.086 132.494C132.133 127.645 138.71 120.203 142.771 113.061C150.787 98.965 152.817 87.8383 152.817 88.1892Z" fill="#BEC4C4"/>
<path fill-rule="evenodd" clip-rule="evenodd" d="M104.794 124.888C99.0485 124.157 93.3461 122.112 88.7412 119.078C86.0083 117.292 81.8768 113.096 79.8756 110.105C77.0137 105.801 75.12 101.196 74.1948 96.2472C73.5277 92.6537 73.5492 87.1235 74.2163 83.9172C74.9049 80.6464 75.7871 78.1503 77.358 74.9871C79.187 71.329 81.1237 68.6392 84.0286 65.7342C88.9779 60.785 94.7233 57.6433 101.566 56.137C103.783 55.6636 111.809 55.2763 112.089 55.6421C112.153 55.7497 112.584 56.0294 113.035 56.2661C113.487 56.5243 114.692 57.4281 115.682 58.3104C117.167 59.6015 117.834 60.4192 119.125 62.4419C120.007 63.8191 120.717 65.0671 120.717 65.1747C120.717 65.4114 121.406 65.8418 121.793 65.8418C122.331 65.8418 122.697 64.2279 122.805 61.3875C122.869 59.8166 122.998 58.5255 123.084 58.5255C123.386 58.5255 126.7 60.3546 128.249 61.3875C131.283 63.4102 134.317 66.2506 136.555 69.2202C137.566 70.5543 137.717 70.8986 137.717 71.7163C137.717 72.4694 137.932 73.0504 138.599 74.2124C140.278 77.1389 141.59 80.8186 142.386 84.8855C142.903 87.6184 142.903 92.7828 142.365 95.6447C140.902 103.52 136.555 111.353 130.896 116.324C126.097 120.52 120.997 123.102 114.972 124.372C112.906 124.824 106.709 125.125 104.794 124.888ZM89.4082 110.17C89.6019 109.954 89.731 109.632 89.6665 109.481C89.6471 109.436 89.3777 109.309 88.9833 109.124C88.0639 108.692 86.4655 107.94 85.7728 107.157C83.0185 104.015 82.0071 101.67 81.3831 96.8282C80.7806 92.1157 81.2868 88.9299 82.3729 83.8096C82.9028 81.3119 84.3111 79.2487 85.1873 77.9651C85.7831 77.0923 86.1328 76.58 85.7932 76.5364C84.9539 76.4073 84.8248 76.4719 83.9426 77.3111C82.049 79.1186 81.1882 80.5603 80.2845 83.3362C78.8858 87.6829 78.6155 99.4299 81.3831 104.725C84.1507 110.021 88.9133 110.729 89.4082 110.17ZM120.007 92.0942C119.642 95.437 118.092 100.271 116.285 102.38C115.445 103.37 112.365 105.07 109.765 104.725C107.253 104.393 105.289 103.219 103.61 100.702C102.169 98.5282 101.424 95.8901 100.921 92.5676C100.051 86.8303 103.847 80.1515 105.482 78.4946C107.139 76.7946 108.323 76.1921 109.829 76.1706C111.292 76.1706 112.239 76.4934 113.724 77.5478C116.435 79.4414 120.717 85.5985 120.007 92.0942ZM91.0006 74.2985C91.431 73.8036 91.4955 73.5669 91.3664 72.6416C91.2803 71.7809 91.1082 71.4366 90.6563 71.0707C89.8601 70.4252 88.8703 70.4252 88.1387 71.1138C87.6222 71.6087 87.5577 71.7809 87.6222 72.9644C87.6868 74.2339 87.7298 74.32 88.4399 74.7074C89.3867 75.2238 90.312 75.0732 91.0006 74.2985ZM104.428 61.0217C100.555 63.7975 98.8763 64.938 97.1333 66.0139C95.7562 66.8747 95.3258 66.8962 95.3258 66.1215C95.3258 65.7127 95.6271 65.2608 96.4017 64.5507L97.4776 63.5608L95.3904 63.2811C93.0449 62.9798 90.7639 62.3343 90.269 61.8394C89.4513 61.0001 90.1614 60.8065 92.4854 61.2368C93.5183 61.409 95.5195 61.6242 96.9397 61.6672L99.5219 61.7748L101.394 60.4191C105.504 57.4496 109.765 55.7712 111.809 56.2876C113.078 56.5889 112.928 56.9332 111.486 57.1053C109.829 57.299 108.818 57.8585 104.428 61.0217Z" fill="white"/>
<path d="M109.958 101.777C109.958 101.67 110.087 101.562 110.259 101.562C110.431 101.562 110.647 101.67 110.711 101.777C110.776 101.907 110.647 101.993 110.41 101.993C110.152 101.993 109.958 101.907 109.958 101.777Z" fill="white"/>
<path d="M111.249 101.584C111.249 101.347 111.787 101.132 112.389 101.132C112.863 101.153 112.863 101.153 112.454 101.455C111.981 101.821 111.249 101.885 111.249 101.584Z" fill="white"/>
<path d="M107.914 101.024C107.849 100.852 107.763 100.551 107.699 100.379C107.634 100.164 107.742 100.056 108.022 100.056C108.258 100.056 108.452 100.185 108.452 100.357C108.452 100.529 108.517 100.809 108.581 101.003C108.667 101.24 108.603 101.347 108.366 101.347C108.172 101.347 107.957 101.196 107.914 101.024Z" fill="white"/>
<path d="M109.054 100.486C108.947 99.8408 109.183 99.6256 109.958 99.6256C110.195 99.6256 110.388 99.8408 110.475 100.207C110.647 100.831 110.367 101.132 109.614 101.132C109.269 101.132 109.119 100.981 109.054 100.486Z" fill="white"/>
<path d="M106.86 100.594C106.451 100.271 106.451 100.271 106.903 100.271C107.182 100.271 107.376 100.4 107.376 100.594C107.376 100.981 107.376 100.981 106.86 100.594Z" fill="white"/>
<path d="M111.185 100.572C110.905 100.293 111.034 99.4535 111.378 99.3244C112.002 99.0877 112.282 99.1953 112.411 99.7547C112.497 100.078 112.54 100.357 112.497 100.379C112.325 100.572 111.314 100.702 111.185 100.572Z" fill="white"/>
<path d="M113.1 100.121C113.035 100.056 112.971 99.7763 112.971 99.518C112.971 99.1522 113.143 99.0016 113.659 98.894C114.111 98.8079 114.391 98.851 114.52 99.0231C114.735 99.3674 114.735 99.7978 114.542 99.9054C114.154 100.121 113.25 100.25 113.1 100.121Z" fill="white"/>
<path d="M105.87 99.4535C105.87 99.1953 106.063 98.9801 106.343 98.9155C106.903 98.7649 106.881 98.7434 106.989 99.3029C107.032 99.6256 106.924 99.7547 106.472 99.7978C105.999 99.8623 105.87 99.7763 105.87 99.4535Z" fill="white"/>
<path d="M107.505 99.475C107.204 99.1522 107.397 98.5497 107.806 98.5497C108.086 98.5497 108.237 98.7003 108.237 98.9586C108.237 99.3674 107.742 99.7117 107.505 99.475Z" fill="white"/>
<path d="M108.796 98.8295C108.624 98.4206 108.99 98.1194 109.7 98.1194C110.023 98.1194 110.173 98.2485 110.173 98.5282C110.173 98.7649 109.98 98.9801 109.7 99.0662C108.99 99.2383 108.947 99.2383 108.796 98.8295Z" fill="white"/>
<path d="M115.015 98.7649C115.08 98.6573 115.187 98.5497 115.252 98.5497C115.316 98.5497 115.295 98.6573 115.23 98.7649C115.166 98.894 115.058 98.9801 114.994 98.9801C114.929 98.9801 114.951 98.894 115.015 98.7649Z" fill="white"/>
<path d="M110.733 98.3991C110.561 97.9687 110.776 97.7535 111.464 97.6459C111.852 97.6029 112.024 97.689 112.067 97.9902C112.218 98.7004 110.991 99.0877 110.733 98.3991Z" fill="white"/>
<path d="M105.568 98.0333C105.375 97.3232 105.418 97.2586 105.977 97.2586C106.278 97.2586 106.515 97.3447 106.515 97.4523C106.515 97.5599 106.58 97.7966 106.644 97.9687C106.709 98.1839 106.58 98.313 106.214 98.3776C105.805 98.4636 105.654 98.3776 105.568 98.0333Z" fill="white"/>
<path d="M112.755 97.7966C112.755 97.4092 112.906 97.2371 113.315 97.1295C113.917 96.9789 114.262 97.2801 114.262 97.9687C114.262 98.2485 114.09 98.3345 113.509 98.3345C112.841 98.3345 112.755 98.27 112.755 97.7966Z" fill="white"/>
<path d="M104.923 97.7966C104.858 97.6244 104.901 97.4738 105.009 97.4738C105.138 97.4738 105.224 97.6244 105.224 97.7966C105.224 97.9687 105.181 98.1193 105.138 98.1193C105.095 98.1193 105.009 97.9687 104.923 97.7966Z" fill="white"/>
<path d="M107.096 97.9687C106.795 97.689 106.967 97.0865 107.355 96.9789C107.591 96.9143 107.828 96.9358 107.892 97.0004C108.151 97.2371 108 97.8611 107.677 97.9902C107.268 98.1409 107.268 98.1409 107.096 97.9687Z" fill="white"/>
<path d="M114.778 97.8181C114.541 97.194 114.8 96.7206 115.402 96.6561C115.854 96.5915 115.983 96.6776 115.983 97.0219C115.983 97.732 115.746 98.1193 115.316 98.1193C115.079 98.1193 114.843 97.9902 114.778 97.8181Z" fill="white"/>
<path d="M108.602 97.5383C108.344 97.3016 108.43 96.8713 108.796 96.7422C109.205 96.5915 110.066 97.0219 109.829 97.2586C109.528 97.5168 108.753 97.7105 108.602 97.5383Z" fill="white"/>
<path d="M110.474 97.0004C110.281 96.6991 110.969 96.1827 111.529 96.1827C111.787 96.1827 111.894 96.3118 111.851 96.5485C111.765 96.9789 110.668 97.3232 110.474 97.0004Z" fill="white"/>
<path d="M104.578 96.8498C104.578 96.7422 104.514 96.5055 104.449 96.3118C104.385 96.1181 104.406 95.9675 104.535 95.9675C104.815 95.9675 105.03 96.7852 104.772 96.9573C104.664 97.0219 104.578 96.9789 104.578 96.8498Z" fill="white"/>
<path d="M105.159 96.3548C105.03 95.8814 105.289 95.5371 105.784 95.5371C106.063 95.5371 106.343 96.3764 106.171 96.6561C105.934 97.0219 105.267 96.8067 105.159 96.3548Z" fill="white"/>
<path d="M106.666 96.4624C106.343 96.1396 106.536 95.365 106.967 95.2574C107.29 95.1713 107.462 95.2789 107.634 95.6662C107.763 95.946 107.828 96.2257 107.785 96.2688C107.569 96.4624 106.795 96.6131 106.666 96.4624Z" fill="white"/>
<path d="M112.476 96.4624C112.196 96.1827 112.325 96.0105 112.971 95.7738C113.509 95.6017 113.659 95.6232 113.767 95.8814C113.961 96.3979 112.885 96.8928 112.476 96.4624Z" fill="white"/>
<path d="M114.369 95.9675C114.154 95.6232 114.455 95.322 115.015 95.322C115.682 95.322 115.875 95.8814 115.273 96.0536C114.627 96.2257 114.52 96.2042 114.369 95.9675Z" fill="white"/>
<path d="M116.198 95.4511C116.198 95.1283 116.586 94.784 116.758 94.9561C116.908 95.1068 116.607 95.7523 116.392 95.7523C116.284 95.7523 116.198 95.6232 116.198 95.4511Z" fill="white"/>
<path d="M104.299 95.1713C104.213 95.1068 104.148 94.827 104.17 94.5903C104.17 94.1815 104.191 94.1815 104.385 94.6549C104.6 95.1713 104.557 95.4295 104.299 95.1713Z" fill="white"/>
<path d="M104.708 94.8486C104.514 94.0954 104.535 94.0309 105.095 94.0309C105.719 94.0309 106.106 94.827 105.633 95.1283C105.138 95.4295 104.858 95.3435 104.708 94.8486Z" fill="white"/>
<path d="M112.11 95.2789C112.11 95.2144 112.217 94.8701 112.347 94.4827C112.648 93.622 113.315 93.579 113.466 94.4182C113.53 94.741 113.552 95.0207 113.53 95.0422C113.422 95.1713 112.11 95.365 112.11 95.2789Z" fill="white"/>
<path d="M106.236 94.741C106.15 94.6764 106.085 94.4182 106.085 94.1815C106.085 93.8372 106.15 93.8157 106.408 94.0309C106.58 94.1815 106.731 94.4397 106.731 94.5903C106.731 94.9131 106.472 94.9992 106.236 94.741Z" fill="white"/>
<path d="M113.982 94.3106C113.853 93.6435 114.132 93.3423 114.8 93.4283C115.122 93.4714 115.23 93.665 115.23 94.1385C115.23 94.6764 115.144 94.8055 114.67 94.8486C114.197 94.9131 114.089 94.8055 113.982 94.3106Z" fill="white"/>
<path d="M116.091 94.3967C115.811 93.5359 115.897 93.2777 116.478 93.2132C116.995 93.1486 117.059 93.2132 117.059 93.7726C117.059 94.246 116.93 94.4397 116.607 94.5258C116.371 94.5903 116.134 94.5258 116.091 94.3967Z" fill="white"/>
<path d="M103.976 93.1701C103.976 92.7613 104.019 92.5891 104.084 92.8043C104.127 92.998 104.127 93.3423 104.084 93.5574C104.019 93.7511 103.976 93.579 103.976 93.1701Z" fill="white"/>
<path d="M104.514 93.4499C104.234 93.1916 104.363 92.3524 104.707 92.2233C105.202 92.0296 105.439 92.2663 105.439 92.9765C105.439 93.4283 105.331 93.6005 105.052 93.6005C104.837 93.6005 104.578 93.5359 104.514 93.4499Z" fill="white"/>
<path d="M105.805 92.8689C105.719 92.5461 105.676 92.2018 105.762 92.1372C105.977 91.9221 106.106 92.2663 106.042 92.8904L105.977 93.4929L105.805 92.8689Z" fill="white"/>
<path d="M112.755 92.7182C112.755 92.4815 112.863 92.3524 112.971 92.417C113.1 92.4815 113.186 92.6967 113.186 92.8689C113.186 93.041 113.1 93.1701 112.971 93.1701C112.863 93.1701 112.755 92.9765 112.755 92.7182Z" fill="white"/>
<path d="M113.724 92.998C113.423 92.6752 113.659 92.0942 114.154 91.9651C114.778 91.8145 114.8 91.8145 114.993 92.4385C115.122 92.8258 115.036 92.9119 114.477 92.998C114.133 93.0625 113.788 93.041 113.724 92.998Z" fill="white"/>
<path d="M115.703 92.5891C115.467 92.3739 115.531 91.6638 115.768 91.6638C115.897 91.6638 115.983 91.5778 115.983 91.4486C115.983 91.3411 115.854 91.2335 115.682 91.2335C115.316 91.2335 115.015 90.1791 115.316 89.8778C115.703 89.4905 116.134 89.8993 116.392 90.9537C116.543 91.5132 116.693 92.1588 116.758 92.3739C116.844 92.6537 116.758 92.7398 116.349 92.7398C116.069 92.7398 115.768 92.6752 115.703 92.5891Z" fill="white"/>
<path d="M116.865 91.4486C116.715 90.8031 116.327 89.512 116.048 88.5652C115.617 87.188 115.574 86.8437 115.811 86.6931C115.962 86.5855 116.155 86.4994 116.22 86.4994C116.456 86.4994 117.317 90.9107 117.231 91.7714L117.167 92.6322L116.865 91.4486Z" fill="white"/>
<path d="M103.761 91.3411C103.761 90.9968 103.804 90.8676 103.868 91.0828C103.911 91.2765 103.911 91.5778 103.868 91.7284C103.804 91.8575 103.761 91.7069 103.761 91.3411Z" fill="white"/>
<path d="M104.191 91.298C104.277 90.5449 104.901 90.3727 105.074 91.0613C105.224 91.6208 105.267 91.5562 104.622 91.7714C104.17 91.9005 104.127 91.8575 104.191 91.298Z" fill="white"/>
<path d="M113.272 91.1044C113.1 90.4803 113.465 90.1145 114.154 90.2006C114.67 90.2651 114.864 91.1904 114.434 91.4702C113.896 91.8145 113.401 91.6638 113.272 91.1044Z" fill="white"/>
<path d="M105.439 90.9322C105.439 90.5664 105.547 90.3727 105.783 90.3727C105.998 90.3727 106.085 90.5234 106.041 90.8461C105.934 91.5347 105.439 91.5993 105.439 90.9322Z" fill="white"/>
<path d="M103.524 90.0284C103.524 89.7917 103.589 89.7272 103.653 89.8993C103.718 90.05 103.696 90.2436 103.632 90.3082C103.567 90.3942 103.503 90.2651 103.524 90.0284Z" fill="white"/>
<path d="M103.933 89.9639C103.933 89.6411 104.062 89.512 104.385 89.512C104.686 89.512 104.794 89.6196 104.751 89.8778C104.643 90.4373 103.933 90.5018 103.933 89.9639Z" fill="white"/>
<path d="M105.116 89.7702C104.966 89.3829 104.966 89.3829 105.611 89.2107C105.999 89.0816 106.085 89.1462 106.085 89.469C106.085 89.9854 105.31 90.2436 105.116 89.7702Z" fill="white"/>
<path d="M112.906 89.469C112.755 88.931 113.035 88.6513 113.788 88.6513C114.154 88.6513 114.262 88.7804 114.262 89.1892C114.262 89.512 114.133 89.7272 113.96 89.7272C113.788 89.7272 113.509 89.7917 113.336 89.8563C113.143 89.9208 112.992 89.7917 112.906 89.469Z" fill="white"/>
<path d="M114.778 88.974C114.606 88.5437 114.864 88.2209 115.359 88.2209C115.661 88.2209 115.768 88.3715 115.768 88.7588C115.768 89.1462 115.661 89.2968 115.338 89.2968C115.101 89.2968 114.843 89.1462 114.778 88.974Z" fill="white"/>
<path d="M103.718 88.6728C103.718 88.2209 104.213 87.7044 104.428 87.9411C104.514 88.0057 104.579 88.307 104.579 88.5867C104.579 88.931 104.449 89.0816 104.148 89.0816C103.868 89.0816 103.718 88.931 103.718 88.6728Z" fill="white"/>
<path d="M104.901 88.4146C104.729 87.8766 104.923 87.6399 105.655 87.5323C106.322 87.4462 106.537 88.1563 105.956 88.5867C105.396 88.9956 105.052 88.931 104.901 88.4146Z" fill="white"/>
<path d="M112.691 88.2854C112.54 88.1563 112.476 87.3602 112.605 87.3602C112.626 87.3602 112.949 87.2741 113.336 87.1665C113.982 86.9728 114.025 86.9943 114.004 87.5753C113.982 88.0057 113.853 88.2209 113.53 88.307C112.949 88.4576 112.863 88.4576 112.691 88.2854Z" fill="white"/>
<path d="M111.895 87.7905C111.895 87.6399 111.959 87.5753 112.045 87.6399C112.11 87.726 112.11 87.8551 112.045 87.9411C111.959 88.0057 111.895 87.9411 111.895 87.7905Z" fill="white"/>
<path d="M114.305 87.4462C114.369 87.0804 115.036 86.5425 115.187 86.7146C115.251 86.7792 115.359 87.0374 115.424 87.3171C115.574 87.7475 115.51 87.7905 114.907 87.7905C114.391 87.7905 114.24 87.7044 114.305 87.4462Z" fill="white"/>
<path d="M103.933 87.4247C103.933 87.3171 104.041 87.1019 104.148 86.9298C104.32 86.6716 104.363 86.6931 104.363 87.1019C104.363 87.3601 104.277 87.5753 104.148 87.5753C104.041 87.5753 103.933 87.5108 103.933 87.4247Z" fill="white"/>
<path d="M104.579 86.9513C104.579 86.3488 105.03 86.1551 105.375 86.607C105.59 86.9298 105.59 87.0374 105.375 87.188C104.923 87.4677 104.579 87.3817 104.579 86.9513Z" fill="white"/>
<path d="M111.12 86.6716C110.733 86.2412 110.733 86.2197 111.098 86.3488C111.314 86.4349 111.593 86.4994 111.701 86.4994C111.808 86.4994 111.895 86.65 111.895 86.8222C111.895 87.2741 111.593 87.231 111.12 86.6716Z" fill="white"/>
<path d="M106.494 86.65C105.568 85.9399 105.439 84.3476 106.3 84.3476C106.881 84.3476 107.419 85.2514 107.333 86.0906C107.268 86.8652 107.01 87.0374 106.494 86.65Z" fill="white"/>
<path d="M112.39 86.7792C112.476 86.7146 112.605 86.7146 112.691 86.7792C112.755 86.8652 112.691 86.9298 112.54 86.9298C112.39 86.9298 112.325 86.8652 112.39 86.7792Z" fill="white"/>
<path d="M115.639 85.9399C115.703 85.7463 115.768 85.5526 115.768 85.5096C115.768 85.4665 115.876 85.4235 115.983 85.4235C116.112 85.4235 116.198 85.6172 116.198 85.8539C116.198 86.1121 116.048 86.2842 115.854 86.2842C115.617 86.2842 115.553 86.1766 115.639 85.9399Z" fill="white"/>
<path d="M104.363 85.8754C104.363 85.3805 104.815 84.5628 105.073 84.5628C105.525 84.5628 105.202 85.9399 104.729 86.026C104.535 86.069 104.363 86.0045 104.363 85.8754Z" fill="white"/>
<path d="M109.205 85.6387L108.56 85.4881L109.141 85.3374C109.743 85.1653 110.173 85.2944 110.173 85.6602C110.173 85.8754 110.152 85.8754 109.205 85.6387Z" fill="white"/>
<path d="M108.452 84.6058C108.452 83.7236 108.947 83.5944 109.398 84.3691C109.7 84.8855 109.721 84.9931 109.442 84.9931C109.269 84.9931 108.99 85.0577 108.796 85.1222C108.538 85.2298 108.452 85.1007 108.452 84.6058Z" fill="white"/>
<path d="M112.196 84.9071C111.228 84.4767 110.604 83.3362 110.604 81.9806C110.604 81.0122 110.69 80.7755 111.271 80.2376C111.636 79.8933 112.002 79.6135 112.11 79.6135C112.583 79.6135 114.326 81.2705 114.907 82.3033L115.574 83.4868L114.864 84.24C114.046 85.1007 113.143 85.3374 112.196 84.9071Z" fill="white"/>
<path d="M107.699 84.3476C107.634 84.24 107.677 84.1324 107.785 84.1324C107.914 84.1324 108.022 84.24 108.022 84.3476C108.022 84.4767 107.979 84.5628 107.935 84.5628C107.871 84.5628 107.763 84.4767 107.699 84.3476Z" fill="white"/>
<path d="M104.88 84.0033C104.944 83.8096 105.009 83.616 105.009 83.5729C105.009 83.5299 105.203 83.4868 105.439 83.4868C105.977 83.4868 105.999 83.8311 105.461 84.1324C104.88 84.4337 104.729 84.4121 104.88 84.0033Z" fill="white"/>
<path d="M106.58 83.7451C106.085 83.6805 105.934 83.4008 106.257 83.2071C106.343 83.1426 106.73 83.035 107.118 82.9489C107.699 82.8198 107.806 82.8628 107.806 83.2286C107.806 83.6805 107.354 83.8742 106.58 83.7451Z" fill="white"/>
<path d="M108.237 83.0134C108.237 82.7552 108.258 82.6046 108.301 82.6476C108.323 82.6907 108.495 82.9059 108.646 83.121C108.904 83.4223 108.882 83.4868 108.581 83.4868C108.366 83.4868 108.237 83.3147 108.237 83.0134Z" fill="white"/>
<path d="M105.224 82.8628C105.224 82.7337 105.332 82.5831 105.439 82.5185C105.568 82.454 105.654 82.54 105.654 82.7122C105.654 82.9058 105.568 83.0565 105.439 83.0565C105.332 83.0565 105.224 82.9704 105.224 82.8628Z" fill="white"/>
<path d="M106.02 82.54C105.848 82.1097 107.376 81.6363 107.634 82.0451C107.828 82.3894 107.634 82.54 106.817 82.7122C106.322 82.8198 106.106 82.7767 106.02 82.54Z" fill="white"/>
<path d="M108.043 81.8514C108.043 81.6147 108.107 81.5502 108.172 81.7223C108.236 81.873 108.215 82.0666 108.15 82.1312C108.086 82.2173 108.021 82.0881 108.043 81.8514Z" fill="white"/>
<path d="M106.214 81.5072C106.472 81.0338 107.225 80.2591 107.419 80.2591C107.634 80.2591 107.656 81.2705 107.441 81.3996C107.333 81.4426 106.989 81.5502 106.666 81.6363C106.193 81.7439 106.085 81.7223 106.214 81.5072Z" fill="white"/>
<path d="M107.935 81.0122C107.699 80.3667 107.806 80.0869 108.323 80.0009C108.861 79.8933 108.861 79.8933 108.516 80.5603C108.086 81.4211 108.108 81.4211 107.935 81.0122Z" fill="white"/>
<path d="M107.806 79.7211C107.806 79.6781 108.237 79.3768 108.774 79.0756C109.42 78.6882 109.872 78.5591 110.195 78.6452C110.582 78.7743 110.474 78.8604 109.528 79.3123C108.473 79.7857 107.806 79.9578 107.806 79.7211Z" fill="white"/>
<path d="M119.749 60.6558C119.168 59.8166 117.941 58.461 117.059 57.6433C116.177 56.8256 115.596 56.1585 115.768 56.1585C116.241 56.1585 119.857 57.1484 120.76 57.5357C121.513 57.8585 121.535 57.9015 121.341 58.5686C121.234 58.9559 121.148 59.9242 121.148 60.7204C121.148 61.5381 121.083 62.1837 120.997 62.1837C120.889 62.1837 120.351 61.4951 119.749 60.6558Z" fill="white"/>
<path d="M75.959 125.835C75.0767 125.383 74.883 125.125 73.7641 122.909C72.1502 119.767 72.1072 119.035 73.635 120.821C74.2375 121.531 75.6362 122.995 76.7336 124.071C78.6057 125.878 78.6918 126.007 78.0678 125.921C77.6159 125.857 77.4437 125.9 77.5513 126.072C77.8095 126.459 76.9918 126.351 75.959 125.835Z" fill="white"/>
<path fill-rule="evenodd" clip-rule="evenodd" d="M112.021 165.04C111.842 164.615 112.041 164.127 112.466 163.948L112.929 163.752C117.437 161.823 120.024 160.664 121.782 158.825C123.54 156.985 123.75 154.283 124.08 152.639C124.171 152.188 125.193 152.98 125.644 153.071C126.095 153.161 126.388 153.601 126.297 154.052C125.9 156.029 124.83 157.913 123.109 159.702C121.393 161.485 118.071 163.397 113.112 165.484C112.688 165.663 112.2 165.464 112.021 165.04Z" fill="#23262F"/>
<path fill-rule="evenodd" clip-rule="evenodd" d="M132.404 79.1813C132.8 78.9459 133.311 79.0756 133.547 79.4711C135.904 83.4308 137.167 87.9573 137.167 92.6667C137.167 106.934 125.601 118.5 111.333 118.5C107.542 118.5 103.865 117.682 100.498 116.124C100.08 115.931 98.5023 114.392 100.091 115.018C101.681 115.644 107.829 117.049 111.378 117.049C124.724 117.049 134.167 106.014 134.167 92.6667C134.167 88.2595 132.404 84.3476 132.115 80.3236C132.081 79.8571 132.009 79.4167 132.404 79.1813Z" fill="#23262F"/>
<path fill-rule="evenodd" clip-rule="evenodd" d="M49.8732 142.252C50.1678 141.898 50.6932 141.184 51.0469 141.478C52.4976 142.687 54.0457 144.087 55.7017 144.357C57.4249 144.638 59.4692 144.638 61.8319 144.352C62.2888 144.297 62.7041 144.622 62.7594 145.079C62.8147 145.536 62.4891 145.951 62.0322 146.007C59.5231 146.31 57.3243 146.31 55.4332 146.002C53.4749 145.682 51.6537 144.819 49.9802 143.425C49.6266 143.131 49.5787 142.605 49.8732 142.252Z" fill="#23262F"/>
<path d="M67.5665 113.096C66.4906 112.235 64.1881 109.696 62.4451 107.458C61.5414 106.275 60.53 103.865 59.9275 101.433C59.6477 100.336 59.368 99.3459 59.3035 99.2168C59.2174 99.1092 58.8731 97.5814 58.5288 95.8169C58.0124 93.3207 58.1216 92.5166 57.6681 89.5309C57.476 88.2667 57.3022 87.2608 57.3022 87.2608L57.8617 86.5425C58.1845 86.1121 58.5928 85.3999 58.744 84.9931C59.4326 83.1403 64.4894 77.3326 64.64 77.4832C64.683 77.5263 64.5109 78.5376 64.2096 79.7211C63.9299 80.9046 63.5856 82.6907 63.435 83.702C63.2198 85.3805 63.1337 85.5741 62.4667 86.1336C61.6274 86.8437 60.0351 89.1247 60.0351 89.5981C60.0351 90.2436 61.0034 89.8133 62.0148 88.7589L63.0477 87.6829V88.8664C63.0477 89.6411 62.897 90.3512 62.6173 90.9107C62.0793 91.9651 62.0793 93.084 62.5958 93.9448C62.854 94.3751 63.0907 95.408 63.2413 96.6346C63.9084 102.186 65.3286 107.006 67.7602 111.848C68.3627 113.053 68.8361 114.043 68.8146 114.043C68.7715 114.043 68.2121 113.613 67.5665 113.096Z" fill="white"/>
<path fill-rule="evenodd" clip-rule="evenodd" d="M157.104 126.373L158.654 127.062C158.975 127.21 162.519 128.913 166.776 130.958C173.64 134.256 182.357 138.445 182.41 138.445C182.496 138.445 182.9 137.511 182.991 136.422C183.206 134.077 184.002 130.892 184.928 128.675C185.358 127.686 185.702 126.448 185.702 126.341C185.702 126.292 185.353 126.151 184.78 125.92C184.098 125.645 183.101 125.242 182.001 124.716C176.579 122.112 165.97 116.797 164.657 116.001C163.366 115.248 163.108 115.183 163.108 115.678C163.108 116.324 161.795 119.315 160.784 120.929C160.246 121.811 159.192 123.403 158.439 124.458L157.104 126.373ZM182.044 134.571C182.661 134.929 181.592 135.454 181.334 135.54C179.814 135.669 178.024 135.383 176.557 134.528C175.79 133.985 169.752 130.63 165.747 128.405C163.916 127.388 162.509 126.606 162.226 126.438C161.322 125.9 160.461 125.319 160.311 125.146C159.859 124.565 160.289 124.307 161.559 124.415C162.322 124.479 180.711 133.799 182.044 134.571Z" fill="white"/>
<path d="M141.654 128.31C141.095 128.116 140.492 127.686 140.105 127.191L139.459 126.394L141.74 124.135C145.248 120.692 147.83 116.929 150.154 112.733C150.929 111.335 153.231 105.694 153.511 105.07C153.941 104.166 154.264 103.822 155.189 103.305C156.287 102.66 157.535 102.445 158.073 102.81C159.106 103.499 159.106 105.672 158.073 109.416C156.932 113.527 155.405 116.475 152.241 120.714C151.746 121.359 150.821 122.629 150.154 123.511C148.368 125.878 147.206 127.019 145.635 127.901C144.086 128.762 143.182 128.869 141.654 128.31Z" fill="white"/>
<path d="M149.767 127.815L149.315 127.363C149.315 127.363 156.815 117.834 158.159 114.323C159.185 111.643 159.788 110.883 160.603 110.883C161.058 110.883 161.43 110.987 161.602 111.246C161.903 111.697 162.193 112.257 161.806 114.172C161.161 117.271 160.171 119.315 157.201 123.726C156.513 124.738 155.63 125.857 155.243 126.244C154.339 127.083 152.306 127.944 151.122 128.137C150.369 128.245 150.154 128.202 149.767 127.815Z" fill="white"/>
<path fill-rule="evenodd" clip-rule="evenodd" d="M162.365 117.85C162.799 116.858 163.108 115.992 163.108 115.678C163.108 115.183 163.366 115.248 164.658 116.001C165.97 116.797 176.579 122.112 182.001 124.716C184.024 125.684 185.702 126.233 185.702 126.341C185.702 126.448 161.905 118.903 162.365 117.85Z" fill="#BEC4C4"/>
<path fill-rule="evenodd" clip-rule="evenodd" d="M88.7407 119.078C86.0079 117.292 81.8763 113.096 79.8751 110.105C77.0132 105.801 75.1196 101.196 74.1943 96.2472C73.5272 92.6537 73.5487 87.1234 74.2158 83.9172C74.9044 80.6464 75.7866 78.1503 77.3575 74.9871C79.1865 71.329 81.1232 68.6392 84.0282 65.7342C86.8769 62.8855 74.2158 74.6661 77.3575 95.7442C79.8751 113.408 90.6951 120.366 88.7407 119.078Z" fill="#BEC4C4"/>
</svg>
