<svg width="250" height="250" viewBox="0 0 250 250" fill="none" xmlns="http://www.w3.org/2000/svg">
<g id="Illustration/Order Placed">
<path id="Blob" fill-rule="evenodd" clip-rule="evenodd" d="M154.803 51.5269C155.195 36.9883 136.795 12.1692 106.651 16.4935C73.6475 21.2279 49.7005 59.1496 54.471 101.534L54.6527 103.162C57.5813 129.635 58.5598 150.489 53.4998 179.853C49.7165 201.808 76.6193 250.414 136.129 242.725C195.639 235.035 228.327 163.677 200.244 130.007C162.735 85.0343 153.946 83.3467 154.803 51.5269Z" fill="#77B0AA"/>
<path id="Path" fill-rule="evenodd" clip-rule="evenodd" d="M119.462 93.9138C118.441 91.2864 116.507 89.1406 114.833 86.8728C110.356 80.8094 107.58 73.5043 106.9 65.9982C106.537 61.9912 107.916 42.4337 115.205 37.8456C111.606 36.7377 107.916 35.5824 104.964 33.2447C102.012 30.9069 99.9235 27.085 100.718 23.4045C101.92 17.8338 109.155 15.4422 114.552 17.2732C119.949 19.1042 123.831 23.7363 127.423 28.1606C130.857 27.8713 131.71 22.8106 134.847 21.3824C136.963 20.4191 139.423 21.4068 141.474 22.501C147.444 25.6855 153.035 30.0523 156.192 36.0368C159.348 42.0213 159.622 49.8332 155.6 55.274C157.065 53.5967 160.101 55.6827 159.927 57.903C159.754 60.1232 157.792 61.7344 155.92 62.9399C154.048 64.1455 151.955 65.3955 151.215 67.496C149.353 72.7836 146.394 77.6822 142.581 81.7913C140.251 84.3019 137.576 86.5607 135.848 89.518C134.12 92.4752 133.542 96.4495 135.558 99.2186C138.238 96.3659 142.858 95.5637 146.343 97.3459C149.828 99.1281 151.882 103.343 151.139 107.186C155.995 107.603 160.358 111.45 161.379 116.216C171.225 126.141 179.268 137.851 184.998 150.603C188.635 158.698 191.336 167.176 194.028 175.632C195.082 178.94 196.148 182.406 195.561 185.829C194.37 192.779 186.83 196.873 179.827 197.696C171.108 198.72 162.022 196.177 155.102 190.774C151.406 202.269 147.716 214.826 151.918 226.146C152.818 228.57 151.018 231.324 148.667 232.401C146.317 233.478 143.611 233.321 141.031 233.142C126.572 232.139 112.113 231.137 97.6543 230.135C94.6244 229.925 90.4817 228.142 91.5542 225.301C93.9492 218.955 94.6336 211.973 93.5162 205.283C92.6638 209.789 91.1856 214.175 89.1374 218.278C89.1374 218.278 81.9201 233.142 74.7225 225.514C70.6203 217.225 70.4434 207.519 71.6543 198.35C72.8652 189.181 75.3685 180.209 76.3466 171.012C77.2995 162.053 76.7931 152.987 77.7249 144.026C78.6568 135.064 81.2324 125.887 87.3491 119.271C92.1887 114.037 97.0283 108.803 101.868 103.569C103.171 102.16 104.544 100.702 106.346 100.041C108.148 99.3802 110.503 99.8007 111.43 101.481C112.572 100.06 113.909 98.5285 115.722 98.3384C117.536 98.1483 119.428 100.37 118.264 101.773C120.351 99.8778 120.483 96.5411 119.462 93.9138Z" fill="white"/>
<path id="Path_2" fill-rule="evenodd" clip-rule="evenodd" d="M158.045 116.216C167.892 126.141 175.934 137.851 181.664 150.603C185.301 158.698 188.002 167.176 190.695 175.632C191.749 178.94 192.815 182.406 192.228 185.829C191.036 192.779 183.497 196.873 176.494 197.696C167.774 198.72 159.248 195.646 152.328 190.243C148.631 201.739 144.382 214.826 148.584 226.146C148.965 227.172 149.959 228.332 149.535 229.324C148.958 230.676 146.69 231.779 145.334 232.401C144.977 232.564 145.93 229.183 145.888 224.219C145.818 215.772 142.276 186.426 150.613 188.365C170.973 193.1 186.324 192.366 186.646 187.315C188.28 161.671 157.024 111.45 158.045 116.216Z" fill="#BEC4C4"/>
<path id="Combined Shape" fill-rule="evenodd" clip-rule="evenodd" d="M117.128 93.9138C116.328 91.854 114.966 90.0901 113.608 88.3315C113.234 87.8469 112.861 87.3627 112.499 86.8728C108.023 80.8094 105.247 73.5043 104.567 65.9982C104.204 61.9912 105.582 42.4337 112.871 37.8456C109.273 36.7377 105.582 35.5824 102.631 33.2447C99.6789 30.9069 97.59 27.085 98.3843 23.4045C99.5865 17.8338 106.822 15.4422 112.218 17.2732C117.615 19.1042 121.497 23.7363 125.089 28.1606C126.981 28.0013 128.089 26.3944 129.228 24.7443C130.156 23.3985 131.104 22.024 132.513 21.3824C134.629 20.4191 137.089 21.4068 139.141 22.501C145.11 25.6855 150.702 30.0523 153.858 36.0368C157.015 42.0213 157.288 49.8332 153.266 55.274C154.731 53.5967 157.767 55.6827 157.594 57.903C157.42 60.1232 155.459 61.7344 153.587 62.9399C153.487 63.0041 153.387 63.0684 153.286 63.1329C151.495 64.281 149.582 65.5073 148.882 67.496C147.019 72.7836 144.061 77.6822 140.247 81.7913C139.627 82.4593 138.983 83.1095 138.338 83.7598L138.338 83.7601C136.561 85.5536 134.782 87.3477 133.514 89.518C131.786 92.4752 131.209 96.4495 133.225 99.2186C135.905 96.3659 140.525 95.5637 144.01 97.3459C147.495 99.1281 149.549 103.343 148.805 107.186C153.661 107.603 158.024 111.45 159.045 116.216C168.892 126.141 176.934 137.851 182.664 150.603C186.301 158.698 189.002 167.176 191.695 175.632C192.748 178.94 193.815 182.406 193.228 185.829C192.036 192.779 184.497 196.873 177.494 197.696C168.774 198.72 159.689 196.177 152.769 190.774C149.072 202.269 145.382 214.826 149.584 226.146C149.956 227.148 149.867 228.206 149.468 229.179C146.732 223.233 146.231 216.446 146.963 209.939C147.7 203.379 149.629 197.019 151.549 190.703C151.868 189.655 150.204 189.379 149.12 189.23C147.194 188.966 145.796 187.325 144.592 185.8L139.694 179.596C136.534 175.592 132.89 171.295 127.848 170.52C126.45 170.305 125.035 170.383 123.618 170.461C122.755 170.509 121.891 170.557 121.029 170.538C117.683 170.467 114.366 169.365 111.642 167.421C110.989 166.955 110.326 166.371 110.192 165.58C110.061 164.807 110.759 163.901 111.501 164.098L111.553 164.114L111.533 164.107C111.522 164.104 111.511 164.101 111.501 164.098C109.14 163.386 106.893 162.302 104.866 160.897C104.492 160.639 104.112 160.351 103.919 159.94C103.503 159.05 104.192 157.961 105.099 157.586C106.006 157.21 107.033 157.347 108.004 157.49C106.846 157.255 105.651 157.005 104.68 156.33C103.709 155.655 103.014 154.437 103.314 153.294C103.615 152.15 105.191 151.443 106.079 152.223C105.692 151.068 106.532 149.789 107.631 149.266C108.73 148.742 110.004 148.783 111.22 148.85C116.322 149.132 121.409 149.676 126.454 150.481L125.715 140.101C125.685 139.678 125.649 139.235 125.419 138.878C125.125 138.42 124.581 138.202 124.071 138.013C113.801 134.209 103.236 131.201 92.5016 129.027L94.9063 174.078C94.98 175.459 95.3648 177.211 96.7297 177.436C105.21 178.832 113.529 181.207 121.468 184.5C122.583 184.963 123.398 183.402 123.604 182.212L125.638 170.422C125.92 175.406 125.207 180.445 123.553 185.154C124.818 185.452 125.55 183.78 125.753 182.496L127.59 170.845C127.903 174.975 127.542 179.156 126.525 183.171C126.292 184.093 125.937 185.113 125.075 185.514C124.345 185.854 123.49 185.634 122.718 185.408L95.8552 177.575C95.4329 177.451 94.992 177.318 94.679 177.009C94.213 176.549 94.1494 175.831 94.1134 175.177L91.8778 134.555C91.7329 131.922 91.8768 129.282 92.0207 126.649L92.7575 113.163C88.4337 128.394 88.0254 144.539 89.8469 160.266C91.6685 175.994 95.6693 191.384 100.053 206.598C98.2087 203.443 96.8616 199.998 96.0767 196.429C93.9325 199.498 91.6828 202.996 92.2945 206.689C93.3219 212.892 92.6668 219.365 90.4175 225.236C89.9045 226.575 90.8268 228.12 92.0896 228.799C93.3525 229.478 94.8503 229.512 96.2841 229.53L115.372 229.767C114.846 229.098 115.036 227.989 115.755 227.535C115.562 229.609 118.223 230.586 120.288 230.867C130.041 232.193 140.409 233.437 149.373 229.398C148.775 230.687 147.64 231.802 146.334 232.401C143.983 233.478 141.277 233.321 138.698 233.142L95.3208 230.135C92.2909 229.925 88.1482 228.142 89.2207 225.301C91.6157 218.955 92.3001 211.973 91.1827 205.283C90.3303 209.789 88.8521 214.175 86.8039 218.278C87.644 211.428 89.9407 204.759 93.4972 198.844C96.0287 194.634 94.5703 189.276 93.2701 184.539C87.1138 162.109 86.1595 138.268 90.5031 115.418C81.2328 122.194 77.3626 134.219 76.2631 145.649C75.8033 150.428 75.7273 155.24 75.6514 160.049C75.5456 166.742 75.44 173.429 74.3 180.013C73.7792 183.021 73.0444 185.994 72.3101 188.964C71.15 193.657 69.9913 198.345 69.6799 203.158C69.1937 210.675 70.796 218.152 72.389 225.514C68.2868 217.225 68.1099 207.519 69.3208 198.35C69.8765 194.142 70.7045 189.975 71.5322 185.81C72.5081 180.898 73.4839 175.988 74.0131 171.012C74.493 166.5 74.6028 161.961 74.7125 157.421C74.8207 152.948 74.9289 148.474 75.3914 144.026C76.3233 135.064 78.8989 125.887 85.0156 119.271L99.5343 103.569C100.837 102.16 102.211 100.702 104.013 100.041C105.815 99.3802 108.17 99.8007 109.097 101.481C110.239 100.06 111.576 98.5285 113.389 98.3384C115.202 98.1483 117.095 100.37 115.931 101.773C118.017 99.8778 118.149 96.5411 117.128 93.9138ZM149.373 229.398C149.406 229.326 149.438 229.253 149.468 229.179C149.49 229.228 149.513 229.276 149.535 229.324C149.481 229.349 149.427 229.373 149.373 229.398ZM192.237 182.027C192.728 186.12 190.533 190.235 187.277 192.764C184.02 195.293 179.851 196.404 175.738 196.686C167.078 197.281 158.227 194.312 151.677 188.616C156.705 183.462 156.986 174.409 152.287 168.954C156.329 167.073 160.463 165.166 164.895 164.679C169.327 164.192 174.191 165.368 177.072 168.771C177.565 169.352 177.991 169.987 178.416 170.62C178.939 171.399 179.461 172.177 180.105 172.855C179.547 169.165 176.671 166.083 173.228 164.643C169.784 163.204 165.867 163.236 162.224 164.046C158.581 164.856 155.149 166.4 151.747 167.935C151.101 168.226 150.617 167.295 150.511 166.594L149.902 162.527C149.65 160.851 149.677 158.657 151.256 158.042C152.442 157.579 152.131 155.77 151.346 154.768C151.215 154.6 151.074 154.431 150.932 154.261C150.225 153.414 149.483 152.525 149.67 151.482C151.66 140.403 153.661 129.28 157.202 118.596C157.312 118.265 157.445 117.906 157.747 117.732C158.155 117.495 158.67 117.7 159.08 117.931C162.397 119.806 164.38 123.155 166.358 126.497C167.056 127.676 167.754 128.855 168.509 129.968C169.675 131.684 171.01 133.272 172.346 134.862L172.346 134.862L172.346 134.862L172.346 134.862L172.346 134.862L172.346 134.862L172.346 134.862L172.346 134.862L172.346 134.862L172.346 134.862L172.347 134.862L172.347 134.863L172.347 134.863L172.347 134.863L172.347 134.863C173.339 136.043 174.331 137.224 175.254 138.457C180.945 146.059 183.736 155.202 186.533 164.364C187.81 168.544 189.087 172.727 190.641 176.771C190.704 176.935 190.768 177.099 190.831 177.263L190.831 177.263C191.433 178.815 192.039 180.378 192.237 182.027ZM147.654 158.103C148.466 158.095 149.316 158.077 150.027 157.685C150.737 157.293 151.24 156.395 150.911 155.652C150.599 154.948 149.699 154.694 148.935 154.794C148.492 154.852 148.069 154.996 147.645 155.141L147.645 155.141L147.645 155.141L147.644 155.141L147.644 155.142L147.644 155.142L147.643 155.142L147.643 155.142L147.643 155.142L147.642 155.142L147.642 155.142L147.642 155.142L147.642 155.142L147.641 155.142L147.641 155.142C147.335 155.247 147.028 155.352 146.713 155.424C145.14 155.784 143.534 155.31 141.937 154.838C140.207 154.327 138.488 153.82 136.832 154.377C137.903 152.603 137.833 150.41 137.766 148.326C137.762 148.217 137.759 148.108 137.755 148C137.415 136.932 139.871 125.79 144.832 115.891C143 117.201 141.686 119.214 141.224 121.418C141.169 121.68 141.125 121.945 141.082 122.211C140.969 122.893 140.857 123.575 140.556 124.192C139.336 126.696 135.89 126.881 133.117 126.631C130.844 126.426 128.462 126.127 126.611 124.793C125.682 124.123 124.935 123.225 124.191 122.331L124.191 122.331C123.202 121.141 122.219 119.96 120.827 119.341C118.517 118.313 116.049 119.17 113.552 120.036C111.296 120.819 109.016 121.61 106.808 121.027C105.564 120.699 104.704 122.227 104.33 123.458L102.703 128.823C101.944 125.89 102.871 122.582 105.044 120.471C104.113 119.861 104.364 118.608 104.612 117.368C104.863 116.111 105.112 114.868 104.128 114.318C101.159 112.657 100.572 108.712 100.318 105.319C96.5409 106.714 94.3857 110.797 93.7215 114.769C93.33 117.11 93.3345 119.486 93.339 121.864C93.3422 123.521 93.3453 125.179 93.2146 126.827C104.604 129.057 115.83 132.119 126.773 135.983C127.443 136.219 128.147 136.483 128.594 137.035C129.075 137.629 129.164 138.439 129.235 139.2C129.592 143.048 129.93 147.055 128.553 150.666L128.564 139.413C128.565 138.79 128.459 138.01 127.866 137.819C126.943 137.522 126.511 138.931 126.587 139.898L127.245 148.263C127.336 149.408 127.502 150.698 128.423 151.384L111.865 149.721C110.145 149.548 108.084 149.519 107.078 150.925C107.244 152.27 108.852 152.834 110.178 153.111L120.718 155.308C117.42 155.99 113.953 155.379 110.833 154.111C110.596 154.015 110.359 153.915 110.123 153.814L110.123 153.814C109.135 153.395 108.143 152.975 107.084 152.835C105.771 152.662 104.288 153.019 103.525 154.102C108.241 157.221 113.722 159.174 119.347 159.74C119.313 160.35 118.499 160.533 117.889 160.488C116.303 160.373 114.777 159.908 113.249 159.442L113.249 159.441C112.54 159.225 111.831 159.009 111.115 158.828C108.857 158.255 106.326 158.066 104.322 159.253C108.833 162.932 114.782 164.211 120.485 165.377L111.041 165.175C112.711 168.148 116.459 169.242 119.863 169.423C120.87 169.476 121.886 169.475 122.901 169.473C125.32 169.47 127.736 169.467 130.022 170.202C134.171 171.537 137.177 175.058 139.952 178.419L145.305 184.899C146.035 185.783 147.426 185.881 148.457 185.381C149.488 184.882 150.216 183.918 150.786 182.924C151.92 180.949 152.594 178.63 152.228 176.383C151.862 174.135 150.312 172.012 148.126 171.371C144.373 170.27 141.708 166.934 139.866 163.484C139.234 162.299 138.666 161.077 138.098 159.855C137.012 157.519 135.927 155.185 134.396 153.122C133.937 152.504 133.437 151.907 132.938 151.311L132.937 151.311C131.702 149.838 130.468 148.366 129.856 146.563C133.001 149.605 135.67 153.139 137.736 156.996C137.96 157.414 138.207 157.865 138.64 158.059C138.917 158.184 139.232 158.183 139.536 158.18L147.654 158.103ZM146.788 63.7505C147.548 63.6516 148.149 63.0819 148.692 62.5415L151.336 59.9117C146.452 72.0143 139.477 83.7155 128.904 91.3663C126.757 92.9196 124.206 94.3504 121.597 93.8842C120.231 93.64 119.005 92.8906 117.918 92.0271C115.655 90.229 113.865 87.9007 112.334 85.4491C108.011 78.5275 105.61 70.3933 105.647 62.2328C105.683 54.0722 108.179 45.9153 112.849 39.2234C113.01 38.9934 113.19 38.7519 113.455 38.6603C113.724 38.5673 114.019 38.6498 114.291 38.7326C124.081 41.7083 133.776 44.9919 143.36 48.5768C144.877 49.1443 145.508 50.9297 145.784 52.5258C146.352 55.8131 146.2 59.2228 145.343 62.4469C145.147 63.1874 146.028 63.8493 146.788 63.7505ZM140.401 39.2821C141.556 39.2923 142.361 40.8366 141.708 41.7893C141.056 42.7419 139.325 42.5489 138.898 41.4759C138.419 40.2723 137.185 39.619 136.021 39.0027L136.02 39.0024L136.019 39.0021L136.019 39.0018C135.896 38.9367 135.774 38.872 135.653 38.8072C131.739 36.6992 128.731 33.352 125.737 30.021L125.737 30.0209C124.951 29.1471 124.167 28.2743 123.367 27.4254C121.848 25.8125 120.255 24.2694 118.595 22.8027C116.774 21.1941 114.841 19.6589 112.611 18.6937C110.381 17.7285 107.803 17.3767 105.508 18.1753C106.542 18.2277 107.352 19.4058 107.031 20.3898C106.709 21.3738 105.36 21.847 104.495 21.2793C103.629 20.7116 103.526 19.2858 104.3 18.5991C101.953 19.2938 99.9816 21.1498 99.1462 23.4502C98.9814 23.9038 98.859 24.4054 99.0097 24.8639C99.0946 25.1224 99.2613 25.3519 99.4261 25.5789C99.6589 25.8995 99.8878 26.2148 99.8772 26.5991C99.7926 29.6745 102.804 32.459 105.863 32.1345C106.462 32.071 106.704 32.6685 106.954 33.2884C107.074 33.5842 107.195 33.8851 107.359 34.1216C107.651 34.5443 108.138 34.7797 108.606 34.9934C113.354 37.1654 118.268 38.9766 123.29 40.4062C123.872 40.5718 124.669 40.6409 124.915 40.0884C125.247 39.347 126.209 38.9621 126.96 39.2706C127.711 39.5791 128.125 40.5294 127.84 41.2895C127.712 41.6301 128.131 41.9062 128.474 42.0299L145.582 48.2156C145.266 46.9494 146.875 45.6909 148.028 46.3018C149.181 46.9127 149.043 48.9504 147.818 49.4004L154.071 52.5533L155.194 43.3772C155.246 42.9485 155.075 42.311 154.661 42.4337C153.894 42.6609 152.989 42.2271 152.686 41.4865C152.383 40.7459 152.724 39.8026 153.431 39.427C153.975 39.1379 154.177 38.4253 154.057 37.8213C153.937 37.2173 153.565 36.698 153.194 36.2066C149.178 30.8908 144.091 26.3653 138.257 23.149C136.693 22.287 134.797 21.5103 133.181 22.2698C132.246 22.7095 131.617 23.5747 131.002 24.4207C130.904 24.5553 130.806 24.6894 130.708 24.8212C129.478 26.4705 127.956 27.9014 126.233 29.0273L131.685 34.5733C131.234 33.5999 131.92 32.2887 132.977 32.1042C134.033 31.9197 135.123 32.921 135.029 33.9895C134.934 35.0581 133.686 35.8527 132.678 35.4857C134.954 37.325 137.474 39.256 140.401 39.2821ZM147.34 114.402C148.169 114.463 149.01 113.965 149.356 113.21C149.702 112.455 149.529 111.493 148.942 110.905C148.209 110.171 149.058 108.799 150.09 108.693C151.123 108.586 152.061 109.246 152.888 109.872L156.877 112.892C157.36 113.258 157.903 113.805 157.691 114.374C153.136 126.624 150.141 139.454 148.803 152.456C148.694 153.51 147.679 154.286 146.636 154.474C145.594 154.663 144.529 154.399 143.502 154.136L139.833 153.197C139.583 153.133 139.322 153.063 139.137 152.885C138.872 152.63 138.831 152.227 138.809 151.86C138.064 139.339 140.639 126.637 146.202 115.395C146.44 114.915 146.805 114.363 147.34 114.402ZM139.257 106.549C138.265 105.8 138.492 103.971 139.639 103.488C136.801 103.733 134.213 104.998 131.622 106.264C129.123 107.485 126.621 108.707 123.892 109.016C125.532 110.129 126.306 112.262 126.084 114.231C125.861 116.2 124.758 117.994 123.325 119.362C124.552 121.713 126.579 123.636 128.991 124.739C129.841 125.127 130.814 125.417 131.699 125.118C131.892 125.052 132.099 124.965 132.308 124.876C133.072 124.552 133.882 124.209 134.265 124.846C134.985 126.04 136.821 125.766 138.012 125.041C138.826 124.547 139.583 123.876 139.918 122.985C140.253 122.093 140.054 120.955 139.271 120.413C138.621 119.963 138.402 118.991 138.797 118.306C139.192 117.621 140.142 117.322 140.858 117.659C141.483 117.954 142.068 117.22 142.441 116.639C143.319 115.271 144.613 114.174 146.107 113.531C145.509 112.652 145.593 111.37 146.3 110.576C144.473 109.241 143.007 107.415 142.096 105.343C141.947 106.578 140.25 107.298 139.257 106.549ZM115.055 101.767C115.033 101.915 115.01 102.062 114.993 102.209C114.91 102.891 114.984 103.685 115.531 104.101C117.617 101.572 118.844 98.346 118.964 95.0696C118.988 94.4152 119.981 94.5098 120.599 94.7253C122.425 95.3613 124.474 95.044 126.245 94.2684C128.016 93.4928 129.562 92.2918 131.087 91.1032C130.64 94.0738 131.029 97.1654 132.197 99.9331L126.169 104.46C125.93 104.639 125.707 105.049 125.98 105.168C128.264 104.428 130.204 102.921 132.103 101.446L132.281 101.308C134.238 99.7899 136.286 98.2667 138.683 97.6457C141.08 97.0247 143.933 97.5147 145.461 99.4638C146.214 100.424 146.574 101.627 146.919 102.798L147.987 106.424C148.218 107.21 148.445 108.076 148.112 108.825C147.779 109.574 146.607 109.942 146.139 109.27L143.953 106.125C142.912 104.627 141.731 103.027 139.973 102.54C138.055 102.01 136.077 102.968 134.293 103.851C131.167 105.398 127.967 106.795 124.708 108.034C123.705 108.415 122.594 108.043 121.506 107.679C120.268 107.265 119.061 106.861 118.083 107.591C117.719 107.861 117.206 107.713 116.787 107.54C113.908 106.351 111.328 104.443 109.348 102.037L113.494 99.3439C114.071 98.9696 114.872 99.5071 115.068 100.166C115.221 100.683 115.138 101.227 115.055 101.767ZM118.104 117.835C116.217 116.292 115.305 113.648 115.84 111.27C115.976 110.665 115.348 110.197 114.84 109.843C114.333 109.488 113.83 108.796 114.222 108.316C114.433 108.057 114.145 107.695 113.881 107.491L108.808 103.558C108.199 103.086 107.571 102.591 107.22 101.906C106.585 100.667 104.889 100.108 103.642 100.727C101.87 101.605 101.623 103.986 101.614 105.963C101.612 106.429 101.743 107.047 102.208 107.074C103.397 107.141 103.96 108.987 103.01 109.706C102.081 110.411 102.744 111.938 103.669 112.649C103.871 112.804 104.087 112.953 104.304 113.102L104.304 113.102C105.082 113.638 105.874 114.183 106.076 115.072C106.227 115.734 106.004 116.435 105.786 117.12C105.514 117.977 105.249 118.808 105.734 119.505C106.328 120.358 107.595 120.275 108.617 120.083C111.812 119.484 114.98 118.734 118.104 117.835ZM140.652 159.177C142.952 158.992 145.267 158.996 147.566 159.191C147.759 159.207 147.962 159.229 148.117 159.345C148.355 159.523 148.398 159.857 148.425 160.154C148.645 162.59 149.108 165.005 149.804 167.349C149.696 167.637 149.389 167.707 149.069 167.779C148.861 167.826 148.647 167.875 148.48 167.986C147.941 168.344 148.098 169.201 148.499 169.71C148.64 169.889 148.804 170.053 148.968 170.217C149.267 170.517 149.565 170.815 149.72 171.203C144.788 169.658 141.193 165.241 139.272 160.443C139.156 160.152 139.044 159.828 139.149 159.533C139.255 159.238 139.69 159.065 139.89 159.306C139.968 159.401 139.988 159.53 140.005 159.653L140.341 162.05C140.385 162.363 140.898 162.367 141.072 162.102C141.246 161.838 141.181 161.49 141.111 161.182L140.652 159.177ZM124.665 112.009C124.002 110.1 122.217 108.629 120.217 108.343C119.485 108.238 118.66 108.313 118.135 108.834C116.983 109.981 116.528 111.73 116.798 113.333C117.069 114.936 118.01 116.383 119.251 117.433C120.178 118.218 121.486 118.812 122.587 118.299C122.914 118.146 123.194 117.905 123.444 117.643C124.837 116.179 125.327 113.919 124.665 112.009ZM146.648 61.6556C147.192 57.8695 147.697 53.787 145.91 50.4054C145.786 50.17 145.657 49.8603 145.835 49.6626L151.447 52.4428C151.892 52.6633 152.419 53.09 152.212 53.5415C151.97 54.0685 151.924 54.6511 151.878 55.2344C151.859 55.4809 151.839 55.7275 151.805 55.97C151.598 57.4367 150.836 58.78 149.869 59.9021C148.903 61.0242 147.733 61.9505 146.572 62.8695C146.532 62.465 146.59 62.0579 146.648 61.6556ZM152.298 170.389C151.654 169.482 150.793 168.594 149.687 168.484C149.26 168.441 148.686 168.875 148.996 169.171C151.675 171.733 153.47 175.398 153.138 179.09C152.806 182.782 150.021 186.306 146.357 186.868C147.441 188.155 149.508 188.255 150.977 187.434C152.446 186.614 153.39 185.085 153.986 183.512C155.612 179.217 154.957 174.132 152.298 170.389ZM94.79 127.861C98.8547 128.498 102.821 129.641 106.774 130.781L117.546 133.887C120.825 134.833 124.14 135.794 127.097 137.497C125.694 137.446 124.331 137.045 122.989 136.635C120.616 135.91 118.251 135.144 115.885 134.377C108.211 131.892 100.532 129.404 92.5595 128.297C93.0687 127.688 94.0054 127.738 94.79 127.861ZM153.688 56.2834C153.071 56.8376 152.776 57.6645 152.599 58.4747C152.547 58.7126 152.503 58.9529 152.459 59.1932C152.353 59.771 152.247 60.3486 152.031 60.8931C151.996 60.9825 151.957 61.0727 151.918 61.1635C151.724 61.6189 151.523 62.0898 151.668 62.5495C153.995 62.4001 156.1 60.5255 156.517 58.2317C156.657 57.4617 156.574 56.5575 155.964 56.0668C155.318 55.5469 154.305 55.7292 153.688 56.2834ZM141.776 26.1681C142.044 26.9279 141.64 27.8605 140.902 28.1848C140.165 28.509 139.204 28.1764 138.825 27.4655C138.408 26.6828 138.789 25.5827 139.601 25.2258C140.413 24.8688 141.481 25.3317 141.776 26.1681ZM114.079 26.8853C114.125 26.1944 113.691 25.4975 113.051 25.2339C112.236 24.8983 111.188 25.3445 110.866 26.1646C110.543 26.9846 111.006 28.025 111.831 28.3344C112.8 28.6977 114.01 27.9176 114.079 26.8853ZM145.592 33.8445C145.615 34.7185 146.417 35.4976 147.292 35.4952C148.219 35.4926 149.046 34.6009 148.978 33.6759C148.914 32.8039 148.076 32.0634 147.203 32.1069C146.33 32.1503 145.569 32.9704 145.592 33.8445ZM120.668 34.8594C120.034 35.6516 118.651 35.6537 118.014 34.8632C117.378 34.0728 117.675 32.7213 118.585 32.2712C119.494 31.8211 120.749 32.404 120.992 33.3893C121.116 33.8939 120.993 34.4535 120.668 34.8594ZM115.527 48.0648C114.991 48.903 114.876 49.9971 115.227 50.9283C115.358 51.2736 115.552 51.6005 115.827 51.8458C116.712 52.6327 118.224 52.3002 118.969 51.3798C119.713 50.4593 119.816 49.1605 119.596 47.9972C119.509 47.5334 119.347 47.0383 118.952 46.7811C118.676 46.602 118.33 46.5698 118.002 46.5933C117.009 46.6643 116.064 47.2266 115.527 48.0648ZM133.341 56.6436C133.049 56.3448 132.856 55.9596 132.736 55.559C132.292 54.0739 132.917 52.3343 134.205 51.4717C134.788 51.0815 135.539 50.8648 136.198 51.1035C137.006 51.3963 137.45 52.2781 137.603 53.1239C137.823 54.3343 137.559 55.691 136.668 56.5389C135.777 57.3868 134.202 57.5227 133.341 56.6436ZM111.023 73.3405C111.053 72.5927 111.114 71.8461 111.205 71.1032C111.237 70.8458 111.46 70.6246 111.718 70.5946C111.837 72.4267 111.892 74.2629 111.884 76.0988C111.074 75.5048 110.984 74.3444 111.023 73.3405ZM141.122 65.3873C140.879 64.2735 140.042 63.3077 138.975 62.9075C138.796 62.8406 138.804 62.555 138.954 62.4374C139.104 62.3198 139.318 62.3316 139.503 62.3769C140.519 62.6248 141.146 63.6209 141.611 64.5572C141.733 64.8049 141.854 65.0937 141.746 65.3481C141.638 65.6026 141.181 65.6574 141.122 65.3873ZM122.56 227.704C122.453 227.463 122.182 227.348 121.934 227.258C118.057 225.845 113.94 225.09 109.813 225.036C109.225 225.028 108.538 225.085 108.214 225.576C108.529 225.841 108.982 225.841 109.393 225.835C113.763 225.769 118.143 226.58 122.2 228.206C122.444 228.304 122.667 227.945 122.56 227.704ZM123.96 59.2642L123.96 59.2642C123.669 59.4449 123.379 59.6254 123.123 59.8519C122.642 60.2791 122.294 60.9699 122.543 61.5634C122.85 62.2965 123.838 62.4352 124.621 62.294C124.653 62.2881 124.686 62.2819 124.719 62.2757C124.966 62.229 125.219 62.1814 125.46 62.2473C125.733 62.322 125.972 62.6094 125.879 62.8764C125.813 63.0638 125.617 63.1683 125.432 63.2407C124.285 63.689 122.855 63.5222 122.004 62.6324C121.154 61.7427 121.133 60.1134 122.104 59.3577L125.899 56.4051C125.86 57.3079 125.405 58.1774 124.708 58.7519C124.475 58.944 124.217 59.1039 123.96 59.2638L123.96 59.2639L123.96 59.2639L123.96 59.2639L123.96 59.264L123.96 59.264L123.96 59.264L123.96 59.2641L123.96 59.2641L123.96 59.2641L123.96 59.2642ZM139.241 66.3733C139.476 67.7065 139.135 69.0765 138.651 70.3409C136.568 75.785 131.648 80.0516 125.964 81.3441C123.677 81.8643 121.153 81.8948 119.118 80.729C117.082 79.5631 115.774 76.9409 116.666 74.7715C117.714 72.2253 120.958 71.5113 123.711 71.4535C123.952 71.4485 124.195 71.4449 124.441 71.4412C126.995 71.4033 129.722 71.3628 131.571 69.6619C132.229 69.0567 132.703 68.2952 133.179 67.5322C133.579 66.8891 133.981 66.2449 134.493 65.6925C135.614 64.4846 137.808 63.9074 138.792 65.2283C139.039 65.56 139.169 65.9659 139.241 66.3733ZM138.071 68.405C138.355 67.32 138.23 65.7591 137.121 65.5952C136.708 65.5342 136.297 65.7189 135.954 65.9567C135.102 66.5481 134.555 67.4391 134.006 68.3349C133.57 69.0459 133.132 69.76 132.538 70.3299C130.986 71.8182 128.664 72.0814 126.522 72.2669L122.405 72.6235C121.355 72.7144 120.267 72.8168 119.353 73.342C117.636 74.3284 117.041 76.85 118.135 78.4999C119.319 80.2841 121.786 80.6714 123.917 80.4653C130.485 79.8301 136.401 74.7895 138.071 68.405ZM140.417 151.803C140.194 151.828 139.961 151.765 139.782 151.63C139.66 151.539 139.563 151.416 139.502 151.276C139.303 150.823 139.571 150.227 140.042 150.075C140.512 149.922 141.079 150.248 141.184 150.731C141.289 151.215 140.909 151.746 140.417 151.803ZM148.032 151.864C147.87 151.722 147.653 151.644 147.437 151.65C146.906 151.666 146.48 152.265 146.639 152.771C146.798 153.278 147.489 153.527 147.934 153.237C148.379 152.947 148.431 152.214 148.032 151.864ZM132.023 113.293C131.471 112.659 131.519 111.592 132.124 111.009C132.729 110.425 133.797 110.417 134.411 110.992C135.066 111.605 135.075 112.777 134.429 113.4C133.782 114.023 132.612 113.971 132.023 113.293ZM124.807 118.585C124.681 118.924 124.67 119.305 124.778 119.65C125.084 120.632 126.441 121.099 127.287 120.514C128.132 119.928 128.172 118.493 127.36 117.861C126.548 117.23 125.167 117.621 124.807 118.585ZM110.206 116.087C110.016 116.716 109.414 117.198 108.759 117.246C107.792 117.316 106.888 116.356 107.017 115.395C107.146 114.434 108.27 113.747 109.185 114.069C109.969 114.346 110.448 115.291 110.206 116.087Z" fill="#003C43"/>
</g>
</svg>
