<svg width="24" height="24" viewBox="0 0 24 24" fill="none" xmlns="http://www.w3.org/2000/svg">
<path d="M12.4997 22.0001H4.07973C2.91973 22.0001 1.96973 21.0701 1.96973 19.9301V5.09011C1.96973 2.47011 3.91973 1.2801 6.30973 2.4501L10.7497 4.63011C11.7097 5.10011 12.4997 6.3501 12.4997 7.4101V22.0001Z" stroke="#292D32" stroke-width="1.5" stroke-linecap="round" stroke-linejoin="round"/>
<path d="M21.97 15.0602V18.8402C21.97 21.0002 20.97 22.0002 18.81 22.0002H12.5V10.4202L12.97 10.5202L17.47 11.5302L19.5 11.9802C20.82 12.2702 21.9 12.9502 21.96 14.8702C21.97 14.9302 21.97 14.9902 21.97 15.0602Z" stroke="#292D32" stroke-width="1.5" stroke-linecap="round" stroke-linejoin="round"/>
<path d="M5.5 9H8.97" stroke="#292D32" stroke-width="1.5" stroke-linecap="round" stroke-linejoin="round"/>
<path d="M5.5 13H8.97" stroke="#292D32" stroke-width="1.5" stroke-linecap="round" stroke-linejoin="round"/>
<path d="M17.4697 11.53V14.75C17.4697 15.99 16.4597 17 15.2197 17C13.9797 17 12.9697 15.99 12.9697 14.75V10.52L17.4697 11.53Z" stroke="#292D32" stroke-width="1.5" stroke-linecap="round" stroke-linejoin="round"/>
<path d="M21.9597 14.87C21.8997 16.05 20.9197 17 19.7197 17C18.4797 17 17.4697 15.99 17.4697 14.75V11.53L19.4997 11.98C20.8197 12.27 21.8997 12.95 21.9597 14.87Z" stroke="#292D32" stroke-width="1.5" stroke-linecap="round" stroke-linejoin="round"/>
</svg>
