<svg width="60" height="60" viewBox="0 0 60 60" fill="none" xmlns="http://www.w3.org/2000/svg">
<circle cx="30" cy="30" r="30" fill="url(#paint0_linear_568_1456)"/>
<path d="M29.9993 41.65C29.3577 41.65 28.8084 41.3922 28.3514 40.8765C27.8945 40.3608 27.666 39.7408 27.666 39.0167C27.666 38.2925 27.8945 37.6726 28.3514 37.1569C28.8084 36.6412 29.3577 36.3833 29.9993 36.3833C30.641 36.3833 31.1903 36.6412 31.6473 37.1569C32.1042 37.6726 32.3327 38.2925 32.3327 39.0167C32.3327 39.7408 32.1042 40.3608 31.6473 40.8765C31.1903 41.3922 30.641 41.65 29.9993 41.65ZM27.666 33.75V17.95H32.3327V33.75H27.666Z" fill="#E3FEF7"/>
<defs>
<linearGradient id="paint0_linear_568_1456" x1="30" y1="0" x2="30" y2="60" gradientUnits="userSpaceOnUse">
<stop stop-color="#77B0AA"/>
<stop offset="1" stop-color="#23262F"/>
</linearGradient>
</defs>
</svg>
