<svg width="52" height="52" viewBox="0 0 52 52" fill="none" xmlns="http://www.w3.org/2000/svg">
<rect width="52" height="52" rx="14" fill="#135D66"/>
<path d="M31.9199 20.37C31.5899 20.29 31.2399 20.25 30.8799 20.25C28.2599 20.25 26.1299 22.38 26.1299 25C26.1299 25.89 26.3799 26.73 26.8199 27.45C27.1899 28.07 27.6999 28.6 28.3199 28.98C29.0599 29.47 29.9399 29.75 30.8799 29.75C32.6199 29.75 34.1299 28.82 34.9499 27.45C35.3899 26.73 35.6299 25.89 35.6299 25C35.6299 22.74 34.0499 20.84 31.9199 20.37ZM32.8299 24.57L30.3999 27C30.3099 27.09 30.1199 27.18 29.9899 27.2L29.0599 27.33C28.7199 27.38 28.4899 27.14 28.5399 26.81L28.6699 25.88C28.6899 25.75 28.7799 25.57 28.8699 25.47L30.9499 23.39L31.2999 23.04C31.7199 22.62 32.2099 22.42 32.8199 23.04C33.4299 23.66 33.2499 24.15 32.8299 24.57Z" fill="white"/>
<path d="M34.5799 18.02V18.98C34.5799 19.39 34.1099 19.64 33.7399 19.45C33.2799 19.21 32.7899 19.03 32.2699 18.91C31.8299 18.8 31.3599 18.75 30.8799 18.75C27.4299 18.75 24.6299 21.55 24.6299 25C24.6299 26.14 24.9399 27.26 25.5299 28.22C26.0299 29.06 26.7299 29.76 27.4899 30.23C27.6599 30.34 27.8399 30.44 28.0099 30.54C28.1799 30.63 28.2999 30.81 28.2999 31V33.07C28.2999 33.68 27.8999 34.49 27.3999 34.79L25.9999 35.7C24.6999 36.51 22.9099 35.6 22.9099 33.98V28.63C22.9099 27.92 22.5099 27.01 22.1099 26.51L18.3199 22.47C17.8199 21.96 17.4199 21.05 17.4199 20.45V18.12C17.4199 16.91 18.3199 16 19.4099 16H32.5899C33.6799 16 34.5799 16.91 34.5799 18.02Z" fill="white"/>
</svg>
