<svg width="20" height="20" viewBox="0 0 20 20" fill="none" xmlns="http://www.w3.org/2000/svg">
<path d="M17.3834 6.97455L11.6084 2.35788C10.7167 1.64122 9.27506 1.64122 8.39172 2.34955L2.61672 6.97455C1.96672 7.49122 1.55006 8.58288 1.69172 9.39955L2.80006 16.0329C3.00006 17.2162 4.13339 18.1745 5.33339 18.1745H14.6667C15.8584 18.1745 17.0001 17.2079 17.2001 16.0329L18.3084 9.39955C18.4417 8.58288 18.0251 7.49122 17.3834 6.97455ZM10.0001 12.9162C8.85006 12.9162 7.91672 11.9829 7.91672 10.8329C7.91672 9.68288 8.85006 8.74955 10.0001 8.74955C11.1501 8.74955 12.0834 9.68288 12.0834 10.8329C12.0834 11.9829 11.1501 12.9162 10.0001 12.9162Z" fill="#135D66"/>
</svg>
