<svg width="24" height="24" viewBox="0 0 24 24" fill="none" xmlns="http://www.w3.org/2000/svg">
<path d="M12.0101 22.7399C11.3801 22.7399 10.7601 22.5299 10.2701 22.1099L8.69012 20.7599C8.53012 20.6199 8.13012 20.4799 7.92012 20.4799H6.17012C4.69012 20.4799 3.49012 19.2799 3.49012 17.7999V16.0899C3.49012 15.8799 3.35012 15.4799 3.22012 15.3299L1.86012 13.7299C1.04012 12.7599 1.04012 11.2399 1.86012 10.2599L3.22012 8.65995C3.35012 8.50995 3.49012 8.10995 3.49012 7.89995V6.19995C3.49012 4.71995 4.69012 3.51995 6.17012 3.51995H7.90012C8.11012 3.51995 8.50012 3.36995 8.67012 3.22995L10.2501 1.87995C11.2301 1.04995 12.7601 1.04995 13.7401 1.87995L15.3201 3.22995C15.4801 3.36995 15.8901 3.50995 16.1001 3.50995H17.8001C19.2801 3.50995 20.4801 4.70995 20.4801 6.18995V7.88995C20.4801 8.09995 20.6301 8.48995 20.7701 8.65995L22.1201 10.2399C22.9601 11.2299 22.9501 12.7599 22.1201 13.7299L20.7701 15.3099C20.6301 15.4799 20.4901 15.8699 20.4901 16.0799V17.7799C20.4901 19.2599 19.2901 20.4599 17.8101 20.4599H16.1101C15.9001 20.4599 15.5101 20.6099 15.3301 20.7499L13.7501 22.0999C13.2601 22.5299 12.6301 22.7399 12.0101 22.7399ZM6.17012 5.01995C5.52012 5.01995 4.99012 5.54995 4.99012 6.19995V7.89995C4.99012 8.46995 4.73012 9.18995 4.36012 9.62995L3.00012 11.2299C2.66012 11.6399 2.66012 12.3599 3.00012 12.7599L4.35012 14.3499C4.71012 14.7599 4.98012 15.5099 4.98012 16.0799V17.7899C4.98012 18.4399 5.51012 18.9699 6.16012 18.9699H7.90012C8.46012 18.9699 9.20012 19.2399 9.64012 19.6099L11.2301 20.9699C11.6401 21.3199 12.3601 21.3199 12.7701 20.9699L14.3501 19.6199C14.8001 19.2399 15.5301 18.9799 16.0901 18.9799H17.7901C18.4401 18.9799 18.9701 18.4499 18.9701 17.7999V16.0999C18.9701 15.5399 19.2401 14.8099 19.6101 14.3599L20.9701 12.7699C21.3201 12.3599 21.3201 11.6399 20.9701 11.2299L19.6201 9.64995C19.2401 9.19995 18.9801 8.46995 18.9801 7.90995V6.19995C18.9801 5.54995 18.4501 5.01995 17.8001 5.01995H16.1001C15.5301 5.01995 14.7901 4.74995 14.3501 4.37995L12.7601 3.01995C12.3501 2.66995 11.6401 2.66995 11.2201 3.01995L9.65012 4.37995C9.20012 4.74995 8.47012 5.01995 7.90012 5.01995H6.17012Z" fill="#292D32"/>
<path d="M12 16.87C11.45 16.87 11 16.42 11 15.87C11 15.32 11.44 14.87 12 14.87C12.55 14.87 13 15.32 13 15.87C13 16.42 12.56 16.87 12 16.87Z" fill="#292D32"/>
<path d="M12 13.72C11.59 13.72 11.25 13.38 11.25 12.97V8.13C11.25 7.72 11.59 7.38 12 7.38C12.41 7.38 12.75 7.72 12.75 8.13V12.96C12.75 13.38 12.42 13.72 12 13.72Z" fill="#292D32"/>
</svg>
