<svg width="61" height="61" viewBox="0 0 61 61" fill="none" xmlns="http://www.w3.org/2000/svg">
<path d="M49.4895 26.713C51.1225 27.6558 51.9388 28.1273 52.1532 28.9275C52.3676 29.7277 51.8964 30.5441 50.9536 32.1771L42.1206 47.4763C41.1778 49.1093 40.7063 49.9256 39.9061 50.14C39.1059 50.3545 38.2895 49.8833 36.6565 48.9404L11.831 34.6074C10.198 33.6646 9.38172 33.1932 9.1673 32.393C8.95289 31.5928 9.42409 30.7763 10.3669 29.1433L19.1999 13.8441C20.1427 12.2111 20.6142 11.3948 21.4144 11.1804C22.2146 10.966 23.031 11.4372 24.664 12.38L49.4895 26.713ZM35.4326 40.7283C34.9544 40.4522 34.3428 40.6162 34.0666 41.0943C33.7904 41.5726 33.9543 42.1842 34.4326 42.4603L37.6083 44.2938L37.6987 44.3404C38.161 44.5482 38.7154 44.3762 38.9743 43.9278C39.233 43.4794 39.1049 42.9132 38.6938 42.6168L38.6083 42.5618L35.4326 40.7283ZM33.4103 25.8971C30.7796 24.3783 27.4159 25.2796 25.8971 27.9102C24.3783 30.5408 25.2796 33.9046 27.9103 35.4234C30.5409 36.9422 33.9046 36.0408 35.4234 33.4102C36.9422 30.7796 36.0409 27.4159 33.4103 25.8971ZM32.4103 27.6291C34.0843 28.5956 34.6578 30.7362 33.6913 32.4102C32.7248 34.0843 30.5843 34.6578 28.9103 33.6913C27.2362 32.7248 26.6627 30.5843 27.6292 28.9102C28.5957 27.2362 30.7362 26.6626 32.4103 27.6291ZM23.713 17.0271C23.2348 16.751 22.6232 16.9149 22.347 17.3932C22.0711 17.8714 22.2348 18.4831 22.713 18.7592L25.8888 20.5927L25.9792 20.6392C26.4414 20.847 26.9958 20.6749 27.2548 20.2267C27.5137 19.7782 27.3854 19.2121 26.9743 18.9156L26.8888 18.8606L23.713 17.0271Z" fill="url(#paint0_linear_273_2102)"/>
<defs>
<linearGradient id="paint0_linear_273_2102" x1="37.0768" y1="19.5465" x2="24.2437" y2="41.7739" gradientUnits="userSpaceOnUse">
<stop stop-color="#994928"/>
<stop offset="1" stop-color="#9F7F72"/>
</linearGradient>
</defs>
</svg>
